<svg width="212" height="66" viewBox="0 0 212 66" fill="none" xmlns="http://www.w3.org/2000/svg">
<path d="M23.6297 60.0435C24.1428 59.7195 24.8517 58.9431 26.4678 56.9343C29.1216 53.6355 32.7098 48.673 36.1096 43.6C48.4314 25.2121 53.405 14.8368 53.1756 7.99845C53.1254 6.49539 52.9997 5.88234 52.5349 4.86931C51.7234 3.10083 50.3701 2.18675 47.7781 1.65536C46.8279 1.46009 46.4572 1.42972 44.9767 1.42606C43.7511 1.42239 42.9867 1.46532 42.2637 1.57736C32.8742 3.03172 19.5274 10.6569 9.89757 20.0679C5.29784 24.5634 2.37078 28.5454 1.02113 32.1431C0.393937 33.8147 0.181385 35.7376 0.482937 37.0109C0.98029 39.1123 2.97913 40.8154 6.56111 42.1902C8.91647 43.0943 11.7875 43.7115 17.3683 44.5146C18.7159 44.7089 20.1865 44.9649 20.6357 45.0832C21.0854 45.202 21.488 45.2994 21.5304 45.2994C21.6147 45.2994 21.9084 44.7811 21.8545 44.7272C21.7801 44.6534 19.0729 44.1576 17.1495 43.866C16.0187 43.6948 14.6994 43.4927 14.2183 43.4178C9.75308 42.7205 5.88262 41.108 4.06754 39.1898C3.07388 38.1401 2.70479 37.1889 2.69956 35.6665C2.69589 34.633 2.80637 33.9613 3.16551 32.8368C5.85226 24.4163 19.7546 11.7694 33.1428 5.5656C37.8687 3.37516 41.6538 2.23438 45.0704 1.97052C46.675 1.84645 47.1744 1.92759 48.3498 2.50295C49.6523 3.14009 50.9213 4.54629 51.2925 5.76402C51.4564 6.30064 51.471 6.49853 51.4208 7.48538C51.3695 8.5005 51.1705 10.0847 50.925 11.4406C50.5994 13.2358 49.1947 17.267 48.0702 19.6334C47.2069 21.4495 45.4065 24.9184 44.3165 26.867C43.9673 27.49 43.4579 28.4114 43.1836 28.915C42.9092 29.4181 42.1868 30.6866 41.5774 31.7332L40.4701 33.6367L38.9801 34.354C36.6363 35.4816 35.0327 36.6266 33.1166 38.5396C30.1519 41.4996 27.1793 45.8789 24.7124 50.9205C22.8884 54.6496 21.8702 57.6217 21.8408 59.3059C21.8293 59.9367 21.9461 60.1064 22.4597 60.2053C23.0518 60.3195 23.2334 60.2943 23.6297 60.0435ZM23.2737 57.1563C24.0533 54.1167 26.6448 48.7589 29.1781 44.9507C31.9769 40.7426 34.6061 37.914 37.4514 36.0492C38.1802 35.5712 39.6388 34.7948 39.6388 34.8848C39.6388 35.0361 36.8206 39.2725 35.116 41.6823C33.0082 44.6633 30.0016 48.806 28.0845 51.3713C27.0034 52.8173 25.4993 54.837 24.7422 55.8595C23.9847 56.882 23.3067 57.7971 23.2355 57.8929C23.0575 58.1316 23.0659 57.9672 23.2737 57.1563Z" fill="#F06111"/>
<path d="M165.765 15.5364C165.745 15.4835 165.503 15.3312 165.23 15.1971L164.731 14.9532L164.484 15.2453C164.135 15.6584 163.203 17.1834 162.149 19.0676C161.652 19.9545 161.158 20.8183 161.051 20.9879L160.856 21.2963L157.279 21.4942C150.552 21.8659 146.622 22.1674 142.895 22.5983C140.11 22.9197 140.219 22.8852 140.744 23.2831L141.043 23.5108L143.26 23.2522C147.185 22.7941 150.272 22.5501 156.458 22.2072C160.679 21.9732 160.484 21.9826 160.484 22.0203C160.484 22.0381 160.231 22.5313 159.923 23.115C157.144 28.3744 152.822 36.9744 151.008 40.8553C150.84 41.215 150.403 42.1495 150.037 42.9316C149.67 43.7143 149.37 44.3672 149.37 44.3829C149.37 44.3986 149.217 44.7389 149.03 45.1394C148.705 45.8367 148.106 47.2345 147.898 47.7842C147.712 48.2769 147.611 48.9109 147.667 49.2407H147.667C147.733 49.6318 147.81 49.6449 148.247 49.3428C148.68 49.0444 148.999 48.536 149.67 47.0722C152.027 41.9354 158.462 29.0984 161.688 23.0983C162.157 22.2271 162.402 21.8564 162.509 21.8564C162.594 21.8564 165.057 21.7203 167.983 21.5538C179.824 20.8806 184.415 20.6298 187.961 20.4633C190.006 20.3675 192.231 20.2476 192.905 20.1974C193.579 20.1471 194.445 20.0827 194.83 20.0545C196.191 19.9539 195.751 19.8717 193.51 19.8068C190.996 19.7341 186.975 19.8419 181.966 20.1173C180.234 20.2126 176.335 20.4256 173.303 20.5916C170.271 20.7576 166.676 20.957 165.313 21.0355C163.951 21.1141 162.818 21.1601 162.796 21.1382C162.758 21.1005 164.824 17.2803 165.494 16.1515C165.663 15.8657 165.785 15.5887 165.765 15.5364Z" fill="#F06111"/>
<path d="M164.093 23.85C163.84 24.3463 163.634 24.8364 163.637 24.9395C163.639 25.0662 163.844 25.2882 164.271 25.6253C164.618 25.8991 164.932 26.1248 164.968 26.1263C165.072 26.1305 165.328 25.8484 165.857 25.1489C166.542 24.2427 166.53 24.1317 165.672 23.4401C164.735 22.6857 164.679 22.6998 164.093 23.85Z" fill="#F06111"/>
<path d="M96.0243 32.9171C97.0295 32.6841 97.8724 32.4742 97.897 32.4496C97.9902 32.3564 98.0205 31.5507 97.9326 31.4963C97.821 31.4277 94.56 32.1046 92.5345 32.6166C91.1419 32.9684 88.8991 33.6202 88.0452 33.9202L87.6688 34.0526L87.2976 33.6836C86.7353 33.1234 86.2024 32.4208 85.9317 31.8831C85.5176 31.0607 85.5171 31.0717 86.0113 30.4801C86.7432 29.6042 87.0117 28.8791 86.7301 28.5409C86.6102 28.397 85.6396 28.131 85.2344 28.131C84.8904 28.131 84.3972 28.5614 84.2554 28.9849C84.1349 29.3451 84.1062 30.2277 84.203 30.589C84.2575 30.7905 84.215 30.8717 83.9098 31.1528C82.3895 32.5538 80.0546 33.626 78.2128 33.7684C77.183 33.8485 77.1689 33.8213 77.8343 33.0354C78.5855 32.1481 78.9708 31.38 78.9708 30.7717C78.9708 30.1832 78.8049 30.0136 78.0055 29.7859C77.2673 29.576 76.9076 29.5676 76.538 29.7529C75.9166 30.0655 75.515 30.6178 75.3381 31.4046C75.2109 31.9706 75.3067 32.4883 75.6417 33.0422L75.9244 33.5098L75.4093 33.9359C74.0413 35.0673 72.4137 35.7876 71.1462 35.8227C70.4991 35.8405 70.1515 35.6013 69.7646 34.8715C69.5149 34.4008 69.4133 34.0448 69.2337 33.0114C69.1688 32.6365 69.1468 32.6129 68.7306 32.4737C67.9877 32.2255 67.9443 32.2423 67.4935 32.9459C66.4663 34.55 66.0915 35.072 65.6355 35.5311C65.0701 36.1007 64.6005 36.3651 64.4204 36.2159C63.9864 35.8573 63.8461 34.2736 64.0979 32.58C64.1838 32.002 64.2314 31.5062 64.2042 31.479C64.1565 31.4313 62.9404 31.0984 62.8032 31.0958C62.7126 31.0937 61.2619 33.0511 59.8976 35.0159C59.2825 35.9028 58.7223 36.6871 58.6532 36.7588C58.5438 36.8734 58.5385 36.8624 58.6113 36.6719C58.8312 36.0934 59.683 34.3767 60.4704 32.9244C61.0384 31.8763 61.7761 30.7021 62.5781 29.5686C65.0356 26.096 66.1177 24.3626 66.0067 24.0752C65.9831 24.0135 65.6947 23.8978 65.3654 23.8171C64.8031 23.68 64.7539 23.6805 64.5387 23.8208C63.6775 24.3825 60.3541 29.5409 58.1312 33.7647C57.5459 34.8772 57.4114 35.0652 56.7512 35.6965C56.0361 36.3803 55.2272 36.931 54.9356 36.9326C54.8424 36.9331 54.7325 36.785 54.6293 36.5195C54.3833 35.884 54.4194 34.5631 54.7225 33.1092C55.0042 31.7564 55.0063 31.7612 54.2278 31.5989L53.732 31.4952L53.3645 31.7894C52.9363 32.1318 52.9383 32.1035 53.4106 31.0502C53.7624 30.2654 53.8195 29.722 53.5723 29.5048C53.3765 29.3325 52.1614 29.0016 51.7337 29.0043C49.4773 29.0189 43.9352 35.1851 43.9258 37.6912C43.9242 38.1409 44.2232 38.3979 44.9744 38.5911C45.8163 38.8084 46.0482 38.8037 46.6476 38.5581C47.6198 38.1597 48.7962 37.2729 51.3044 35.0489C52.1625 34.2877 53.0253 33.5276 53.2216 33.36L53.5781 33.0548L53.5174 33.3166C53.4844 33.46 53.4336 34.0307 53.4048 34.5846C53.3184 36.2567 53.6483 36.9902 54.6006 37.2404C55.2586 37.4132 55.6806 37.4006 56.1088 37.1949C56.3078 37.0991 56.4994 37.0205 56.5339 37.0205C56.5685 37.0205 56.5214 37.2655 56.4287 37.565C56.1916 38.333 56.1298 39.0283 56.2811 39.2277C56.4177 39.4084 57.4595 39.722 57.9213 39.722C58.3935 39.722 58.9778 39.0351 60.8175 36.3174L62.4289 33.937L62.5373 34.5856C62.7661 35.9546 63.0922 36.3792 64.1366 36.6661C64.4968 36.7651 64.9497 36.8452 65.1434 36.8441C65.9329 36.8399 66.6585 36.285 67.594 34.9704C67.9176 34.516 68.1929 34.1443 68.2066 34.1443C68.2202 34.1443 68.3364 34.3584 68.4647 34.6207C68.8055 35.3138 69.3505 35.7526 70.2112 36.0258C71.5551 36.453 72.7314 36.386 74.1397 35.8023C74.7863 35.5342 76.0412 34.75 76.6584 34.2291L76.971 33.9647L77.5332 34.0966C78.2568 34.2668 78.9405 34.2657 79.7839 34.094C81.21 33.804 82.7345 33.1511 83.9611 32.3067C84.3035 32.0711 84.6087 31.8784 84.6396 31.8784C84.671 31.8784 84.8501 32.1041 85.0391 32.3794C85.2276 32.6553 85.7008 33.1946 86.0914 33.5778C86.7919 34.2652 86.896 34.4055 86.7065 34.4055C86.4196 34.4055 82.7376 35.962 81.1147 36.7692C78.9892 37.8268 77.6249 38.6843 76.727 39.5282C75.5836 40.6025 75.4234 41.4941 76.2888 41.9653C76.5574 42.1113 77.9657 42.493 78.752 42.6322C79.0541 42.6856 80.4268 42.6077 81.1147 42.4977C84.1967 42.0056 88.0599 40.2963 89.6346 38.7278C90.8209 37.5467 90.7623 36.8357 89.3708 35.5395C89.0556 35.2453 88.8111 34.9919 88.8284 34.9762C88.8985 34.9118 91.9198 33.9647 93.0156 33.6637C93.6653 33.4857 95.0196 33.1496 96.0243 32.9171ZM51.2939 33.0114L50.9411 33.9265L49.6862 34.9981C48.1622 36.2991 47.0036 37.1818 46.2204 37.6373C45.8979 37.8252 45.6037 37.9791 45.5665 37.9791C45.3472 37.9791 45.7456 36.8284 46.2691 35.951C47.3057 34.2123 49.8684 31.3879 51.2887 30.4188C52.197 29.7995 52.2379 29.7875 52.2368 30.1476C52.2363 30.4413 51.9515 31.3057 51.2939 33.0114ZM76.8841 32.4454C76.6186 32.7485 76.571 32.7731 76.5165 32.6355C76.4192 32.3889 76.526 31.4214 76.6846 31.1162C76.8783 30.7424 77.4416 30.2105 77.6097 30.2419C77.8725 30.2911 77.8243 30.8167 77.4955 31.479C77.3264 31.8193 77.0516 32.2543 76.8841 32.4454ZM89.1378 37.0682C88.852 38.8246 83.5632 41.403 79.2326 41.8967H79.2331C77.7714 42.0637 77.572 42.0056 77.5887 41.4166C77.6055 40.825 78.2023 40.1748 79.6007 39.2235C81.1906 38.1414 83.6648 36.9258 86.6547 35.7573L87.9504 35.251L88.3462 35.6348C88.92 36.1907 89.1985 36.6954 89.1378 37.0682Z" fill="#F06111"/>
<path d="M210.67 34.8626C209.172 34.438 207.864 34.2925 205.551 34.2935C202.46 34.2951 198.947 34.6652 194.942 35.4118L193.302 35.7175L192.439 35.2867C190.087 34.1103 186.672 32.9329 184.33 32.4905C183.417 32.3177 183.422 32.3282 184.08 31.9727C186.257 30.7943 188.039 29.5137 188.367 28.8907C188.55 28.5447 188.466 28.3871 187.927 28.0662C187.298 27.6913 187.027 27.7034 185.643 28.1682C183.951 28.7363 182.882 29.2163 179.679 30.845C176.728 32.346 175.769 32.7517 175.171 32.7517C174.863 32.7517 174.837 32.7324 174.841 32.512C174.845 32.2937 174.941 32.2251 175.903 31.7492C178.136 30.6445 179.508 29.7273 179.732 29.1896C179.915 28.7483 179.824 28.5541 179.255 28.1761C178.768 27.8531 178.688 27.8285 178.161 27.8395C177.808 27.8468 177.413 27.9227 177.12 28.0395C175.699 28.6049 174.284 30.0441 173.918 31.2969L173.775 31.7885L172.927 32.0586C172.054 32.3376 171.092 32.4706 170.686 32.369C170.371 32.29 170.14 31.8764 169.974 31.0963C169.898 30.7367 169.794 30.3341 169.743 30.2022C169.62 29.8797 168.696 29.3153 168.409 29.387C168.087 29.4676 167.374 30.0692 166.186 31.2633C165.586 31.8665 165.112 32.3177 165.131 32.2664C165.15 32.2156 165.501 31.5958 165.91 30.889C166.843 29.2786 167.065 28.8405 167 28.7363C166.897 28.5703 165.998 28.051 165.887 28.0934C165.736 28.151 164.088 30.7985 163.449 32.0099C162.889 33.0732 162.636 33.8648 162.756 34.1789C162.841 34.4009 163.815 35.0176 164.081 35.0176C164.269 35.0176 165.099 34.214 167.251 31.945C168.013 31.1424 168.687 30.4859 168.75 30.4859C168.815 30.4859 168.887 30.6377 168.92 30.8424C169.051 31.6544 169.65 32.3408 170.662 32.8371C171.229 33.1151 171.274 33.1224 172.057 33.0763C172.553 33.047 173.081 32.9543 173.419 32.8366C173.971 32.6449 173.973 32.6449 174.163 32.8172C174.611 33.2203 175.146 33.4491 175.644 33.4491C176.455 33.4491 177.206 33.1486 180.225 31.6152C183.094 30.1587 184.425 29.5603 185.862 29.0802C186.512 28.863 186.578 28.8541 186.387 29.0069C186.056 29.2713 183.925 30.5655 182.886 31.1325C182.381 31.4084 181.872 31.7267 181.756 31.8392C181.495 32.0921 181.557 32.1874 182.263 32.6141C182.679 32.8648 182.959 32.9465 184.068 33.1397C186.933 33.6391 190.365 34.7035 192.281 35.6856L192.618 35.8589L191.493 36.0992C186.131 37.2426 179.793 39.1566 175.861 40.8193C167.466 44.3699 162.13 49.3775 163.25 52.6537C163.545 53.5139 164.866 54.5756 166.354 55.1468C167.23 55.4834 168.605 55.7562 169.848 55.8404C170.401 55.8781 170.933 55.9142 171.03 55.9205C171.493 55.9519 174.186 55.741 175.281 55.5876C180.357 54.8756 186.071 52.9846 191.65 50.1706C196.106 47.9231 198.648 45.8871 199.49 43.8904C199.823 43.1035 199.823 42.0093 199.49 41.2225C198.892 39.8053 197.476 38.3697 195.205 36.8782L194.317 36.295L195.362 36.0934C198.283 35.5285 201.764 35.0877 204.588 34.9244C206.275 34.827 207.183 34.8459 209.489 35.0275C210.138 35.0788 210.827 35.1076 211.02 35.0909C211.356 35.0621 211.342 35.0532 210.67 34.8626ZM176.198 29.9064C176.976 29.1399 177.863 28.6227 178.586 28.5138L178.966 28.4562L178.834 28.7085C178.762 28.8473 178.61 29.0446 178.498 29.1472C178.2 29.4179 177.194 30.0446 176.228 30.5603C175.766 30.8068 175.362 31.0084 175.328 31.0084C175.18 31.0084 175.532 30.5623 176.198 29.9064ZM198.458 40.9335C199.431 43.3909 197.408 45.8997 192.118 48.7927C186.486 51.8742 179.634 54.1908 173.941 54.9389C172.989 55.064 169.512 55.1729 168.885 55.097C166.545 54.8148 165.322 54.4112 164.711 53.7202C164.103 53.0322 163.944 52.2836 164.202 51.3192C165.08 48.0325 170.488 43.8888 177.626 41.0335C181.308 39.5608 187.434 37.7577 192.278 36.7217L193.749 36.4065L194.274 36.7238C196.265 37.9284 197.934 39.6074 198.458 40.9335Z" fill="#F06111"/>
<path d="M143.71 0.84388C143.654 0.873722 143.179 1.46688 142.656 2.16213C142.133 2.85685 141.527 3.661 141.309 3.94841C140.873 4.52273 139.046 7.36653 138.23 8.74184C136.665 11.3789 131.22 19.6025 128.103 24.0373C125.266 28.0732 121.639 32.9724 119.845 35.1926C115.846 40.1421 112.523 43.1828 110.026 44.179C109.303 44.4675 109.141 44.4806 108.533 44.3005C107.599 44.0241 106.937 43.1283 106.703 41.8221C106.349 39.8432 106.795 35.3089 107.975 28.9176C108.562 25.7361 108.544 25.4115 107.789 25.6032C107.629 25.644 107.352 25.7016 107.174 25.7319C106.864 25.7843 106.827 25.8298 106.307 26.8073C104.675 29.8778 103.908 31.2185 101.313 35.5413C99.8797 37.9286 97.8227 41.1436 97.2531 41.8865C96.8338 42.4331 96.8531 42.5472 97.3541 42.4912C97.6599 42.4566 97.9384 42.3195 98.5331 41.91C98.9609 41.6148 99.5682 41.2535 99.8823 41.1075C100.196 40.9609 100.453 40.8033 100.453 40.7567C100.453 40.6405 99.7189 40.7562 99.2132 40.9525L98.8038 41.1112L100.045 39.2013C101.288 37.2852 104.179 32.5713 105.534 30.2469C105.933 29.5637 106.27 29.0166 106.285 29.0307C106.299 29.0448 106.177 29.7212 106.013 30.5343C104.943 35.8659 104.539 40.252 104.951 42.0771C105.256 43.4319 105.811 44.2617 106.691 44.6821C107.354 44.9994 107.936 45.0811 108.658 44.9591C108.959 44.9083 109.45 44.8256 109.751 44.7759C112.76 44.2775 116.435 41.107 121.466 34.6696C125.39 29.649 131.378 21.1333 135.715 14.407C136.209 13.64 136.745 12.8751 136.904 12.7076C137.063 12.5395 137.68 11.6375 138.274 10.703C139.409 8.91775 140.426 7.39114 140.481 7.39114C140.499 7.39114 140.09 8.30313 139.573 9.4172C134.821 19.6438 133.067 22.8839 124.37 45.1271C123.816 46.5412 122.518 49.8358 121.483 52.4482C118.361 60.3273 117.897 61.5749 117.483 63.213C117.252 64.125 117.204 65.2438 117.386 65.4631C117.534 65.6422 117.601 65.6422 118.579 65.4673C119.181 65.3595 119.422 65.2736 119.607 65.1019C119.904 64.8249 120.197 64.2386 120.197 63.9203C120.197 63.637 119.988 63.2067 119.8 63.1015C119.619 63.0004 119.873 62.2377 121.295 58.6164C122.5 55.5469 124.803 49.4394 127.024 43.4278C135.805 19.6501 137.337 16.61 142.85 4.90699C144.565 1.26742 144.746 0.860114 144.686 0.764308C144.629 0.67269 143.925 0.729751 143.71 0.84388Z" fill="#F06111"/>
<path d="M163.108 29.8854C163.108 29.699 163.212 29.199 163.339 28.7744C163.708 27.5389 163.717 27.6091 163.159 27.273C162.892 27.1117 162.623 26.9992 162.561 27.0227C162.471 27.0573 161.612 28.5247 160.305 30.878C157.551 35.8389 156.144 38.9047 156.315 39.5801C156.346 39.7042 156.523 39.8858 156.741 40.0172C157.237 40.3167 157.357 40.2832 157.437 39.8235C157.556 39.1246 158.808 36.5059 160.358 33.7103C161.092 32.3863 162.435 30.0032 162.466 29.9676C162.485 29.9461 162.614 29.9948 162.752 30.0765C163.095 30.278 163.108 30.2712 163.108 29.8854Z" fill="#F06111"/>
<path d="M142.549 32.1421C143.064 31.2783 143.064 31.2998 142.577 31.0851C142.343 30.9825 142.079 30.9014 141.99 30.9055C141.901 30.9092 141.744 30.8181 141.64 30.7029C141.421 30.459 140.196 29.9082 139.695 29.8286C139.114 29.736 138.28 29.9391 137.339 30.4024C136.266 30.9307 135.46 31.5212 134.523 32.4657C133.719 33.2777 133.328 33.9514 133.328 34.5289C133.328 35.0796 133.546 35.3262 134.398 35.7382C135.082 36.0696 135.224 36.1058 135.95 36.1351C136.568 36.1602 136.902 36.1257 137.419 35.9848C138.238 35.7608 139.435 35.1686 140.139 34.6388L140.664 34.2441L140.711 34.653C140.779 35.243 140.925 35.443 141.468 35.6906C142.088 35.9733 142.482 35.9267 143.144 35.4917C143.635 35.1681 145.147 33.72 145.867 32.8829C146.296 32.3829 146.304 32.3484 145.649 33.8415C145.086 35.1236 144.577 36.5801 144.539 37.012C144.515 37.2952 144.531 37.3099 145.171 37.5968C145.532 37.7591 145.886 37.8821 145.958 37.8711C146.032 37.8596 146.44 37.1701 146.877 36.3204C148.237 33.6782 148.974 32.5918 149.694 32.1714L150.115 31.9254L152.128 31.9128C153.235 31.906 154.258 31.8636 154.403 31.8191C154.679 31.7332 154.791 31.4919 154.63 31.3317C154.483 31.1846 149.338 31.1788 148.912 31.3249C148.731 31.3867 148.584 31.4217 148.584 31.4024C148.584 31.383 148.875 30.6495 149.232 29.7721C149.589 28.8947 149.908 28.0293 149.942 27.8492L150.004 27.5215L149.447 27.2649C148.93 27.0267 148.882 27.0189 148.78 27.1571C148.718 27.2387 148.16 28.0701 147.538 29.0046C146.12 31.1354 145.035 32.5233 143.901 33.6583C143.041 34.5195 142.147 35.2048 141.857 35.2257C141.738 35.2346 141.718 35.1498 141.734 34.7017C141.761 33.9996 142.127 32.8489 142.549 32.1421ZM140.098 33.3059C139.023 34.3137 137.911 34.9425 136.602 35.2838C135.969 35.4487 134.934 35.5142 134.816 35.3959C134.784 35.3639 134.757 35.1953 134.757 35.021C134.757 34.5797 135.112 34.0661 135.997 33.2237C137.303 31.9804 138.816 31.0532 139.979 30.7851C140.631 30.6344 140.748 30.6893 140.67 31.1113C140.632 31.3186 140.67 31.361 141.018 31.5034C141.232 31.5908 141.408 31.7086 141.408 31.7641C141.408 31.928 140.783 32.6646 140.098 33.3059Z" fill="#F06111"/>
</svg>
