<svg width="50" height="56" viewBox="0 0 50 56" fill="none" xmlns="http://www.w3.org/2000/svg">
<path d="M15.0438 36.1657C15.3558 35.9697 15.7872 35.4999 16.7709 34.2848C18.386 32.2895 20.5696 29.2876 22.6386 26.2187C30.1371 15.0956 33.1636 8.8195 33.0244 4.68289C32.9935 3.77362 32.917 3.40291 32.6343 2.78996C32.1401 1.72039 31.3166 1.16733 29.7397 0.845834C29.1612 0.727988 28.9356 0.709612 28.0346 0.707204C27.2886 0.705162 26.8237 0.730972 26.3839 0.798664C20.6696 1.67851 12.547 6.29112 6.68665 11.984C3.88786 14.7033 2.10629 17.1122 1.28487 19.2884C0.90322 20.2995 0.77392 21.4626 0.957156 22.233C1.25976 23.504 2.47643 24.5344 4.6564 25.366C6.0893 25.9127 7.83685 26.2863 11.233 26.7722C12.0534 26.8894 12.9481 27.0442 13.2213 27.1161C13.4951 27.1879 13.7402 27.2467 13.7658 27.2467C13.8177 27.2467 13.9962 26.9332 13.9632 26.9007C13.9182 26.8558 12.2706 26.5561 11.1 26.3797C10.4116 26.276 9.609 26.154 9.31583 26.1085C6.59871 25.6866 4.24335 24.7113 3.1387 23.5508C2.53402 22.9159 2.30941 22.3406 2.30627 21.4195C2.30418 20.7946 2.37119 20.3883 2.59002 19.7079C4.225 14.6145 12.6852 6.96422 20.8329 3.21119C23.7092 1.88635 26.0122 1.19634 28.0917 1.0365C29.068 0.961482 29.3722 1.01054 30.0874 1.35853C30.88 1.74411 31.6522 2.59484 31.8784 3.33134C31.9778 3.65583 31.9867 3.77571 31.9564 4.37269C31.925 4.98669 31.804 5.94512 31.6543 6.76528C31.4564 7.85097 30.6015 10.2896 29.9172 11.7209C29.3921 12.8198 28.2964 14.9181 27.6326 16.0966C27.4205 16.4736 27.11 17.0311 26.9436 17.3355C26.7766 17.64 26.3368 18.4072 25.9661 19.0405L25.2918 20.1919L24.3856 20.6257C22.959 21.308 21.9831 22.0004 20.8172 23.1577C19.0126 24.9483 17.2038 27.5975 15.7029 30.6472C14.5925 32.9028 13.9731 34.7007 13.9548 35.7193C13.948 36.1011 14.0192 36.2036 14.3318 36.2634C14.6919 36.3324 14.8024 36.3173 15.0438 36.1657ZM14.827 34.4193C15.3013 32.5806 16.8787 29.3396 18.42 27.0359C20.1235 24.4904 21.7235 22.7793 23.4548 21.6511C23.8987 21.3621 24.7861 20.8925 24.7861 20.9467C24.7861 21.0384 23.071 23.601 22.0339 25.0589C20.7513 26.8621 18.9215 29.3681 17.7546 30.9196C17.0965 31.7944 16.1814 33.0162 15.7207 33.6347C15.26 34.2532 14.8474 34.8067 14.804 34.8647C14.6956 35.0092 14.7008 34.9095 14.827 34.4193Z" fill="#F06111"/>
<path d="M48.5734 10.4936C48.5388 10.5118 48.2503 10.8706 47.932 11.2911C47.6137 11.7115 47.2447 12.1978 47.1117 12.3718C46.8463 12.7192 45.7348 14.4394 45.238 15.2714C44.2857 16.8663 40.9717 21.8408 39.075 24.5236C37.3484 26.965 35.1417 29.9287 34.0496 31.2717C31.6157 34.2657 29.5939 36.1051 28.0741 36.7076C27.6338 36.8819 27.5359 36.8898 27.1657 36.7809C26.5972 36.6139 26.1946 36.072 26.0522 35.282C25.8365 34.0848 26.1082 31.3421 26.8259 27.4759C27.183 25.5512 27.172 25.3549 26.7129 25.4709C26.6155 25.4955 26.4469 25.5306 26.3386 25.5487C26.1496 25.5805 26.1276 25.608 25.8108 26.1994C24.8177 28.0568 24.3507 28.8676 22.7718 31.4826C21.8996 32.9267 20.6478 34.8714 20.3012 35.3208C20.0463 35.6513 20.0578 35.7206 20.3625 35.6866C20.5489 35.6659 20.7179 35.5828 21.0802 35.335C21.3404 35.1566 21.71 34.9381 21.9011 34.8495C22.0922 34.761 22.2487 34.6656 22.2487 34.6376C22.2487 34.567 21.8016 34.6371 21.4938 34.7559L21.2451 34.852L22.0001 33.6964C22.7571 32.5375 24.5156 29.6859 25.3407 28.2799C25.5831 27.8668 25.7883 27.5357 25.7972 27.5443C25.8061 27.5529 25.7318 27.9621 25.6323 28.4537C24.9805 31.6788 24.735 34.3321 24.9858 35.436C25.1716 36.2556 25.5093 36.7579 26.0443 37.0123C26.4485 37.2039 26.8024 37.2531 27.2416 37.1793C27.4249 37.1489 27.7238 37.0987 27.907 37.0688C29.7383 36.7673 31.9743 34.8494 35.0359 30.9554C37.4238 27.9181 41.0681 22.7669 43.7077 18.6981C44.0087 18.2342 44.3344 17.7715 44.4312 17.6701C44.5281 17.5686 44.9034 17.0229 45.2652 16.4575C45.9552 15.3776 46.5745 14.4542 46.6086 14.4542C46.619 14.4542 46.3704 15.0057 46.0552 15.6799C43.1632 21.8661 40.0393 29.3619 34.7464 42.8172C34.4098 43.6726 33.6193 45.6652 32.9895 47.2457C31.0896 52.0119 30.8074 52.7663 30.5556 53.7574C30.4153 54.3092 30.386 54.9861 30.4964 55.1186C30.5865 55.2269 30.6273 55.2269 31.222 55.1212C31.589 55.0557 31.7356 55.0039 31.8477 54.9002C32.0288 54.7327 32.2073 54.3778 32.2073 54.1851C32.2073 54.0139 32.0801 53.7537 31.966 53.6898C31.8555 53.6291 32.01 53.1674 32.8754 50.9769C33.6083 49.1205 35.0103 45.4254 36.3615 41.789C41.7057 27.4057 44.6951 20.0308 48.0498 12.9517C49.0932 10.7499 49.2032 10.5035 49.167 10.4455C49.1325 10.3901 48.7043 10.4247 48.5734 10.4936Z" fill="#F06111"/>
</svg>
