<svg width="10" height="10" viewBox="0 0 10 10" fill="none" xmlns="http://www.w3.org/2000/svg">
<path d="M3.3874 0.703186H2.1481C1.53127 0.703186 1.03125 1.20315 1.03125 1.81987V2.93709C1.03125 6.0212 3.53142 8.52104 6.61553 8.52104H7.73243C8.34925 8.52104 8.84927 8.02107 8.84927 7.40436V6.63267C8.84927 6.42117 8.72975 6.228 8.5406 6.13324L7.19146 5.45892C6.8875 5.30657 6.51941 5.45892 6.41193 5.78141L6.24566 6.28034C6.13791 6.60335 5.80647 6.79603 5.47245 6.72901C4.13573 6.46149 3.09082 5.41704 2.82345 4.07994C2.75665 3.74593 2.94899 3.41454 3.27211 3.30669L3.89124 3.10043C4.16803 3.00829 4.32718 2.71825 4.2564 2.43554L3.92914 1.12619C3.867 0.877513 3.64361 0.703186 3.3874 0.703186Z" stroke="#F06111"/>
</svg>
