<svg width="10" height="10" viewBox="0 0 10 10" fill="none" xmlns="http://www.w3.org/2000/svg">
<path d="M3.3874 1.26178H2.1481C1.53127 1.26178 1.03125 1.76175 1.03125 2.37847V3.49568C1.03125 6.57979 3.53142 9.07964 6.61553 9.07964H7.73243C8.34925 9.07964 8.84927 8.57967 8.84927 7.96295V7.19127C8.84927 6.97976 8.72975 6.78659 8.5406 6.69183L7.19146 6.01751C6.8875 5.86517 6.51941 6.01751 6.41193 6.34001L6.24566 6.83893C6.13791 7.16195 5.80647 7.35462 5.47245 7.28761C4.13573 7.02008 3.09082 5.97563 2.82345 4.63853C2.75665 4.30452 2.94899 3.97313 3.27211 3.86529L3.89124 3.65903C4.16803 3.56689 4.32718 3.27684 4.2564 2.99413L3.92914 1.68478C3.867 1.43611 3.64361 1.26178 3.3874 1.26178Z" stroke="#1F295D"/>
</svg>
