<svg width="10" height="10" viewBox="0 0 10 10" fill="none" xmlns="http://www.w3.org/2000/svg">
<path d="M3.26499 3.78819V3.52642C3.12044 3.52642 3.00322 3.64369 3.00322 3.78819H3.26499ZM3.26499 4.34679L3.45011 4.53212L3.52675 4.45516V4.34679H3.26499ZM4.38189 7.97642H4.64365V7.86805L4.56695 7.79162L4.38189 7.97642ZM3.82344 7.41833H3.56167V7.52671L3.63832 7.60314L3.82344 7.41833ZM3.82344 6.58068H4.0852V6.47231L4.0085 6.39535L3.82344 6.58068ZM3.26499 6.02209H3.00322V6.13046L3.07992 6.20742L3.26499 6.02209ZM3.26499 5.46347V5.20171C3.12044 5.20171 3.00322 5.31898 3.00322 5.46347H3.26499ZM5.79541 0.996201V2.11289H6.31894V0.996201H5.79541ZM5.49873 2.40972H4.94028V2.93325H5.49873V2.40972ZM3.82344 3.52642H3.26499V4.04995H3.82344V3.52642ZM3.00322 3.78819V4.34679H3.52675V3.78819H3.00322ZM3.07992 4.16198L2.91637 4.32533L3.28656 4.69546L3.45011 4.53212L3.07992 4.16198ZM2.49681 4.32533L1.49556 3.32433L1.12538 3.69447L2.12662 4.69546L2.49681 4.32533ZM4.12012 3.2301C4.12012 3.39396 3.9873 3.52642 3.82344 3.52642V4.04995C4.27639 4.04995 4.64365 3.68295 4.64365 3.2301H4.12012ZM4.94028 2.40972C4.48732 2.40972 4.12012 2.77725 4.12012 3.2301H4.64365C4.64365 3.06623 4.77647 2.93325 4.94028 2.93325V2.40972ZM2.91637 4.32533C2.80051 4.44103 2.61267 4.44103 2.49681 4.32533L2.12662 4.69546C2.44692 5.01586 2.96621 5.01586 3.28656 4.69546L2.91637 4.32533ZM5.79541 2.11289C5.79541 2.27675 5.6626 2.40972 5.49873 2.40972V2.93325C5.95169 2.93325 6.31894 2.56626 6.31894 2.11289H5.79541ZM4.64365 8.81406V7.97642H4.12012V8.81406H4.64365ZM4.56695 7.79162L4.0085 7.233L3.63832 7.60314L4.19677 8.16174L4.56695 7.79162ZM4.0852 7.41833V6.58068H3.56167V7.41833H4.0852ZM4.0085 6.39535L3.45011 5.83728L3.07992 6.20742L3.63832 6.76549L4.0085 6.39535ZM3.52675 6.02209V5.46347H3.00322V6.02209H3.52675ZM3.26499 5.72524H5.49873V5.20171H3.26499V5.72524ZM5.79541 6.02209V6.39431H6.31894V6.02209H5.79541ZM6.80174 7.40054H8.29087V6.87701H6.80174V7.40054ZM6.35381 6.95291C6.35381 7.20002 6.55438 7.40054 6.80174 7.40054V6.87701C6.84352 6.87701 6.87734 6.91103 6.87734 6.95291H6.35381ZM6.24329 6.84245C6.30434 6.84245 6.35381 6.89166 6.35381 6.95291H6.87734C6.87734 6.60267 6.59348 6.31892 6.24329 6.31892V6.84245ZM5.79541 6.39431C5.79541 6.64194 5.99593 6.84245 6.24329 6.84245V6.31892C6.28507 6.31892 6.31894 6.35243 6.31894 6.39431H5.79541ZM5.49873 5.72524C5.6626 5.72524 5.79541 5.85822 5.79541 6.02209H6.31894C6.31894 5.56923 5.95169 5.20171 5.49873 5.20171V5.72524ZM4.94028 8.55229C2.92595 8.55229 1.29306 6.91942 1.29306 4.9054H0.769531C0.769531 7.20893 2.63686 9.07582 4.94028 9.07582V8.55229ZM8.58755 4.9054C8.58755 6.91942 6.95461 8.55229 4.94028 8.55229V9.07582C7.24376 9.07582 9.11108 7.20893 9.11108 4.9054H8.58755ZM4.94028 1.25797C6.95461 1.25797 8.58755 2.89086 8.58755 4.9054H9.11108C9.11108 2.60187 7.24376 0.734436 4.94028 0.734436V1.25797ZM4.94028 0.734436C2.63686 0.734436 0.769531 2.60187 0.769531 4.9054H1.29306C1.29306 2.89086 2.92595 1.25797 4.94028 1.25797V0.734436Z" fill="#F06111"/>
</svg>
