<svg width="10" height="10" viewBox="0 0 10 10" fill="none" xmlns="http://www.w3.org/2000/svg">
<path d="M3.26499 3.87022V3.60845C3.12044 3.60845 3.00322 3.72572 3.00322 3.87022H3.26499ZM3.26499 4.42882L3.45011 4.61415L3.52675 4.53719V4.42882H3.26499ZM4.38189 8.05845H4.64365V7.95008L4.56695 7.87365L4.38189 8.05845ZM3.82344 7.50037H3.56167V7.60874L3.63832 7.68517L3.82344 7.50037ZM3.82344 6.66272H4.0852V6.55434L4.0085 6.47738L3.82344 6.66272ZM3.26499 6.10412H3.00322V6.21249L3.07992 6.28945L3.26499 6.10412ZM3.26499 5.5455V5.28374C3.12044 5.28374 3.00322 5.40101 3.00322 5.5455H3.26499ZM5.79541 1.07823V2.19492H6.31894V1.07823H5.79541ZM5.49873 2.49175H4.94028V3.01528H5.49873V2.49175ZM3.82344 3.60845H3.26499V4.13198H3.82344V3.60845ZM3.00322 3.87022V4.42882H3.52675V3.87022H3.00322ZM3.07992 4.24401L2.91637 4.40736L3.28656 4.7775L3.45011 4.61415L3.07992 4.24401ZM2.49681 4.40736L1.49556 3.40636L1.12538 3.7765L2.12662 4.7775L2.49681 4.40736ZM4.12012 3.31213C4.12012 3.476 3.9873 3.60845 3.82344 3.60845V4.13198C4.27639 4.13198 4.64365 3.76498 4.64365 3.31213H4.12012ZM4.94028 2.49175C4.48732 2.49175 4.12012 2.85928 4.12012 3.31213H4.64365C4.64365 3.14827 4.77647 3.01528 4.94028 3.01528V2.49175ZM2.91637 4.40736C2.80051 4.52306 2.61267 4.52306 2.49681 4.40736L2.12662 4.7775C2.44692 5.0979 2.96621 5.0979 3.28656 4.7775L2.91637 4.40736ZM5.79541 2.19492C5.79541 2.35878 5.6626 2.49175 5.49873 2.49175V3.01528C5.95169 3.01528 6.31894 2.64829 6.31894 2.19492H5.79541ZM4.64365 8.89609V8.05845H4.12012V8.89609H4.64365ZM4.56695 7.87365L4.0085 7.31503L3.63832 7.68517L4.19677 8.24377L4.56695 7.87365ZM4.0852 7.50037V6.66272H3.56167V7.50037H4.0852ZM4.0085 6.47738L3.45011 5.91931L3.07992 6.28945L3.63832 6.84752L4.0085 6.47738ZM3.52675 6.10412V5.5455H3.00322V6.10412H3.52675ZM3.26499 5.80727H5.49873V5.28374H3.26499V5.80727ZM5.79541 6.10412V6.47635H6.31894V6.10412H5.79541ZM6.80174 7.48257H8.29087V6.95904H6.80174V7.48257ZM6.35381 7.03494C6.35381 7.28205 6.55438 7.48257 6.80174 7.48257V6.95904C6.84352 6.95904 6.87734 6.99306 6.87734 7.03494H6.35381ZM6.24329 6.92448C6.30434 6.92448 6.35381 6.97369 6.35381 7.03494H6.87734C6.87734 6.6847 6.59348 6.40095 6.24329 6.40095V6.92448ZM5.79541 6.47635C5.79541 6.72397 5.99593 6.92448 6.24329 6.92448V6.40095C6.28507 6.40095 6.31894 6.43446 6.31894 6.47635H5.79541ZM5.49873 5.80727C5.6626 5.80727 5.79541 5.94025 5.79541 6.10412H6.31894C6.31894 5.65126 5.95169 5.28374 5.49873 5.28374V5.80727ZM4.94028 8.63432C2.92595 8.63432 1.29306 7.00145 1.29306 4.98743H0.769531C0.769531 7.29096 2.63686 9.15785 4.94028 9.15785V8.63432ZM8.58755 4.98743C8.58755 7.00145 6.95461 8.63432 4.94028 8.63432V9.15785C7.24376 9.15785 9.11108 7.29096 9.11108 4.98743H8.58755ZM4.94028 1.34C6.95461 1.34 8.58755 2.97289 8.58755 4.98743H9.11108C9.11108 2.6839 7.24376 0.816467 4.94028 0.816467V1.34ZM4.94028 0.816467C2.63686 0.816467 0.769531 2.6839 0.769531 4.98743H1.29306C1.29306 2.97289 2.92595 1.34 4.94028 1.34V0.816467Z" fill="#1F295D"/>
</svg>
