<svg width="10" height="9" viewBox="0 0 10 9" fill="none" xmlns="http://www.w3.org/2000/svg">
<path d="M4.94028 0.410131L5.11064 0.211715C5.01263 0.127426 4.86798 0.127426 4.76992 0.211715L4.94028 0.410131ZM1.0313 3.76072L0.860941 3.5623L0.769531 3.6403V3.76072H1.0313ZM3.82344 8.22799V8.48975C3.96798 8.48975 4.0852 8.373 4.0852 8.22799H3.82344ZM6.05718 8.22799H5.79541C5.79541 8.373 5.91258 8.48975 6.05718 8.48975V8.22799ZM8.84932 3.76072H9.11108V3.6403L9.01968 3.5623L8.84932 3.76072ZM1.58969 8.48975H3.82344V7.96622H1.58969V8.48975ZM9.01968 3.5623L5.11064 0.211715L4.76992 0.609075L8.67896 3.95966L9.01968 3.5623ZM4.76992 0.211715L0.860941 3.5623L1.20165 3.95966L5.11064 0.609075L4.76992 0.211715ZM4.0852 8.22799V6.5527H3.56167V8.22799H4.0852ZM5.79541 6.5527V8.22799H6.31894V6.5527H5.79541ZM6.05718 8.48975H8.29087V7.96622H6.05718V8.48975ZM9.11108 7.66992V3.76072H8.58755V7.66992H9.11108ZM0.769531 3.76072V7.66992H1.29306V3.76072H0.769531ZM4.94028 5.69778C5.41256 5.69778 5.79541 6.08048 5.79541 6.5527H6.31894C6.31894 5.79149 5.7017 5.17425 4.94028 5.17425V5.69778ZM4.94028 5.17425C4.17891 5.17425 3.56167 5.79149 3.56167 6.5527H4.0852C4.0852 6.08048 4.46806 5.69778 4.94028 5.69778V5.17425ZM8.29087 8.48975C8.74388 8.48975 9.11108 8.12277 9.11108 7.66992H8.58755C8.58755 7.83378 8.45473 7.96622 8.29087 7.96622V8.48975ZM1.58969 7.96622C1.42588 7.96622 1.29306 7.83378 1.29306 7.66992H0.769531C0.769531 8.12277 1.13674 8.48975 1.58969 8.48975V7.96622Z" fill="#F06111"/>
</svg>
