<svg width="118" height="9" viewBox="0 0 118 9" fill="none" xmlns="http://www.w3.org/2000/svg">
<path d="M1.24022 3.49307H4.4149V3.87001H1.24022V3.49307ZM1.29049 6.27406H4.90911V6.65938H0.863281V0.795843H4.78347V1.18117H1.29049V6.27406ZM6.88544 6.65938V0.795843H8.98793C9.47953 0.795843 9.90097 0.873847 10.2528 1.03038C10.6046 1.18692 10.8753 1.41309 11.0653 1.70889C11.2553 1.99945 11.3501 2.35387 11.3501 2.77269C11.3501 3.18052 11.2553 3.53234 11.0653 3.82814C10.8753 4.1187 10.6046 4.34486 10.2528 4.50663C9.90097 4.66316 9.47953 4.74117 8.98793 4.74117H7.11998L7.31264 4.54013V6.65938H6.88544ZM10.9564 6.65938L9.43189 4.53176H9.91772L11.4422 6.65938H10.9564ZM7.31264 4.56526L7.11998 4.36422H8.98793C9.61879 4.36422 10.0962 4.22445 10.4203 3.94541C10.7496 3.66637 10.9145 3.27528 10.9145 2.77269C10.9145 2.26434 10.7496 1.8738 10.4203 1.59999C10.0962 1.32095 9.61879 1.18117 8.98793 1.18117H7.11998L7.31264 0.971748V4.56526ZM13.3332 6.65938V0.795843H13.7604V6.65938H13.3332ZM18.7015 6.70125C18.2659 6.70125 17.8612 6.62849 17.4869 6.48347C17.1183 6.3327 16.7974 6.12328 16.5236 5.85523C16.2503 5.58718 16.0378 5.27464 15.887 4.91707C15.7362 4.55427 15.6608 4.15743 15.6608 3.72761C15.6608 3.29779 15.7362 2.90411 15.887 2.54654C16.0378 2.18373 16.2503 1.86804 16.5236 1.59999C16.8032 1.33194 17.1267 1.12515 17.4953 0.980136C17.8639 0.829359 18.2659 0.753967 18.7015 0.753967C19.1151 0.753967 19.5004 0.82098 19.858 0.955004C20.2208 1.08903 20.5307 1.29268 20.7878 1.56649L20.5197 1.8429C20.2684 1.59737 19.9889 1.42146 19.6821 1.31519C19.3805 1.20367 19.0591 1.14765 18.7183 1.14765C18.3445 1.14765 17.9953 1.21205 17.6712 1.34032C17.3529 1.46858 17.0738 1.65025 16.8335 1.88479C16.599 2.11933 16.4147 2.39314 16.2807 2.70568C16.1524 3.01823 16.088 3.35905 16.088 3.72761C16.088 4.09618 16.1524 4.43699 16.2807 4.74954C16.4147 5.06208 16.599 5.3359 16.8335 5.57044C17.0738 5.80499 17.3529 5.98664 17.6712 6.1149C17.9953 6.24317 18.3445 6.30757 18.7183 6.30757C19.0591 6.30757 19.3805 6.25468 19.6821 6.14841C19.9889 6.03689 20.2684 5.85524 20.5197 5.60395L20.7878 5.88036C20.5307 6.15417 20.2208 6.36045 19.858 6.50023C19.5004 6.63426 19.1151 6.70125 18.7015 6.70125ZM23.0143 3.68574H26.189V4.07105H23.0143V3.68574ZM23.0646 6.65938H22.6374V0.795843H26.5576V1.18117H23.0646V6.65938ZM28.3402 6.65938V0.795843H28.7674V6.65938H28.3402ZM32.7708 6.70125C32.3352 6.70125 31.9222 6.62849 31.5311 6.48347C31.1458 6.3327 30.8469 6.14004 30.6348 5.90549L30.8275 5.58719C31.0285 5.79398 31.3023 5.96989 31.6484 6.1149C32.0002 6.25469 32.3714 6.32431 32.7625 6.32431C33.1535 6.32431 33.4718 6.27406 33.7174 6.17354C33.9687 6.06726 34.1529 5.92801 34.2702 5.75472C34.3932 5.58143 34.4545 5.38877 34.4545 5.17674C34.4545 4.92545 34.3875 4.72441 34.2535 4.57363C34.1194 4.42286 33.9435 4.30297 33.7257 4.21345C33.508 4.12393 33.2708 4.04854 33.0138 3.98728C32.7567 3.92603 32.497 3.86165 32.2347 3.79463C31.9724 3.72186 31.7321 3.62971 31.5144 3.5182C31.2966 3.40669 31.1207 3.25591 30.9866 3.06587C30.8584 2.87059 30.794 2.61931 30.794 2.312C30.794 2.03296 30.8668 1.7759 31.0118 1.54135C31.1568 1.30681 31.3829 1.11677 31.6903 0.971748C31.9976 0.82673 32.3913 0.753967 32.8713 0.753967C33.1954 0.753967 33.5137 0.80161 33.8263 0.896369C34.1446 0.991128 34.4152 1.11991 34.6388 1.28168L34.4796 1.62512C34.2341 1.45759 33.9687 1.33456 33.6839 1.25655C33.4048 1.17279 33.1336 1.13091 32.8713 1.13091C32.497 1.13091 32.1871 1.18378 31.9416 1.29005C31.696 1.39633 31.5144 1.53874 31.3971 1.71726C31.2798 1.89055 31.2212 2.08582 31.2212 2.30361C31.2212 2.5549 31.2856 2.75594 31.4138 2.90672C31.5479 3.0575 31.7238 3.17738 31.9416 3.2669C32.1593 3.35643 32.3997 3.43182 32.6619 3.49307C32.9242 3.55432 33.1839 3.62134 33.4409 3.69411C33.698 3.76112 33.9352 3.85064 34.153 3.96215C34.3707 4.07366 34.5466 4.22445 34.6807 4.41449C34.8147 4.60453 34.8817 4.85006 34.8817 5.15161C34.8817 5.42542 34.8063 5.68195 34.6555 5.92225C34.5048 6.1568 34.2728 6.34683 33.9603 6.49185C33.653 6.63163 33.2567 6.70125 32.7708 6.70125ZM41.1002 0.795843H41.5274V6.65938H41.1002V0.795843ZM37.18 6.65938H36.7528V0.795843H37.18V6.65938ZM41.1504 3.87001H37.1297V3.49307H41.1504V3.87001ZM44.3707 3.49307H47.5454V3.87001H44.3707V3.49307ZM44.4209 6.27406H48.0396V6.65938H43.9937V0.795843H47.9139V1.18117H44.4209V6.27406ZM50.0159 6.65938V0.795843H52.1184C52.61 0.795843 53.0314 0.873847 53.3832 1.03038C53.735 1.18692 54.0062 1.41309 54.1957 1.70889C54.3858 1.99945 54.4805 2.35387 54.4805 2.77269C54.4805 3.18052 54.3858 3.53234 54.1957 3.82814C54.0062 4.1187 53.735 4.34486 53.3832 4.50663C53.0314 4.66316 52.61 4.74117 52.1184 4.74117H50.2504L50.4431 4.54013V6.65938H50.0159ZM54.0868 6.65938L52.5623 4.53176H53.0482L54.5727 6.65938H54.0868ZM50.4431 4.56526L50.2504 4.36422H52.1184C52.7498 4.36422 53.2272 4.22445 53.5508 3.94541C53.8806 3.66637 54.045 3.27528 54.045 2.77269C54.045 2.26434 53.8806 1.8738 53.5508 1.59999C53.2272 1.32095 52.7498 1.18117 52.1184 1.18117H50.2504L50.4431 0.971748V4.56526ZM59.7473 8.32629C59.1834 8.32629 58.6641 8.23154 58.1892 8.0415C57.7201 7.85722 57.3123 7.59492 56.9663 7.2541C56.6254 6.91904 56.3632 6.52274 56.1789 6.06466C55.9946 5.60133 55.9025 5.09036 55.9025 4.53176C55.9025 3.97315 55.9946 3.46218 56.1789 2.99886C56.3689 2.53553 56.637 2.13608 56.983 1.80103C57.3291 1.46597 57.7395 1.20891 58.2144 1.03038C58.6892 0.8461 59.2112 0.753967 59.7808 0.753967C60.3446 0.753967 60.8613 0.843487 61.3304 1.02201C61.7995 1.20053 62.2073 1.45497 62.5534 1.78427C62.8994 2.10833 63.1649 2.49889 63.3491 2.95698C63.5392 3.40931 63.6339 3.90927 63.6339 4.45636C63.6339 4.9312 63.5811 5.3359 63.4748 5.67095C63.3685 6.00025 63.2177 6.25469 63.0225 6.43321C62.8272 6.6065 62.601 6.69288 62.344 6.69288C62.0817 6.69288 61.8691 6.61488 61.7073 6.45834C61.5456 6.30181 61.4644 6.0814 61.4644 5.7966V5.05947L61.5398 4.49825L61.4561 3.7695V2.379H61.8414V5.68771C61.8414 5.92801 61.8942 6.09815 62.0005 6.19867C62.1068 6.29919 62.2377 6.34944 62.3942 6.34944C62.5785 6.34944 62.7376 6.27668 62.8717 6.13166C63.0115 5.98089 63.1172 5.76572 63.19 5.48668C63.268 5.20764 63.3072 4.86682 63.3072 4.46475C63.3072 3.9564 63.2209 3.49569 63.0476 3.08263C62.88 2.6638 62.6371 2.30362 62.3188 2.00206C62.0063 1.70051 61.6346 1.47172 61.2048 1.31519C60.7749 1.15342 60.3001 1.07227 59.7808 1.07227C59.2614 1.07227 58.784 1.15604 58.3484 1.32357C57.9128 1.4911 57.5385 1.72825 57.2259 2.03557C56.9134 2.34288 56.6705 2.70831 56.4972 3.13289C56.3297 3.55171 56.2459 4.01817 56.2459 4.53176C56.2459 5.0401 56.3297 5.50604 56.4972 5.93063C56.6647 6.35521 56.9019 6.72064 57.2092 7.02795C57.5217 7.3405 57.8934 7.58078 58.3233 7.74831C58.7531 7.91584 59.2279 7.99961 59.7473 7.99961C59.9986 7.99961 60.2666 7.96873 60.5514 7.90747C60.842 7.85146 61.1069 7.75931 61.3472 7.63104L61.4561 7.94098C61.2105 8.06924 60.931 8.16453 60.6184 8.22578C60.3059 8.29279 60.0153 8.32629 59.7473 8.32629ZM59.6802 6.69288C59.2839 6.69288 58.9264 6.60075 58.6081 6.41647C58.2955 6.22643 58.0468 5.96675 57.8625 5.63745C57.684 5.30815 57.5945 4.93382 57.5945 4.515C57.5945 4.09042 57.684 3.71662 57.8625 3.39256C58.0468 3.0685 58.2955 2.81457 58.6081 2.63029C58.9264 2.44025 59.2839 2.3455 59.6802 2.3455C60.0713 2.3455 60.4174 2.43502 60.7189 2.61354C61.0262 2.79207 61.266 3.04336 61.4393 3.36743C61.6178 3.69149 61.7073 4.07366 61.7073 4.515C61.7073 4.95057 61.6178 5.33328 61.4393 5.66258C61.266 5.99188 61.0289 6.24631 60.7273 6.42484C60.4258 6.60336 60.0766 6.69288 59.6802 6.69288ZM59.7221 6.34107C60.0572 6.34107 60.3561 6.26568 60.6184 6.1149C60.8807 5.95837 61.0875 5.74372 61.2383 5.46992C61.389 5.19611 61.4644 4.8778 61.4644 4.515C61.4644 4.14643 61.389 3.82812 61.2383 3.56008C61.0875 3.28627 60.8807 3.07426 60.6184 2.92348C60.3561 2.7727 60.0572 2.69731 59.7221 2.69731C59.3928 2.69731 59.0965 2.7727 58.8342 2.92348C58.5719 3.07426 58.3651 3.28627 58.2144 3.56008C58.0636 3.83388 57.9882 4.15219 57.9882 4.515C57.9882 4.87257 58.0636 5.19088 58.2144 5.46992C58.3651 5.74372 58.5719 5.95837 58.8342 6.1149C59.0965 6.26568 59.3928 6.34107 59.7221 6.34107ZM68.0415 6.70125C67.6007 6.70125 67.1929 6.62849 66.8186 6.48347C66.4448 6.3327 66.1181 6.12328 65.8385 5.85523C65.5652 5.58718 65.3527 5.27464 65.2019 4.91707C65.0511 4.55427 64.9757 4.15743 64.9757 3.72761C64.9757 3.29779 65.0511 2.90411 65.2019 2.54654C65.3527 2.18373 65.5679 1.86804 65.8469 1.59999C66.1265 1.33194 66.45 1.12515 66.8186 0.980136C67.1929 0.829359 67.6033 0.753967 68.0499 0.753967C68.4745 0.753967 68.8682 0.82098 69.231 0.955004C69.5943 1.08903 69.9042 1.29007 70.1608 1.55811L69.8927 1.8429C69.6362 1.59161 69.354 1.41309 69.0467 1.30681C68.7452 1.20054 68.4159 1.14765 68.0583 1.14765C67.6787 1.14765 67.3269 1.21205 67.0029 1.34032C66.6793 1.46858 66.3971 1.65025 66.1568 1.88479C65.9171 2.11933 65.7296 2.39314 65.5956 2.70568C65.4673 3.01823 65.4029 3.35905 65.4029 3.72761C65.4029 4.09618 65.4673 4.43699 65.5956 4.74954C65.7296 5.06208 65.9171 5.3359 66.1568 5.57044C66.3971 5.80499 66.6793 5.98664 67.0029 6.1149C67.3269 6.24317 67.6787 6.30757 68.0583 6.30757C68.4049 6.30757 68.7315 6.25468 69.0383 6.14841C69.3514 6.04213 69.6362 5.86623 69.8927 5.62069L70.1356 5.94739C69.8734 6.19868 69.5577 6.38871 69.1891 6.51698C68.8263 6.64001 68.4436 6.70125 68.0415 6.70125ZM69.7252 5.90549V3.75274H70.1356V5.94739L69.7252 5.90549ZM72.4345 6.65938V0.795843H72.7947L75.517 5.49505H75.3243L78.0383 0.795843H78.3901L78.3985 6.65938H77.9797L77.9713 1.44084H78.0886L75.517 5.88036H75.3076L72.7276 1.44084H72.8533V6.65938H72.4345ZM79.8817 6.65938L82.5789 0.795843H83.0061L85.7033 6.65938H85.2426L82.6962 1.0639H82.8805L80.3424 6.65938H79.8817ZM80.8701 5.00921L81.0125 4.64903H84.5222L84.6646 5.00921H80.8701ZM87.1865 6.65938V0.795843H87.6137V6.65938H87.1865ZM90.0758 6.65938V0.795843H90.503V6.27406H93.8788V6.65938H90.0758ZM95.464 6.69288C95.3692 6.69288 95.2855 6.65938 95.2127 6.59237C95.1457 6.5196 95.1122 6.43322 95.1122 6.3327C95.1122 6.23218 95.1457 6.14841 95.2127 6.0814C95.2855 6.01439 95.3692 5.98089 95.464 5.98089C95.5588 5.98089 95.6399 6.01439 95.7069 6.0814C95.7797 6.14841 95.8158 6.23218 95.8158 6.3327C95.8158 6.43322 95.7797 6.5196 95.7069 6.59237C95.6399 6.65938 95.5588 6.69288 95.464 6.69288ZM100.06 6.70125C99.6245 6.70125 99.2193 6.62849 98.8455 6.48347C98.4769 6.3327 98.1555 6.12328 97.8822 5.85523C97.6084 5.58718 97.3964 5.27464 97.2456 4.91707C97.0948 4.55427 97.0194 4.15743 97.0194 3.72761C97.0194 3.29779 97.0948 2.90411 97.2456 2.54654C97.3964 2.18373 97.6084 1.86804 97.8822 1.59999C98.1612 1.33194 98.4853 1.12515 98.8539 0.980136C99.2224 0.829359 99.6245 0.753967 100.06 0.753967C100.473 0.753967 100.858 0.82098 101.216 0.955004C101.579 1.08903 101.889 1.29268 102.146 1.56649L101.878 1.8429C101.626 1.59737 101.347 1.42146 101.04 1.31519C100.739 1.20367 100.417 1.14765 100.077 1.14765C99.7025 1.14765 99.3533 1.21205 99.0298 1.34032C98.7115 1.46858 98.4319 1.65025 98.1921 1.88479C97.9576 2.11933 97.7733 2.39314 97.6393 2.70568C97.5105 3.01823 97.4466 3.35905 97.4466 3.72761C97.4466 4.09618 97.5105 4.43699 97.6393 4.74954C97.7733 5.06208 97.9576 5.3359 98.1921 5.57044C98.4319 5.80499 98.7115 5.98664 99.0298 6.1149C99.3533 6.24317 99.7025 6.30757 100.077 6.30757C100.417 6.30757 100.739 6.25468 101.04 6.14841C101.347 6.03689 101.626 5.85524 101.878 5.60395L102.146 5.88036C101.889 6.15417 101.579 6.36045 101.216 6.50023C100.858 6.63426 100.473 6.70125 100.06 6.70125ZM106.36 6.70125C105.925 6.70125 105.52 6.62849 105.146 6.48347C104.777 6.3327 104.454 6.12328 104.174 5.85523C103.901 5.58143 103.688 5.26627 103.537 4.9087C103.387 4.54589 103.311 4.15219 103.311 3.72761C103.311 3.30303 103.387 2.91248 103.537 2.55491C103.688 2.1921 103.901 1.87641 104.174 1.60836C104.454 1.33456 104.777 1.12515 105.146 0.980136C105.52 0.829359 105.925 0.753967 106.36 0.753967C106.796 0.753967 107.198 0.829359 107.566 0.980136C107.941 1.12515 108.265 1.33194 108.538 1.59999C108.812 1.86804 109.024 2.18373 109.175 2.54654C109.331 2.90411 109.409 3.29779 109.409 3.72761C109.409 4.15743 109.331 4.55427 109.175 4.91707C109.024 5.27464 108.812 5.58718 108.538 5.85523C108.265 6.12328 107.941 6.3327 107.566 6.48347C107.198 6.62849 106.796 6.70125 106.36 6.70125ZM106.36 6.30757C106.735 6.30757 107.081 6.24317 107.399 6.1149C107.717 5.98664 107.994 5.80499 108.228 5.57044C108.463 5.3359 108.644 5.06208 108.773 4.74954C108.907 4.43699 108.974 4.09618 108.974 3.72761C108.974 3.35329 108.907 3.013 108.773 2.70568C108.644 2.39314 108.463 2.11933 108.228 1.88479C107.994 1.65025 107.717 1.46858 107.399 1.34032C107.081 1.21205 106.735 1.14765 106.36 1.14765C105.986 1.14765 105.64 1.21205 105.322 1.34032C105.003 1.46858 104.724 1.65025 104.484 1.88479C104.249 2.11933 104.065 2.39314 103.931 2.70568C103.803 3.013 103.738 3.35329 103.738 3.72761C103.738 4.09618 103.803 4.43699 103.931 4.74954C104.065 5.06208 104.249 5.3359 104.484 5.57044C104.724 5.80499 105.003 5.98664 105.322 6.1149C105.64 6.24317 105.986 6.30757 106.36 6.30757ZM111.31 6.65938V0.795843H111.67L114.393 5.49505H114.2L116.914 0.795843H117.266L117.274 6.65938H116.855L116.847 1.44084H116.964L114.393 5.88036H114.183L111.603 1.44084H111.729V6.65938H111.31Z" fill="#1F295D"/>
</svg>
