<svg width="287" height="110" viewBox="0 0 287 110" fill="none" xmlns="http://www.w3.org/2000/svg">
<path d="M175.982 0.273499C175.19 0.273499 174.337 0.2735 173.362 0.39543C161.846 1.61463 139.788 9.11303 123.397 17.2822C111.636 23.1345 107.432 26.4877 109.564 28.4383C110.296 29.1697 110.844 28.987 110.783 28.0117C110.722 27.341 110.844 27.1583 112.002 26.3044C116.633 22.769 130.587 16.0018 142.895 11.2468C151.548 7.95488 161.968 4.66272 168.792 3.19966C171.169 2.65095 172.448 2.52902 175.129 2.52902C178.297 2.46813 178.48 2.52902 179.029 3.01674C180.248 4.23609 179.577 7.10132 176.653 13.2586C173.057 20.7571 167.756 29.6576 160.505 40.2041L157.702 44.2887L155.569 44.9594C142.347 48.9219 125.895 54.6525 122.97 56.4205C121.568 57.2131 121.142 58.0664 121.873 58.7371C122.3 59.1637 122.787 59.2245 127.052 59.4684C133.512 59.7124 135.218 60.0778 136.558 61.4804C137.716 62.5777 137.777 64.6503 136.741 67.0277L136.253 68.125L134.304 68.4302C120.228 70.3809 98.1702 74.6482 85.2522 77.9401C82.1445 78.7328 79.3415 79.4034 78.9761 79.5254C78.0008 79.7081 77.6961 80.5007 78.184 81.2321C78.3667 81.598 78.7929 81.842 79.0368 81.842C79.2808 81.842 83.1193 80.9274 87.6285 79.8301C99.8152 76.7208 109.748 74.5262 121.203 72.5143C127.174 71.4175 134.913 70.1977 135.035 70.2589C135.218 70.4416 132.415 74.5875 130.221 77.4527C129.002 79.0375 126.078 82.6954 123.579 85.6214C117.608 92.8759 115.841 95.2538 115.841 96.3511C115.841 96.5338 116.024 96.8385 116.206 97.0825C116.938 97.8144 117.608 97.5091 119.497 95.5585C121.325 93.6685 131.805 81.2321 138.081 73.4289L141.433 69.2223L143.565 68.9789C160.749 66.723 197.918 63.0044 207.241 62.6384L211.263 62.4557V61.907C211.263 60.9312 210.166 60.8097 204.804 61.1144C190.85 61.9678 147.526 66.1743 143.626 67.0889C143.078 67.2717 143.078 67.2109 143.87 66.1743C147.892 60.9924 155.326 50.9946 156.788 48.9827C157.763 47.6414 158.738 46.4226 158.921 46.3006C159.347 46.0567 169.767 42.8255 170.072 42.8255C170.133 42.8255 169.889 43.4961 169.462 44.2887C168.67 45.9347 168.488 47.3367 169.097 48.1293C169.584 48.8607 170.925 48.8607 172.509 48.1901C173.91 47.5807 177.201 45.63 178.785 44.4107C179.943 43.5568 179.943 43.5568 179.699 44.1667C179.029 45.8734 178.785 46.1174 175.799 47.7026C172.753 49.3486 171.899 50.0193 171.899 51.0553C171.899 52.2139 173.91 53.5547 175.616 53.5547C177.262 53.5547 178.48 52.2139 179.821 48.9827C180.552 47.154 180.796 46.788 181.649 46.3006C183.781 45.0813 187.803 41.8501 191.033 38.6801C192.86 36.9122 194.141 35.8149 193.836 36.2415C193.531 36.7289 191.033 40.2041 188.352 43.9228C185.61 47.7026 183.294 50.9946 183.172 51.2993C182.807 51.9092 182.989 52.5186 183.599 52.8233C183.965 53.0673 184.33 52.8233 185.61 51.7872C188.413 49.4094 194.811 44.7154 194.993 44.8981C195.054 44.9594 194.871 45.752 194.567 46.6053C193.897 48.7387 193.897 50.2627 194.567 50.8726C194.811 51.1773 195.237 51.3605 195.481 51.3605C196.273 51.3605 197.979 50.6899 199.259 49.836C200.538 48.9827 200.538 48.9827 201.026 49.4093C201.391 49.7753 201.879 49.8973 202.732 49.8973C205.23 49.8973 209.252 47.3367 214.248 42.5208C215.711 41.0575 216.99 39.8994 216.99 40.0209C216.99 40.0821 216.198 41.3622 215.162 42.7642C213.029 46.0567 212.237 47.9466 212.42 49.6533C212.542 51.2993 213.395 52.2139 215.223 52.7626C217.234 53.3112 223.084 53.0673 229.665 52.1526C236.794 51.1166 252.881 48.434 258.425 47.3367C263.848 46.3006 280.178 42.7035 282.067 42.1548C285.784 41.1182 287.247 39.7775 286.028 38.6189C285.724 38.3142 285.053 38.1922 282.433 38.1922C279.569 38.1922 263.361 39.2895 262.63 39.5335C262.264 39.6555 262.203 40.5701 262.569 40.7528C262.69 40.8135 265.433 40.7528 268.723 40.5701C277.68 39.9602 281.092 39.8382 281.092 39.9602C281.092 40.3868 260.375 44.9593 248.432 47.0927C227.349 50.9333 215.589 51.9087 214.492 49.8973C214.127 49.1654 214.797 47.4587 216.503 44.8374C218.757 41.3014 219.001 40.7528 218.879 39.2895C218.757 38.1315 218.819 37.8875 219.428 37.0342C220.281 35.8756 220.342 34.7175 219.489 34.5956C218.94 34.5343 217.6 35.8756 217.112 37.0949C216.686 38.1315 211.75 42.8254 208.947 44.9594C205.718 47.3979 202.732 48.7387 202.001 48.0681C201.94 47.9466 202.61 47.0927 203.524 46.1787C204.438 45.2028 205.352 43.984 205.596 43.4961C206.023 42.6427 206.023 42.5208 205.657 41.9721C205.23 41.3015 204.804 41.2402 203.829 41.7281C202.427 42.4595 200.173 45.63 200.173 46.8488C200.173 47.4587 196.212 49.714 195.847 49.3486C195.785 49.2874 196.029 48.0681 196.456 46.7273C197.37 43.8008 197.37 43.5568 196.76 42.8255C196.151 42.0328 195.237 42.3375 191.947 44.5934C190.423 45.63 189.083 46.4833 189.083 46.4221C188.961 46.3614 200.051 30.5717 203.158 26.4877C204.56 24.5365 207.18 21.2445 208.947 19.2326C213.456 13.807 214.188 12.5878 212.969 12.4049C212.177 12.2829 209.8 15.0263 202.671 24.2318C198.954 28.987 191.398 36.9729 187.62 40.0209C185.183 41.9721 181.832 44.3494 181.71 44.2275C181.466 43.9228 182.989 40.8748 183.781 40.0209C185.122 38.6801 185.366 38.1315 184.939 37.5823C184.391 36.7902 183.355 37.3996 182.137 39.2288C181.527 40.1429 180.37 41.3622 179.577 42.0328C176.835 44.2887 172.875 46.6661 171.107 47.0927C170.072 47.3367 170.194 46.91 171.717 44.5322C173.423 41.9108 173.484 41.5454 172.875 40.8748C172.204 40.2041 171.778 40.2649 165.685 42.0328C163.125 42.7035 160.993 43.2521 160.993 43.2521C160.931 43.1914 162.15 41.3015 163.674 39.0456C172.387 26.1217 179.821 12.3439 181.162 6.79636C181.527 5.08929 181.344 3.01653 180.735 2.16307C179.821 0.944139 178.297 0.334542 175.982 0.273499ZM110.113 6.55276C109.808 6.55276 109.504 6.55276 109.199 6.6137C103.228 7.04043 95.7327 9.53992 85.2522 14.6608C71.0546 21.6105 59.3553 29.6576 57.1009 33.9249C56.6135 34.7783 56.3088 35.0835 55.6382 35.2662C44.3048 38.3142 33.1542 40.3261 26.5122 40.5701C21.8203 40.7528 19.6267 40.4481 17.6766 39.5335C16.0926 38.7409 15.7878 38.3754 15.7878 37.1561C15.7878 35.9368 15.1785 35.4489 14.4473 36.1196C12.924 37.5221 14.9348 40.5088 18.1645 41.6067C20.4795 42.46 22.7951 42.6427 27.365 42.5208C33.5196 42.338 41.5019 40.9968 51.7997 38.5582L56.3696 37.4608L57.2836 38.4362C57.8318 38.9848 58.6239 39.4728 59.2945 39.7162C60.9395 40.2041 68.1909 40.0821 74.5889 39.4728C77.5746 39.1681 80.1336 38.9241 80.3163 38.9241C80.4996 38.9241 79.2808 39.4728 77.6353 40.1434C61.6708 46.6053 45.2189 56.1152 29.3151 68.125C14.1427 79.5254 4.21049 90.0719 0.981048 98.119C0.127957 100.314 -0.176736 103.24 0.310827 105.008C0.676355 106.471 2.50436 108.3 4.1496 108.788C8.78048 110.19 16.8238 107.69 26.8776 101.655C39.3083 94.2172 68.0689 71.7222 84.8867 56.3592C89.03 52.5793 98.7791 42.7035 98.7791 42.338C98.7791 41.9721 99.5717 42.0328 100.12 42.4595C100.547 42.7647 100.547 42.8254 99.9979 43.8008C99.6932 44.4107 98.5964 45.9954 97.5609 47.3367C96.4641 48.7387 95.428 50.2632 95.184 50.7506C94.8186 51.5433 94.8186 51.726 95.1233 52.2746C95.9767 53.7991 97.3169 53.25 103.532 49.1659C105.787 47.6414 107.797 46.3614 107.98 46.3006C108.163 46.2394 108.285 46.4226 108.285 46.91C108.285 47.4587 108.468 47.8246 108.894 48.1906C109.748 48.8 110.357 48.8 112.002 48.1906C112.672 47.9466 113.281 47.7026 113.343 47.7026C113.343 47.7026 113.403 48.0686 113.403 48.434C113.403 49.2879 114.074 50.08 114.927 50.324C116.876 50.8119 130.221 46.1174 138.203 42.2161C142.225 40.2041 142.956 39.6555 142.529 38.9241C142.225 38.4974 141.677 38.6801 139.056 40.0214C135.827 41.6061 129.551 44.106 124.92 45.63C121.447 46.7273 116.816 47.9466 116.024 47.9466C115.597 47.9466 115.597 47.9466 116.024 47.2147C116.755 45.9347 120.228 42.8255 123.214 40.7528C125.956 38.9241 126.626 38.1922 126.199 37.5216C125.895 37.0342 125.163 37.2169 123.214 38.1922C120.716 39.4728 118.644 41.1187 116.146 43.6181C114.195 45.6907 113.403 46.1174 110.783 46.8493C110.113 47.032 110.052 46.4833 110.6 45.508C111.088 44.6547 111.027 43.984 110.478 43.4961C110.174 43.1914 109.808 43.1301 109.443 43.2521C109.138 43.3134 106.823 44.7154 104.264 46.3614C99.0843 49.7146 98.231 50.202 98.6577 49.6533C99.8764 48.1901 101.521 45.8734 101.826 45.2033C102.862 43.1914 102.679 41.4234 101.339 40.6308L100.547 40.1434L101.461 38.7409C103.288 35.9976 103.654 34.0469 102.435 32.8276C101.887 32.2789 101.521 32.0962 100.669 32.0962C98.475 32.0962 95.7934 34.0469 95.0013 36.1808C94.3925 37.7048 94.6359 38.8021 95.9767 40.1434C97.0122 41.1795 97.0735 41.2407 96.7075 41.7894C96.0981 42.6427 87.8724 50.8726 84.3381 54.1038C70.6891 66.601 44.7922 87.0239 31.1433 96.1071C19.8707 103.666 11.9491 107.02 6.52596 106.715C3.3574 106.471 2.13873 105.252 2.32155 102.326C2.74812 95.3145 14.0817 82.6954 31.8742 69.4056C47.7172 57.5785 63.9257 48.2513 80.3776 41.4847C85.4961 39.3508 86.5929 38.6194 86.227 37.4608C85.9223 36.4855 85.4961 36.4855 77.1479 37.2169C72.7608 37.6435 67.8249 38.0095 66.2407 38.1315C63.0116 38.3142 60.0259 37.9488 59.0506 37.2781L58.4412 36.9122L60.3913 36.3023C74.2235 32.2789 89.03 26.4877 101.034 20.5131C112.916 14.5389 117.242 10.3933 114.439 7.64997C113.586 6.85746 112.185 6.49172 110.113 6.55276ZM110.478 8.99115C110.905 8.99115 111.271 8.99121 111.575 9.0522C113.281 9.29606 113.343 9.72284 111.697 11.2469C105.848 16.6726 81.6571 27.585 63.0116 33.1936C61.4274 33.6815 60.0254 34.0469 59.9039 34.0469C59.538 34.0469 61.5488 32.0962 63.5597 30.511C71.542 24.293 87.6285 15.5753 98.1703 11.7346C102.618 10.1495 107.615 9.0522 110.478 8.99115ZM177.81 33.8642C177.445 33.8642 177.14 34.0469 176.896 34.3521C176.409 35.0835 176.409 35.6929 177.018 36.2415C178.237 37.4608 179.943 35.5102 178.785 34.2909C178.541 33.9862 178.176 33.8029 177.81 33.8642ZM100.425 34.2909C101.095 34.2909 101.217 34.4128 101.217 34.8395C101.217 35.3882 100.181 37.2781 99.1451 38.7409C98.8404 39.1068 98.5357 39.4115 98.353 39.4115C97.8656 39.4115 96.5861 38.1922 96.5861 37.7048C96.5861 36.2415 98.7791 34.2909 100.425 34.2909ZM115.049 35.9981C113.769 35.9981 113.159 37.7655 114.135 38.6801C114.378 38.9848 114.805 39.1681 114.988 39.1681C115.536 39.1681 116.328 38.2535 116.328 37.5828C116.328 36.7902 115.658 35.9981 115.049 35.9981ZM155.204 47.398C155.265 47.398 155.326 47.3979 155.326 47.4587C155.326 47.8854 140.58 67.0277 139.848 67.5156C139.727 67.6376 139.3 67.6983 138.934 67.6983H138.264L138.63 66.723C138.813 66.1743 138.996 64.955 138.996 64.0404C138.996 61.907 138.264 60.5658 136.741 59.5904C134.913 58.4319 133.39 58.1884 128.637 58.0052C126.2 57.9445 124.128 57.8225 124.067 57.7005C123.64 57.3958 132.78 54.2866 147.648 49.6533C150.695 48.7387 153.681 47.7634 154.29 47.5807C154.717 47.4587 155.082 47.398 155.204 47.398ZM177.384 48.8607C177.445 48.8 177.505 48.8607 177.505 48.8607C177.505 49.1659 176.531 50.7506 176.104 51.0559C175.616 51.4213 175.19 51.4213 174.337 51.1166C173.789 50.8726 173.789 50.8726 174.215 50.5679C175.19 49.8973 176.957 48.9219 177.384 48.8607ZM215.528 60.749C214.797 60.749 214.248 61.5411 214.553 62.273C214.858 63.0656 215.954 63.0044 216.32 62.2117C216.686 61.4196 216.32 60.749 215.528 60.749ZM137.899 69.7103C137.96 69.6495 138.021 69.7103 138.021 69.8322C138.021 69.9542 137.594 70.4421 137.107 70.9903L136.253 71.9661L136.741 70.9903C137.107 70.3196 137.655 69.7103 137.899 69.7103Z" fill="white"/>
</svg>
