<svg width="356" height="232" viewBox="0 0 356 232" fill="none" xmlns="http://www.w3.org/2000/svg">
<g clip-path="url(#clip0_1_34)">
<path d="M343.435 0.765686H12.5647C5.62541 0.765686 0 6.3911 0 13.3304V218.554C0 225.493 5.62541 231.119 12.5647 231.119H343.435C350.375 231.119 356 225.493 356 218.554V13.3304C356 6.3911 350.375 0.765686 343.435 0.765686Z" fill="#334FE0"/>
<path d="M210.982 34.2735C210.19 34.2735 209.337 34.2735 208.362 34.3954C196.846 35.6146 174.788 43.113 158.397 51.2822C146.636 57.1345 142.432 60.4877 144.564 62.4383C145.296 63.1697 145.844 62.987 145.783 62.0117C145.722 61.341 145.844 61.1583 147.002 60.3044C151.633 56.769 165.587 50.0018 177.895 45.2468C186.548 41.9549 196.968 38.6627 203.792 37.1997C206.169 36.651 207.448 36.529 210.129 36.529C213.297 36.4681 213.48 36.529 214.029 37.0167C215.248 38.2361 214.577 41.1013 211.653 47.2586C208.057 54.7571 202.756 63.6576 195.505 74.2041L192.702 78.2887L190.569 78.9594C177.347 82.9219 160.895 88.6525 157.97 90.4205C156.568 91.2131 156.142 92.0664 156.873 92.7371C157.3 93.1637 157.787 93.2245 162.052 93.4684C168.512 93.7124 170.218 94.0778 171.558 95.4804C172.716 96.5777 172.777 98.6503 171.741 101.028L171.253 102.125L169.304 102.43C155.228 104.381 133.17 108.648 120.252 111.94C117.144 112.733 114.342 113.403 113.976 113.525C113.001 113.708 112.696 114.501 113.184 115.232C113.367 115.598 113.793 115.842 114.037 115.842C114.281 115.842 118.119 114.927 122.628 113.83C134.815 110.721 144.748 108.526 156.203 106.514C162.174 105.417 169.913 104.198 170.035 104.259C170.218 104.442 167.415 108.587 165.221 111.453C164.002 113.037 161.078 116.695 158.579 119.621C152.608 126.876 150.841 129.254 150.841 130.351C150.841 130.534 151.024 130.839 151.206 131.082C151.938 131.814 152.608 131.509 154.497 129.558C156.325 127.669 166.805 115.232 173.081 107.429L176.433 103.222L178.565 102.979C195.749 100.723 232.918 97.0044 242.241 96.6384L246.263 96.4557V95.907C246.263 94.9312 245.166 94.8097 239.804 95.1144C225.85 95.9678 182.526 100.174 178.626 101.089C178.078 101.272 178.078 101.211 178.87 100.174C182.892 94.9924 190.326 84.9946 191.788 82.9827C192.763 81.6414 193.738 80.4226 193.921 80.3006C194.347 80.0567 204.767 76.8255 205.072 76.8255C205.133 76.8255 204.889 77.4961 204.462 78.2887C203.67 79.9347 203.488 81.3367 204.097 82.1293C204.584 82.8607 205.925 82.8607 207.509 82.1901C208.91 81.5807 212.201 79.63 213.785 78.4107C214.943 77.5568 214.943 77.5568 214.699 78.1667C214.029 79.8734 213.785 80.1174 210.799 81.7026C207.753 83.3486 206.899 84.0193 206.899 85.0553C206.899 86.2139 208.91 87.5547 210.616 87.5547C212.262 87.5547 213.48 86.2139 214.821 82.9827C215.552 81.154 215.796 80.788 216.649 80.3006C218.781 79.0813 222.803 75.8501 226.033 72.6801C227.86 70.9122 229.141 69.8149 228.836 70.2415C228.531 70.7289 226.033 74.2041 223.352 77.9228C220.61 81.7026 218.294 84.9946 218.172 85.2993C217.807 85.9092 217.989 86.5186 218.599 86.8233C218.965 87.0673 219.33 86.8233 220.61 85.7872C223.413 83.4094 229.811 78.7154 229.993 78.8981C230.054 78.9594 229.871 79.752 229.567 80.6053C228.897 82.7387 228.897 84.2627 229.567 84.8726C229.811 85.1773 230.237 85.3605 230.481 85.3605C231.273 85.3605 232.979 84.6899 234.259 83.836C235.538 82.9827 235.538 82.9827 236.026 83.4093C236.391 83.7753 236.879 83.8973 237.732 83.8973C240.23 83.8973 244.252 81.3367 249.248 76.5208C250.711 75.0575 251.99 73.8994 251.99 74.0209C251.99 74.0821 251.198 75.3622 250.162 76.7642C248.029 80.0567 247.237 81.9466 247.42 83.6533C247.542 85.2993 248.395 86.2139 250.223 86.7626C252.234 87.3112 258.084 87.0673 264.665 86.1526C271.794 85.1166 287.881 82.434 293.425 81.3367C298.848 80.3006 315.178 76.7035 317.067 76.1548C320.784 75.1182 322.247 73.7775 321.028 72.6189C320.724 72.3142 320.053 72.1922 317.433 72.1922C314.569 72.1922 298.361 73.2895 297.63 73.5335C297.264 73.6555 297.203 74.5701 297.569 74.7528C297.69 74.8135 300.433 74.7528 303.723 74.5701C312.68 73.9602 316.092 73.8382 316.092 73.9602C316.092 74.3868 295.375 78.9593 283.432 81.0927C262.349 84.9333 250.589 85.9087 249.492 83.8973C249.127 83.1654 249.797 81.4587 251.503 78.8374C253.757 75.3014 254.001 74.7528 253.879 73.2895C253.757 72.1315 253.819 71.8875 254.428 71.0342C255.281 69.8756 255.342 68.7175 254.489 68.5956C253.94 68.5343 252.6 69.8756 252.112 71.0949C251.686 72.1315 246.75 76.8254 243.947 78.9594C240.718 81.3979 237.732 82.7387 237.001 82.0681C236.94 81.9466 237.61 81.0927 238.524 80.1787C239.438 79.2028 240.352 77.984 240.596 77.4961C241.023 76.6427 241.023 76.5208 240.657 75.9721C240.23 75.3015 239.804 75.2402 238.829 75.7281C237.427 76.4595 235.173 79.63 235.173 80.8488C235.173 81.4587 231.212 83.714 230.847 83.3486C230.785 83.2874 231.029 82.0681 231.456 80.7273C232.37 77.8008 232.37 77.5568 231.76 76.8255C231.151 76.0328 230.237 76.3375 226.947 78.5934C225.423 79.63 224.083 80.4833 224.083 80.4221C223.961 80.3614 235.051 64.5717 238.158 60.4877C239.56 58.5365 242.18 55.2445 243.947 53.2326C248.456 47.807 249.188 46.5878 247.969 46.4049C247.177 46.2829 244.8 49.0263 237.671 58.2318C233.954 62.987 226.398 70.9729 222.62 74.0209C220.183 75.9721 216.832 78.3494 216.71 78.2275C216.466 77.9228 217.989 74.8748 218.781 74.0209C220.122 72.6801 220.366 72.1315 219.939 71.5823C219.391 70.7902 218.355 71.3996 217.137 73.2288C216.527 74.1429 215.37 75.3622 214.577 76.0328C211.835 78.2887 207.875 80.6661 206.107 81.0927C205.072 81.3367 205.194 80.91 206.717 78.5322C208.423 75.9108 208.484 75.5454 207.875 74.8748C207.204 74.2041 206.778 74.2649 200.685 76.0328C198.125 76.7035 195.993 77.2521 195.993 77.2521C195.931 77.1914 197.15 75.3015 198.674 73.0456C207.387 60.1217 214.821 46.3439 216.162 40.7964C216.527 39.0893 216.344 37.0165 215.735 36.1631C214.821 34.9441 213.297 34.3345 210.982 34.2735ZM145.113 40.5528C144.808 40.5528 144.504 40.5528 144.199 40.6137C138.228 41.0404 130.733 43.5399 120.252 48.6608C106.055 55.6105 94.3553 63.6576 92.1009 67.9249C91.6135 68.7783 91.3088 69.0835 90.6382 69.2662C79.3048 72.3142 68.1542 74.3261 61.5122 74.5701C56.8203 74.7528 54.6267 74.4481 52.6766 73.5335C51.0926 72.7409 50.7878 72.3754 50.7878 71.1561C50.7878 69.9368 50.1785 69.4489 49.4473 70.1196C47.924 71.5221 49.9348 74.5088 53.1645 75.6067C55.4795 76.46 57.7951 76.6427 62.365 76.5208C68.5196 76.338 76.5019 74.9968 86.7997 72.5582L91.3696 71.4608L92.2836 72.4362C92.8318 72.9848 93.6239 73.4728 94.2945 73.7162C95.9395 74.2041 103.191 74.0821 109.589 73.4728C112.575 73.1681 115.134 72.9241 115.316 72.9241C115.5 72.9241 114.281 73.4728 112.635 74.1434C96.6708 80.6053 80.2189 90.1152 64.3151 102.125C49.1427 113.525 39.2105 124.072 35.981 132.119C35.128 134.314 34.8233 137.24 35.3108 139.008C35.6764 140.471 37.5044 142.3 39.1496 142.788C43.7805 144.19 51.8238 141.69 61.8776 135.655C74.3083 128.217 103.069 105.722 119.887 90.3592C124.03 86.5793 133.779 76.7035 133.779 76.338C133.779 75.9721 134.572 76.0328 135.12 76.4595C135.547 76.7647 135.547 76.8254 134.998 77.8008C134.693 78.4107 133.596 79.9954 132.561 81.3367C131.464 82.7387 130.428 84.2632 130.184 84.7506C129.819 85.5433 129.819 85.726 130.123 86.2746C130.977 87.7991 132.317 87.25 138.532 83.1659C140.787 81.6414 142.797 80.3614 142.98 80.3006C143.163 80.2394 143.285 80.4226 143.285 80.91C143.285 81.4587 143.468 81.8246 143.894 82.1906C144.748 82.8 145.357 82.8 147.002 82.1906C147.672 81.9466 148.281 81.7026 148.343 81.7026C148.343 81.7026 148.403 82.0686 148.403 82.434C148.403 83.2879 149.074 84.08 149.927 84.324C151.876 84.8119 165.221 80.1174 173.203 76.2161C177.225 74.2041 177.956 73.6555 177.529 72.9241C177.225 72.4974 176.677 72.6801 174.056 74.0214C170.827 75.6061 164.551 78.106 159.92 79.63C156.447 80.7273 151.816 81.9466 151.024 81.9466C150.597 81.9466 150.597 81.9466 151.024 81.2147C151.755 79.9347 155.228 76.8255 158.214 74.7528C160.956 72.9241 161.626 72.1922 161.199 71.5216C160.895 71.0342 160.163 71.2169 158.214 72.1922C155.716 73.4728 153.644 75.1187 151.146 77.6181C149.195 79.6907 148.403 80.1174 145.783 80.8493C145.113 81.032 145.052 80.4833 145.6 79.508C146.088 78.6547 146.027 77.984 145.478 77.4961C145.174 77.1914 144.808 77.1301 144.443 77.2521C144.138 77.3134 141.823 78.7154 139.264 80.3614C134.084 83.7146 133.231 84.202 133.658 83.6533C134.876 82.1901 136.521 79.8734 136.826 79.2033C137.862 77.1914 137.679 75.4234 136.339 74.6308L135.547 74.1434L136.461 72.7409C138.288 69.9976 138.654 68.0469 137.435 66.8276C136.887 66.2789 136.521 66.0962 135.669 66.0962C133.475 66.0962 130.793 68.0469 130.001 70.1808C129.392 71.7048 129.636 72.8021 130.977 74.1434C132.012 75.1795 132.073 75.2407 131.708 75.7894C131.098 76.6427 122.872 84.8726 119.338 88.1038C105.689 100.601 79.7922 121.024 66.1433 130.107C54.8707 137.666 46.9491 141.02 41.526 140.715C38.3574 140.471 37.1387 139.252 37.3215 136.326C37.7481 129.315 49.0817 116.695 66.8742 103.406C82.7172 91.5785 98.9257 82.2513 115.378 75.4847C120.496 73.3508 121.593 72.6194 121.227 71.4608C120.922 70.4855 120.496 70.4855 112.148 71.2169C107.761 71.6435 102.825 72.0095 101.241 72.1315C98.0116 72.3142 95.0259 71.9488 94.0506 71.2781L93.4412 70.9122L95.3913 70.3023C109.223 66.2789 124.03 60.4877 136.034 54.5131C147.916 48.5389 152.242 44.3933 149.439 41.65C148.586 40.8575 147.185 40.4917 145.113 40.5528ZM145.478 42.9912C145.905 42.9912 146.271 42.9912 146.575 43.0522C148.281 43.2961 148.343 43.7228 146.697 45.2469C140.848 50.6726 116.657 61.585 98.0116 67.1936C96.4274 67.6815 95.0254 68.0469 94.9039 68.0469C94.538 68.0469 96.5488 66.0962 98.5597 64.511C106.542 58.293 122.628 49.5753 133.17 45.7346C137.618 44.1495 142.615 43.0522 145.478 42.9912ZM212.81 67.8642C212.445 67.8642 212.14 68.0469 211.896 68.3521C211.409 69.0835 211.409 69.6929 212.018 70.2415C213.237 71.4608 214.943 69.5102 213.785 68.2909C213.541 67.9862 213.176 67.8029 212.81 67.8642ZM135.425 68.2909C136.095 68.2909 136.217 68.4128 136.217 68.8395C136.217 69.3882 135.181 71.2781 134.145 72.7409C133.84 73.1068 133.536 73.4115 133.353 73.4115C132.866 73.4115 131.586 72.1922 131.586 71.7048C131.586 70.2415 133.779 68.2909 135.425 68.2909ZM150.049 69.9981C148.769 69.9981 148.159 71.7655 149.135 72.6801C149.378 72.9848 149.805 73.1681 149.988 73.1681C150.536 73.1681 151.328 72.2535 151.328 71.5828C151.328 70.7902 150.658 69.9981 150.049 69.9981ZM190.204 81.398C190.265 81.398 190.326 81.3979 190.326 81.4587C190.326 81.8854 175.58 101.028 174.848 101.516C174.727 101.638 174.3 101.698 173.934 101.698H173.264L173.63 100.723C173.813 100.174 173.996 98.955 173.996 98.0404C173.996 95.907 173.264 94.5658 171.741 93.5904C169.913 92.4319 168.39 92.1884 163.637 92.0052C161.2 91.9445 159.128 91.8225 159.067 91.7005C158.64 91.3958 167.78 88.2866 182.648 83.6533C185.695 82.7387 188.681 81.7634 189.29 81.5807C189.717 81.4587 190.082 81.398 190.204 81.398ZM212.384 82.8607C212.445 82.8 212.505 82.8607 212.505 82.8607C212.505 83.1659 211.531 84.7506 211.104 85.0559C210.616 85.4213 210.19 85.4213 209.337 85.1166C208.789 84.8726 208.789 84.8726 209.215 84.5679C210.19 83.8973 211.957 82.9219 212.384 82.8607ZM250.528 94.749C249.797 94.749 249.248 95.5411 249.553 96.273C249.858 97.0656 250.954 97.0044 251.32 96.2117C251.686 95.4196 251.32 94.749 250.528 94.749ZM172.899 103.71C172.96 103.65 173.021 103.71 173.021 103.832C173.021 103.954 172.594 104.442 172.107 104.99L171.253 105.966L171.741 104.99C172.107 104.32 172.655 103.71 172.899 103.71Z" fill="white"/>
<path d="M356 176.672H0V214.366H356V176.672Z" fill="white"/>
<path d="M120.24 195.493H123.415V195.87H120.24V195.493ZM120.29 198.274H123.909V198.659H119.863V192.796H123.783V193.181H120.29V198.274ZM125.885 198.659V192.796H127.988C128.48 192.796 128.901 192.874 129.253 193.03C129.605 193.187 129.875 193.413 130.065 193.709C130.255 193.999 130.35 194.354 130.35 194.773C130.35 195.181 130.255 195.532 130.065 195.828C129.875 196.119 129.605 196.345 129.253 196.507C128.901 196.663 128.48 196.741 127.988 196.741H126.12L126.313 196.54V198.659H125.885ZM129.956 198.659L128.432 196.532H128.918L130.442 198.659H129.956ZM126.313 196.565L126.12 196.364H127.988C128.619 196.364 129.096 196.224 129.42 195.945C129.75 195.666 129.915 195.275 129.915 194.773C129.915 194.264 129.75 193.874 129.42 193.6C129.096 193.321 128.619 193.181 127.988 193.181H126.12L126.313 192.972V196.565ZM132.333 198.659V192.796H132.76V198.659H132.333ZM137.701 198.701C137.266 198.701 136.861 198.628 136.487 198.483C136.118 198.333 135.797 198.123 135.524 197.855C135.25 197.587 135.038 197.275 134.887 196.917C134.736 196.554 134.661 196.157 134.661 195.728C134.661 195.298 134.736 194.904 134.887 194.547C135.038 194.184 135.25 193.868 135.524 193.6C135.803 193.332 136.127 193.125 136.495 192.98C136.864 192.829 137.266 192.754 137.701 192.754C138.115 192.754 138.5 192.821 138.858 192.955C139.221 193.089 139.531 193.293 139.788 193.566L139.52 193.843C139.268 193.597 138.989 193.421 138.682 193.315C138.381 193.204 138.059 193.148 137.718 193.148C137.344 193.148 136.995 193.212 136.671 193.34C136.353 193.469 136.074 193.65 135.834 193.885C135.599 194.119 135.415 194.393 135.281 194.706C135.152 195.018 135.088 195.359 135.088 195.728C135.088 196.096 135.152 196.437 135.281 196.75C135.415 197.062 135.599 197.336 135.834 197.57C136.074 197.805 136.353 197.987 136.671 198.115C136.995 198.243 137.344 198.308 137.718 198.308C138.059 198.308 138.381 198.255 138.682 198.148C138.989 198.037 139.268 197.855 139.52 197.604L139.788 197.88C139.531 198.154 139.221 198.36 138.858 198.5C138.5 198.634 138.115 198.701 137.701 198.701ZM142.014 195.686H145.189V196.071H142.014V195.686ZM142.065 198.659H141.637V192.796H145.558V193.181H142.065V198.659ZM147.34 198.659V192.796H147.767V198.659H147.34ZM151.771 198.701C151.335 198.701 150.922 198.628 150.531 198.483C150.146 198.333 149.847 198.14 149.635 197.905L149.827 197.587C150.029 197.794 150.302 197.97 150.648 198.115C151 198.255 151.371 198.324 151.762 198.324C152.154 198.324 152.472 198.274 152.717 198.174C152.969 198.067 153.153 197.928 153.27 197.755C153.393 197.581 153.454 197.389 153.454 197.177C153.454 196.925 153.387 196.724 153.253 196.574C153.119 196.423 152.944 196.303 152.726 196.213C152.508 196.124 152.271 196.049 152.014 195.987C151.757 195.926 151.497 195.862 151.235 195.795C150.972 195.722 150.732 195.63 150.514 195.518C150.297 195.407 150.121 195.256 149.987 195.066C149.858 194.871 149.794 194.619 149.794 194.312C149.794 194.033 149.867 193.776 150.012 193.541C150.157 193.307 150.383 193.117 150.69 192.972C150.998 192.827 151.391 192.754 151.871 192.754C152.195 192.754 152.514 192.802 152.826 192.896C153.145 192.991 153.415 193.12 153.639 193.282L153.48 193.625C153.234 193.458 152.969 193.335 152.684 193.257C152.405 193.173 152.134 193.131 151.871 193.131C151.497 193.131 151.187 193.184 150.942 193.29C150.696 193.396 150.514 193.539 150.397 193.717C150.28 193.891 150.221 194.086 150.221 194.304C150.221 194.555 150.286 194.756 150.414 194.907C150.548 195.057 150.724 195.177 150.942 195.267C151.159 195.356 151.4 195.432 151.662 195.493C151.924 195.554 152.184 195.621 152.441 195.694C152.698 195.761 152.935 195.851 153.153 195.962C153.371 196.074 153.547 196.224 153.681 196.414C153.815 196.605 153.882 196.85 153.882 197.152C153.882 197.425 153.806 197.682 153.656 197.922C153.505 198.157 153.273 198.347 152.96 198.492C152.653 198.632 152.257 198.701 151.771 198.701ZM160.1 192.796H160.527V198.659H160.1V192.796ZM156.18 198.659H155.753V192.796H156.18V198.659ZM160.15 195.87H156.13V195.493H160.15V195.87ZM163.371 195.493H166.545V195.87H163.371V195.493ZM163.421 198.274H167.04V198.659H162.994V192.796H166.914V193.181H163.421V198.274ZM169.016 198.659V192.796H171.118C171.61 192.796 172.031 192.874 172.383 193.03C172.735 193.187 173.006 193.413 173.196 193.709C173.386 193.999 173.481 194.354 173.481 194.773C173.481 195.181 173.386 195.532 173.196 195.828C173.006 196.119 172.735 196.345 172.383 196.507C172.031 196.663 171.61 196.741 171.118 196.741H169.25L169.443 196.54V198.659H169.016ZM173.087 198.659L171.562 196.532H172.048L173.573 198.659H173.087ZM169.443 196.565L169.25 196.364H171.118C171.75 196.364 172.227 196.224 172.551 195.945C172.881 195.666 173.045 195.275 173.045 194.773C173.045 194.264 172.881 193.874 172.551 193.6C172.227 193.321 171.75 193.181 171.118 193.181H169.25L169.443 192.972V196.565ZM178.747 200.326C178.183 200.326 177.664 200.232 177.189 200.042C176.72 199.857 176.312 199.595 175.966 199.254C175.625 198.919 175.363 198.523 175.179 198.065C174.995 197.601 174.902 197.09 174.902 196.532C174.902 195.973 174.995 195.462 175.179 194.999C175.369 194.536 175.637 194.136 175.983 193.801C176.329 193.466 176.74 193.209 177.214 193.03C177.689 192.846 178.211 192.754 178.781 192.754C179.345 192.754 179.861 192.843 180.33 193.022C180.799 193.201 181.207 193.455 181.553 193.784C181.899 194.108 182.165 194.499 182.349 194.957C182.539 195.409 182.634 195.909 182.634 196.456C182.634 196.931 182.581 197.336 182.475 197.671C182.369 198 182.218 198.255 182.022 198.433C181.827 198.606 181.601 198.693 181.344 198.693C181.082 198.693 180.869 198.615 180.707 198.458C180.546 198.302 180.464 198.081 180.464 197.797V197.059L180.54 196.498L180.456 195.77V194.379H180.841V197.688C180.841 197.928 180.894 198.098 181.001 198.199C181.107 198.299 181.238 198.349 181.394 198.349C181.579 198.349 181.738 198.277 181.872 198.132C182.011 197.981 182.117 197.766 182.19 197.487C182.268 197.208 182.307 196.867 182.307 196.465C182.307 195.956 182.221 195.496 182.048 195.083C181.88 194.664 181.637 194.304 181.319 194.002C181.006 193.701 180.635 193.472 180.205 193.315C179.775 193.153 179.3 193.072 178.781 193.072C178.261 193.072 177.784 193.156 177.348 193.324C176.913 193.491 176.538 193.728 176.226 194.036C175.913 194.343 175.67 194.708 175.497 195.133C175.33 195.552 175.246 196.018 175.246 196.532C175.246 197.04 175.33 197.506 175.497 197.931C175.665 198.355 175.902 198.721 176.209 199.028C176.522 199.34 176.893 199.581 177.323 199.748C177.753 199.916 178.228 200 178.747 200C178.999 200 179.267 199.969 179.551 199.907C179.842 199.851 180.107 199.759 180.347 199.631L180.456 199.941C180.211 200.069 179.931 200.165 179.618 200.226C179.306 200.293 179.015 200.326 178.747 200.326ZM178.68 198.693C178.284 198.693 177.926 198.601 177.608 198.416C177.296 198.226 177.047 197.967 176.863 197.637C176.684 197.308 176.595 196.934 176.595 196.515C176.595 196.09 176.684 195.717 176.863 195.393C177.047 195.068 177.296 194.815 177.608 194.63C177.926 194.44 178.284 194.346 178.68 194.346C179.071 194.346 179.417 194.435 179.719 194.614C180.026 194.792 180.266 195.043 180.439 195.367C180.618 195.691 180.707 196.074 180.707 196.515C180.707 196.951 180.618 197.333 180.439 197.663C180.266 197.992 180.029 198.246 179.727 198.425C179.426 198.603 179.077 198.693 178.68 198.693ZM178.722 198.341C179.057 198.341 179.356 198.266 179.618 198.115C179.881 197.958 180.087 197.744 180.238 197.47C180.389 197.196 180.464 196.878 180.464 196.515C180.464 196.146 180.389 195.828 180.238 195.56C180.087 195.286 179.881 195.074 179.618 194.923C179.356 194.773 179.057 194.697 178.722 194.697C178.393 194.697 178.097 194.773 177.834 194.923C177.572 195.074 177.365 195.286 177.214 195.56C177.064 195.834 176.988 196.152 176.988 196.515C176.988 196.873 177.064 197.191 177.214 197.47C177.365 197.744 177.572 197.958 177.834 198.115C178.097 198.266 178.393 198.341 178.722 198.341ZM187.042 198.701C186.601 198.701 186.193 198.628 185.819 198.483C185.445 198.333 185.118 198.123 184.839 197.855C184.565 197.587 184.353 197.275 184.202 196.917C184.051 196.554 183.976 196.157 183.976 195.728C183.976 195.298 184.051 194.904 184.202 194.547C184.353 194.184 184.568 193.868 184.847 193.6C185.126 193.332 185.45 193.125 185.819 192.98C186.193 192.829 186.603 192.754 187.05 192.754C187.474 192.754 187.868 192.821 188.231 192.955C188.594 193.089 188.904 193.29 189.161 193.558L188.893 193.843C188.636 193.592 188.354 193.413 188.047 193.307C187.745 193.201 187.416 193.148 187.058 193.148C186.679 193.148 186.327 193.212 186.003 193.34C185.679 193.469 185.397 193.65 185.157 193.885C184.917 194.119 184.73 194.393 184.596 194.706C184.467 195.018 184.403 195.359 184.403 195.728C184.403 196.096 184.467 196.437 184.596 196.75C184.73 197.062 184.917 197.336 185.157 197.57C185.397 197.805 185.679 197.987 186.003 198.115C186.327 198.243 186.679 198.308 187.058 198.308C187.405 198.308 187.732 198.255 188.038 198.148C188.351 198.042 188.636 197.866 188.893 197.621L189.136 197.947C188.873 198.199 188.558 198.389 188.189 198.517C187.826 198.64 187.444 198.701 187.042 198.701ZM188.725 197.905V195.753H189.136V197.947L188.725 197.905ZM191.434 198.659V192.796H191.795L194.517 197.495H194.324L197.038 192.796H197.39L197.399 198.659H196.98L196.971 193.441H197.089L194.517 197.88H194.308L191.728 193.441H191.853V198.659H191.434ZM198.882 198.659L201.579 192.796H202.006L204.703 198.659H204.243L201.696 193.064H201.88L199.342 198.659H198.882ZM199.87 197.009L200.012 196.649H203.522L203.665 197.009H199.87ZM206.186 198.659V192.796H206.614V198.659H206.186ZM209.076 198.659V192.796H209.503V198.274H212.879V198.659H209.076ZM214.464 198.693C214.369 198.693 214.285 198.659 214.213 198.592C214.146 198.52 214.112 198.433 214.112 198.333C214.112 198.232 214.146 198.148 214.213 198.081C214.285 198.014 214.369 197.981 214.464 197.981C214.559 197.981 214.64 198.014 214.707 198.081C214.78 198.148 214.816 198.232 214.816 198.333C214.816 198.433 214.78 198.52 214.707 198.592C214.64 198.659 214.559 198.693 214.464 198.693ZM219.06 198.701C218.624 198.701 218.219 198.628 217.845 198.483C217.477 198.333 217.155 198.123 216.882 197.855C216.608 197.587 216.396 197.275 216.246 196.917C216.095 196.554 216.019 196.157 216.019 195.728C216.019 195.298 216.095 194.904 216.246 194.547C216.396 194.184 216.608 193.868 216.882 193.6C217.161 193.332 217.485 193.125 217.854 192.98C218.222 192.829 218.624 192.754 219.06 192.754C219.473 192.754 219.858 192.821 220.216 192.955C220.579 193.089 220.889 193.293 221.146 193.566L220.878 193.843C220.626 193.597 220.347 193.421 220.04 193.315C219.739 193.204 219.417 193.148 219.077 193.148C218.702 193.148 218.353 193.212 218.03 193.34C217.711 193.469 217.432 193.65 217.192 193.885C216.958 194.119 216.773 194.393 216.639 194.706C216.51 195.018 216.447 195.359 216.447 195.728C216.447 196.096 216.51 196.437 216.639 196.75C216.773 197.062 216.958 197.336 217.192 197.57C217.432 197.805 217.711 197.987 218.03 198.115C218.353 198.243 218.702 198.308 219.077 198.308C219.417 198.308 219.739 198.255 220.04 198.148C220.347 198.037 220.626 197.855 220.878 197.604L221.146 197.88C220.889 198.154 220.579 198.36 220.216 198.5C219.858 198.634 219.473 198.701 219.06 198.701ZM225.36 198.701C224.925 198.701 224.52 198.628 224.146 198.483C223.777 198.333 223.454 198.123 223.174 197.855C222.901 197.581 222.688 197.266 222.537 196.909C222.387 196.546 222.311 196.152 222.311 195.728C222.311 195.303 222.387 194.912 222.537 194.555C222.688 194.192 222.901 193.876 223.174 193.608C223.454 193.335 223.777 193.125 224.146 192.98C224.52 192.829 224.925 192.754 225.36 192.754C225.796 192.754 226.198 192.829 226.566 192.98C226.941 193.125 227.265 193.332 227.538 193.6C227.812 193.868 228.024 194.184 228.175 194.547C228.331 194.904 228.409 195.298 228.409 195.728C228.409 196.157 228.331 196.554 228.175 196.917C228.024 197.275 227.812 197.587 227.538 197.855C227.265 198.123 226.941 198.333 226.566 198.483C226.198 198.628 225.796 198.701 225.36 198.701ZM225.36 198.308C225.735 198.308 226.081 198.243 226.399 198.115C226.717 197.987 226.994 197.805 227.228 197.57C227.463 197.336 227.644 197.062 227.773 196.75C227.907 196.437 227.974 196.096 227.974 195.728C227.974 195.353 227.907 195.013 227.773 194.706C227.644 194.393 227.463 194.119 227.228 193.885C226.994 193.65 226.717 193.469 226.399 193.34C226.081 193.212 225.735 193.148 225.36 193.148C224.986 193.148 224.64 193.212 224.322 193.34C224.003 193.469 223.724 193.65 223.484 193.885C223.249 194.119 223.065 194.393 222.931 194.706C222.803 195.013 222.738 195.353 222.738 195.728C222.738 196.096 222.803 196.437 222.931 196.75C223.065 197.062 223.249 197.336 223.484 197.57C223.724 197.805 224.003 197.987 224.322 198.115C224.64 198.243 224.986 198.308 225.36 198.308ZM230.31 198.659V192.796H230.67L233.393 197.495H233.2L235.914 192.796H236.266L236.274 198.659H235.855L235.847 193.441H235.964L233.393 197.88H233.183L230.603 193.441H230.729V198.659H230.31Z" fill="#1F295D"/>
<path d="M356 214.367H0V231.12H356V214.367Z" fill="#1F295D"/>
</g>
<defs>
<clipPath id="clip0_1_34">
<rect width="356" height="230.353" fill="white" transform="translate(0 0.765686)"/>
</clipPath>
</defs>
</svg>
