<svg width="738" height="30" viewBox="0 0 738 30" fill="none" xmlns="http://www.w3.org/2000/svg">
<path d="M31.5 6.43562V8.06562H26.87V20.7656H24.93V8.06562H20.28V6.43562H31.5ZM35.1575 10.4756C35.7642 10.4756 36.3242 10.579 36.8375 10.7856C37.3508 10.9856 37.7942 11.279 38.1675 11.6656C38.5408 12.0456 38.8308 12.519 39.0375 13.0856C39.2508 13.6456 39.3575 14.2856 39.3575 15.0056C39.3575 15.2856 39.3275 15.4723 39.2675 15.5656C39.2075 15.659 39.0942 15.7056 38.9275 15.7056H32.1875C32.2008 16.3456 32.2875 16.9023 32.4475 17.3756C32.6075 17.849 32.8275 18.2456 33.1075 18.5656C33.3875 18.879 33.7208 19.1156 34.1075 19.2756C34.4942 19.429 34.9275 19.5056 35.4075 19.5056C35.8542 19.5056 36.2375 19.4556 36.5575 19.3556C36.8842 19.249 37.1642 19.1356 37.3975 19.0156C37.6308 18.8956 37.8242 18.7856 37.9775 18.6856C38.1375 18.579 38.2742 18.5256 38.3875 18.5256C38.5342 18.5256 38.6475 18.5823 38.7275 18.6956L39.2275 19.3456C39.0075 19.6123 38.7442 19.8456 38.4375 20.0456C38.1308 20.239 37.8008 20.399 37.4475 20.5256C37.1008 20.6523 36.7408 20.7456 36.3675 20.8056C35.9942 20.8723 35.6242 20.9056 35.2575 20.9056C34.5575 20.9056 33.9108 20.789 33.3175 20.5556C32.7308 20.3156 32.2208 19.969 31.7875 19.5156C31.3608 19.0556 31.0275 18.489 30.7875 17.8156C30.5475 17.1423 30.4275 16.369 30.4275 15.4956C30.4275 14.789 30.5342 14.129 30.7475 13.5156C30.9675 12.9023 31.2808 12.3723 31.6875 11.9256C32.0942 11.4723 32.5908 11.119 33.1775 10.8656C33.7642 10.6056 34.4242 10.4756 35.1575 10.4756ZM35.1975 11.7856C34.3375 11.7856 33.6608 12.0356 33.1675 12.5356C32.6742 13.029 32.3675 13.7156 32.2475 14.5956H37.7575C37.7575 14.1823 37.7008 13.8056 37.5875 13.4656C37.4742 13.119 37.3075 12.8223 37.0875 12.5756C36.8675 12.3223 36.5975 12.129 36.2775 11.9956C35.9642 11.8556 35.6042 11.7856 35.1975 11.7856ZM41.6358 20.7656V10.6356H42.6958C42.9491 10.6356 43.1091 10.759 43.1758 11.0056L43.3058 12.0456C43.6791 11.5856 44.0958 11.209 44.5558 10.9156C45.0224 10.6223 45.5624 10.4756 46.1758 10.4756C46.8624 10.4756 47.4158 10.6656 47.8358 11.0456C48.2624 11.4256 48.5691 11.939 48.7558 12.5856C48.8958 12.219 49.0791 11.9023 49.3058 11.6356C49.5391 11.369 49.7991 11.149 50.0858 10.9756C50.3724 10.8023 50.6758 10.6756 50.9958 10.5956C51.3224 10.5156 51.6524 10.4756 51.9858 10.4756C52.5191 10.4756 52.9924 10.5623 53.4058 10.7356C53.8258 10.9023 54.1791 11.149 54.4658 11.4756C54.7591 11.8023 54.9824 12.2056 55.1358 12.6856C55.2891 13.159 55.3658 13.7023 55.3658 14.3156V20.7656H53.5858V14.3156C53.5858 13.5223 53.4124 12.9223 53.0658 12.5156C52.7191 12.1023 52.2158 11.8956 51.5558 11.8956C51.2624 11.8956 50.9824 11.949 50.7158 12.0556C50.4558 12.1556 50.2258 12.3056 50.0258 12.5056C49.8258 12.7056 49.6658 12.959 49.5458 13.2656C49.4324 13.5656 49.3758 13.9156 49.3758 14.3156V20.7656H47.5958V14.3156C47.5958 13.5023 47.4324 12.8956 47.1058 12.4956C46.7791 12.0956 46.3024 11.8956 45.6758 11.8956C45.2358 11.8956 44.8258 12.0156 44.4458 12.2556C44.0724 12.489 43.7291 12.809 43.4158 13.2156V20.7656H41.6358ZM58.0616 24.1956V10.6356H59.1216C59.3749 10.6356 59.5349 10.759 59.6016 11.0056L59.7516 12.2056C60.1849 11.679 60.6782 11.2556 61.2316 10.9356C61.7916 10.6156 62.4349 10.4556 63.1616 10.4556C63.7416 10.4556 64.2682 10.569 64.7416 10.7956C65.2149 11.0156 65.6182 11.3456 65.9516 11.7856C66.2849 12.219 66.5416 12.759 66.7216 13.4056C66.9016 14.0523 66.9916 14.7956 66.9916 15.6356C66.9916 16.3823 66.8916 17.079 66.6916 17.7256C66.4916 18.3656 66.2049 18.9223 65.8316 19.3956C65.4582 19.8623 64.9982 20.2323 64.4516 20.5056C63.9116 20.7723 63.3016 20.9056 62.6216 20.9056C61.9949 20.9056 61.4582 20.8023 61.0116 20.5956C60.5716 20.389 60.1816 20.0956 59.8416 19.7156V24.1956H58.0616ZM62.5716 11.8956C61.9916 11.8956 61.4816 12.029 61.0416 12.2956C60.6082 12.5623 60.2082 12.939 59.8416 13.4256V18.3256C60.1682 18.7656 60.5249 19.0756 60.9116 19.2556C61.3049 19.4356 61.7416 19.5256 62.2216 19.5256C63.1616 19.5256 63.8849 19.189 64.3916 18.5156C64.8982 17.8423 65.1516 16.8823 65.1516 15.6356C65.1516 14.9756 65.0916 14.409 64.9716 13.9356C64.8582 13.4623 64.6916 13.0756 64.4716 12.7756C64.2516 12.469 63.9816 12.2456 63.6616 12.1056C63.3416 11.9656 62.9782 11.8956 62.5716 11.8956ZM71.0767 6.03562V20.7656H69.2967V6.03562H71.0767ZM81.6539 20.7656H80.8639C80.6906 20.7656 80.5506 20.739 80.4439 20.6856C80.3372 20.6323 80.2672 20.519 80.2339 20.3456L80.0339 19.4056C79.7672 19.6456 79.5072 19.8623 79.2539 20.0556C79.0006 20.2423 78.7339 20.4023 78.4539 20.5356C78.1739 20.6623 77.8739 20.759 77.5539 20.8256C77.2406 20.8923 76.8906 20.9256 76.5039 20.9256C76.1106 20.9256 75.7406 20.8723 75.3939 20.7656C75.0539 20.6523 74.7572 20.4856 74.5039 20.2656C74.2506 20.0456 74.0472 19.769 73.8939 19.4356C73.7472 19.0956 73.6739 18.6956 73.6739 18.2356C73.6739 17.8356 73.7839 17.4523 74.0039 17.0856C74.2239 16.7123 74.5772 16.3823 75.0639 16.0956C75.5572 15.809 76.2006 15.5756 76.9939 15.3956C77.7872 15.209 78.7572 15.1023 79.9039 15.0756V14.2856C79.9039 13.499 79.7339 12.9056 79.3939 12.5056C79.0606 12.099 78.5639 11.8956 77.9039 11.8956C77.4706 11.8956 77.1039 11.9523 76.8039 12.0656C76.5106 12.1723 76.2539 12.2956 76.0339 12.4356C75.8206 12.569 75.6339 12.6923 75.4739 12.8056C75.3206 12.9123 75.1672 12.9656 75.0139 12.9656C74.8939 12.9656 74.7872 12.9356 74.6939 12.8756C74.6072 12.809 74.5372 12.729 74.4839 12.6356L74.1639 12.0656C74.7239 11.5256 75.3272 11.1223 75.9739 10.8556C76.6206 10.589 77.3372 10.4556 78.1239 10.4556C78.6906 10.4556 79.1939 10.549 79.6339 10.7356C80.0739 10.9223 80.4439 11.1823 80.7439 11.5156C81.0439 11.849 81.2706 12.2523 81.4239 12.7256C81.5772 13.199 81.6539 13.719 81.6539 14.2856V20.7656ZM77.0339 19.6756C77.3472 19.6756 77.6339 19.6456 77.8939 19.5856C78.1539 19.519 78.3972 19.429 78.6239 19.3156C78.8572 19.1956 79.0772 19.0523 79.2839 18.8856C79.4972 18.719 79.7039 18.529 79.9039 18.3156V16.2056C79.0839 16.2323 78.3872 16.299 77.8139 16.4056C77.2406 16.5056 76.7739 16.639 76.4139 16.8056C76.0539 16.9723 75.7906 17.169 75.6239 17.3956C75.4639 17.6223 75.3839 17.8756 75.3839 18.1556C75.3839 18.4223 75.4272 18.6523 75.5139 18.8456C75.6006 19.039 75.7172 19.199 75.8639 19.3256C76.0106 19.4456 76.1839 19.5356 76.3839 19.5956C76.5839 19.649 76.8006 19.6756 77.0339 19.6756ZM87.4206 20.9256C86.6206 20.9256 86.004 20.7023 85.5706 20.2556C85.144 19.809 84.9306 19.1656 84.9306 18.3256V12.1256H83.7106C83.604 12.1256 83.514 12.0956 83.4406 12.0356C83.3673 11.969 83.3306 11.869 83.3306 11.7356V11.0256L84.9906 10.8156L85.4006 7.68562C85.414 7.58562 85.4573 7.50562 85.5306 7.44562C85.604 7.37896 85.6973 7.34562 85.8106 7.34562H86.7106V10.8356H89.6106V12.1256H86.7106V18.2056C86.7106 18.6323 86.814 18.949 87.0206 19.1556C87.2273 19.3623 87.494 19.4656 87.8206 19.4656C88.0073 19.4656 88.1673 19.4423 88.3006 19.3956C88.4406 19.3423 88.5606 19.2856 88.6606 19.2256C88.7606 19.1656 88.844 19.1123 88.9106 19.0656C88.984 19.0123 89.0473 18.9856 89.1006 18.9856C89.194 18.9856 89.2773 19.0423 89.3506 19.1556L89.8706 20.0056C89.564 20.2923 89.194 20.519 88.7606 20.6856C88.3273 20.8456 87.8806 20.9256 87.4206 20.9256ZM95.8216 10.4756C96.4282 10.4756 96.9882 10.579 97.5016 10.7856C98.0149 10.9856 98.4582 11.279 98.8316 11.6656C99.2049 12.0456 99.4949 12.519 99.7016 13.0856C99.9149 13.6456 100.022 14.2856 100.022 15.0056C100.022 15.2856 99.9916 15.4723 99.9316 15.5656C99.8716 15.659 99.7582 15.7056 99.5916 15.7056H92.8516C92.8649 16.3456 92.9516 16.9023 93.1116 17.3756C93.2716 17.849 93.4916 18.2456 93.7716 18.5656C94.0516 18.879 94.3849 19.1156 94.7716 19.2756C95.1582 19.429 95.5916 19.5056 96.0716 19.5056C96.5182 19.5056 96.9016 19.4556 97.2216 19.3556C97.5482 19.249 97.8282 19.1356 98.0616 19.0156C98.2949 18.8956 98.4882 18.7856 98.6416 18.6856C98.8016 18.579 98.9382 18.5256 99.0516 18.5256C99.1982 18.5256 99.3116 18.5823 99.3916 18.6956L99.8916 19.3456C99.6716 19.6123 99.4082 19.8456 99.1016 20.0456C98.7949 20.239 98.4649 20.399 98.1116 20.5256C97.7649 20.6523 97.4049 20.7456 97.0316 20.8056C96.6582 20.8723 96.2882 20.9056 95.9216 20.9056C95.2216 20.9056 94.5749 20.789 93.9816 20.5556C93.3949 20.3156 92.8849 19.969 92.4516 19.5156C92.0249 19.0556 91.6916 18.489 91.4516 17.8156C91.2116 17.1423 91.0916 16.369 91.0916 15.4956C91.0916 14.789 91.1982 14.129 91.4116 13.5156C91.6316 12.9023 91.9449 12.3723 92.3516 11.9256C92.7582 11.4723 93.2549 11.119 93.8416 10.8656C94.4282 10.6056 95.0882 10.4756 95.8216 10.4756ZM95.8616 11.7856C95.0016 11.7856 94.3249 12.0356 93.8316 12.5356C93.3382 13.029 93.0316 13.7156 92.9116 14.5956H98.4216C98.4216 14.1823 98.3649 13.8056 98.2516 13.4656C98.1382 13.119 97.9716 12.8223 97.7516 12.5756C97.5316 12.3223 97.2616 12.129 96.9416 11.9956C96.6282 11.8556 96.2682 11.7856 95.8616 11.7856ZM114.487 7.21562C114.487 7.46896 114.407 7.67896 114.247 7.84562C114.087 8.00562 113.817 8.08562 113.437 8.08562H108.937L108.277 11.8456C109.024 11.6856 109.714 11.6056 110.347 11.6056C111.094 11.6056 111.75 11.7156 112.317 11.9356C112.89 12.1556 113.37 12.459 113.757 12.8456C114.144 13.2323 114.434 13.689 114.627 14.2156C114.827 14.7423 114.927 15.3156 114.927 15.9356C114.927 16.6956 114.794 17.3823 114.527 17.9956C114.26 18.609 113.894 19.1356 113.427 19.5756C112.967 20.009 112.424 20.3423 111.797 20.5756C111.17 20.809 110.494 20.9256 109.767 20.9256C109.347 20.9256 108.944 20.8823 108.557 20.7956C108.17 20.7156 107.81 20.6056 107.477 20.4656C107.144 20.3256 106.834 20.1656 106.547 19.9856C106.26 19.8056 106.007 19.6156 105.787 19.4156L106.327 18.6556C106.447 18.4823 106.607 18.3956 106.807 18.3956C106.934 18.3956 107.08 18.449 107.247 18.5556C107.42 18.6556 107.627 18.769 107.867 18.8956C108.107 19.0223 108.387 19.139 108.707 19.2456C109.034 19.3456 109.42 19.3956 109.867 19.3956C110.367 19.3956 110.817 19.3156 111.217 19.1556C111.617 18.9956 111.957 18.769 112.237 18.4756C112.524 18.1756 112.744 17.819 112.897 17.4056C113.05 16.9923 113.127 16.529 113.127 16.0156C113.127 15.569 113.06 15.1656 112.927 14.8056C112.8 14.4456 112.604 14.139 112.337 13.8856C112.077 13.6323 111.75 13.4356 111.357 13.2956C110.964 13.1556 110.504 13.0856 109.977 13.0856C109.617 13.0856 109.244 13.1156 108.857 13.1756C108.47 13.2356 108.07 13.3323 107.657 13.4656L106.537 13.1356L107.697 6.43562H114.487V7.21562ZM121.799 14.8856C121.259 14.8856 120.745 14.7956 120.259 14.6156C119.779 14.4356 119.355 14.1723 118.989 13.8256C118.622 13.4723 118.329 13.0423 118.109 12.5356C117.895 12.0223 117.789 11.4356 117.789 10.7756C117.789 10.149 117.905 9.56229 118.139 9.01562C118.372 8.46896 118.699 7.99229 119.119 7.58562C119.539 7.17896 120.039 6.85896 120.619 6.62562C121.199 6.39229 121.835 6.27562 122.529 6.27562C123.215 6.27562 123.839 6.38896 124.399 6.61562C124.959 6.84229 125.439 7.15896 125.839 7.56562C126.239 7.97229 126.545 8.45896 126.759 9.02562C126.979 9.59229 127.089 10.219 127.089 10.9056C127.089 11.319 127.049 11.7123 126.969 12.0856C126.895 12.4523 126.785 12.8123 126.639 13.1656C126.492 13.519 126.315 13.8723 126.109 14.2256C125.909 14.5723 125.679 14.9323 125.419 15.3056L121.929 20.3456C121.842 20.4723 121.719 20.5756 121.559 20.6556C121.399 20.729 121.215 20.7656 121.009 20.7656H119.369L123.729 15.0556C123.875 14.8623 124.012 14.679 124.139 14.5056C124.265 14.3323 124.385 14.159 124.499 13.9856C124.132 14.279 123.719 14.5023 123.259 14.6556C122.799 14.809 122.312 14.8856 121.799 14.8856ZM125.379 10.6956C125.379 10.249 125.305 9.84562 125.159 9.48562C125.019 9.11896 124.822 8.80896 124.569 8.55562C124.315 8.30229 124.012 8.10896 123.659 7.97562C123.312 7.83562 122.929 7.76562 122.509 7.76562C122.069 7.76562 121.665 7.83896 121.299 7.98562C120.939 8.12562 120.629 8.32229 120.369 8.57562C120.115 8.82896 119.919 9.13229 119.779 9.48562C119.639 9.83896 119.569 10.2256 119.569 10.6456C119.569 11.099 119.632 11.5056 119.759 11.8656C119.892 12.219 120.079 12.519 120.319 12.7656C120.565 13.0123 120.862 13.199 121.209 13.3256C121.562 13.4523 121.955 13.5156 122.389 13.5156C122.869 13.5156 123.292 13.439 123.659 13.2856C124.032 13.1256 124.345 12.9156 124.599 12.6556C124.852 12.3956 125.045 12.0956 125.179 11.7556C125.312 11.4156 125.379 11.0623 125.379 10.6956Z" fill="#959595"/>
<path d="M20 28.7657L718 28.7656" stroke="#959595" stroke-linecap="round"/>
</svg>
