<svg width="193" height="23" viewBox="0 0 193 23" fill="none" xmlns="http://www.w3.org/2000/svg">
<path d="M6.1405 9.07043H15.6687V13.4094H6.1405V9.07043ZM6.55095 17.1621H17.2812V21.6477H0.804688V1.12535H16.9001V5.61095H6.55095V17.1621ZM20.5025 21.6477V1.12535H29.8841C31.7605 1.12535 33.3729 1.42832 34.7215 2.0342C36.0895 2.64008 37.145 3.51961 37.8878 4.67279C38.6307 5.80639 39.0019 7.155 39.0019 8.71862C39.0019 10.2627 38.6307 11.6015 37.8878 12.7351C37.145 13.8492 36.0895 14.7092 34.7215 15.3151C33.3729 15.9014 31.7605 16.1946 29.8841 16.1946H23.7274L26.3074 13.7613V21.6477H20.5025ZM33.197 21.6477L28.0958 14.1717H34.2818L39.4124 21.6477H33.197ZM26.3074 14.3769L23.7274 11.709H29.5323C30.7441 11.709 31.6432 11.4452 32.2295 10.9174C32.8354 10.3897 33.1384 9.65679 33.1384 8.71862C33.1384 7.76093 32.8354 7.0182 32.2295 6.49048C31.6432 5.96276 30.7441 5.6989 29.5323 5.6989H23.7274L26.3074 3.031V14.3769ZM42.2043 21.6477V1.12535H48.0092V21.6477H42.2043ZM62.3712 22.0581C60.7488 22.0581 59.2437 21.8041 57.8563 21.2959C56.4878 20.7682 55.2957 20.0254 54.2796 19.0677C53.2828 18.1101 52.5006 16.9862 51.9341 15.6962C51.3672 14.3867 51.0839 12.9502 51.0839 11.3865C51.0839 9.8229 51.3672 8.39613 51.9341 7.10615C52.5006 5.79665 53.2828 4.663 54.2796 3.70531C55.2957 2.74761 56.4878 2.01467 57.8563 1.50648C59.2437 0.978764 60.7488 0.714905 62.3712 0.714905C64.2669 0.714905 65.9574 1.04719 67.4432 1.7117C68.9478 2.37622 70.199 3.33397 71.1958 4.58483L67.5018 7.92705C66.8369 7.14526 66.104 6.54912 65.303 6.13867C64.5208 5.72822 63.6413 5.523 62.6644 5.523C61.8236 5.523 61.0519 5.6598 60.3483 5.93345C59.6447 6.2071 59.0384 6.60775 58.5306 7.13547C58.0416 7.64366 57.6511 8.25933 57.3579 8.98248C57.0841 9.70563 56.9475 10.507 56.9475 11.3865C56.9475 12.2661 57.0841 13.0674 57.3579 13.7906C57.6511 14.5137 58.0416 15.1392 58.5306 15.6669C59.0384 16.1751 59.6447 16.566 60.3483 16.8396C61.0519 17.1133 61.8236 17.2501 62.6644 17.2501C63.6413 17.2501 64.5208 17.0448 65.303 16.6344C66.104 16.2239 66.8369 15.6278 67.5018 14.846L71.1958 18.1882C70.199 19.4196 68.9478 20.3773 67.4432 21.0613C65.9574 21.7259 64.2669 22.0581 62.3712 22.0581ZM87.7101 10.1259H97.1796V14.6115H87.7101V10.1259ZM88.1205 21.6477H82.3156V1.12535H98.411V5.61095H88.1205V21.6477ZM101.126 21.6477V1.12535H106.931V21.6477H101.126ZM118.273 22.0581C116.592 22.0581 114.97 21.8529 113.406 21.4425C111.862 21.0125 110.601 20.4652 109.624 19.8007L111.53 15.5203C112.448 16.1067 113.504 16.5953 114.696 16.9862C115.908 17.3575 117.11 17.5432 118.302 17.5432C119.103 17.5432 119.748 17.4748 120.237 17.338C120.726 17.1816 121.078 16.9862 121.293 16.7517C121.527 16.4976 121.645 16.2044 121.645 15.8721C121.645 15.403 121.43 15.0317 121 14.7581C120.569 14.4844 120.012 14.2597 119.329 14.0838C118.644 13.9078 117.882 13.7319 117.042 13.556C116.221 13.3801 115.39 13.1554 114.55 12.8817C113.729 12.6081 112.976 12.2563 112.292 11.8263C111.608 11.3767 111.051 10.8002 110.621 10.0966C110.191 9.3734 109.976 8.46455 109.976 7.37001C109.976 6.13867 110.308 5.0246 110.973 4.0278C111.657 3.031 112.674 2.22963 114.022 1.62375C115.371 1.01787 117.051 0.714905 119.065 0.714905C120.413 0.714905 121.733 0.871283 123.023 1.18399C124.332 1.47716 125.495 1.91693 126.511 2.50328L124.723 6.81298C123.746 6.28526 122.778 5.89434 121.821 5.64027C120.863 5.36662 119.934 5.22982 119.035 5.22982C118.234 5.22982 117.589 5.31778 117.1 5.49368C116.611 5.65006 116.26 5.86502 116.045 6.13867C115.83 6.41232 115.723 6.72502 115.723 7.07683C115.723 7.52639 115.928 7.88794 116.338 8.16159C116.768 8.41566 117.325 8.63067 118.009 8.80657C118.713 8.96295 119.475 9.12907 120.296 9.30497C121.136 9.48088 121.967 9.70563 122.788 9.97928C123.628 10.2334 124.391 10.5852 125.075 11.0347C125.759 11.4647 126.306 12.0413 126.717 12.7645C127.146 13.4681 127.362 14.3574 127.362 15.4324C127.362 16.6246 127.019 17.7289 126.336 18.7453C125.671 19.7421 124.664 20.5434 123.316 21.1493C121.987 21.7552 120.306 22.0581 118.273 22.0581ZM143.763 1.12535H149.568V21.6477H143.763V1.12535ZM135.848 21.6477H130.043V1.12535H135.848V21.6477ZM144.174 13.644H135.437V8.83589H144.174V13.644ZM158.999 9.07043H168.527V13.4094H158.999V9.07043ZM159.41 17.1621H170.14V21.6477H153.663V1.12535H169.759V5.61095H159.41V17.1621ZM173.361 21.6477V1.12535H182.743C184.619 1.12535 186.231 1.42832 187.58 2.0342C188.948 2.64008 190.004 3.51961 190.746 4.67279C191.489 5.80639 191.86 7.155 191.86 8.71862C191.86 10.2627 191.489 11.6015 190.746 12.7351C190.004 13.8492 188.948 14.7092 187.58 15.3151C186.231 15.9014 184.619 16.1946 182.743 16.1946H176.586L179.166 13.7613V21.6477H173.361ZM186.056 21.6477L180.954 14.1717H187.14L192.271 21.6477H186.056ZM179.166 14.3769L176.586 11.709H182.391C183.602 11.709 184.502 11.4452 185.088 10.9174C185.694 10.3897 185.997 9.65679 185.997 8.71862C185.997 7.76093 185.694 7.0182 185.088 6.49048C184.502 5.96276 183.602 5.6989 182.391 5.6989H176.586L179.166 3.031V14.3769Z" fill="white"/>
</svg>
