<svg width="67" height="9" viewBox="0 0 67 9" fill="none" xmlns="http://www.w3.org/2000/svg">
<path d="M0.502427 4.25461H4.47078V4.73626H0.502427V4.25461ZM0.56525 7.97167H0.03125V0.642257H4.93149V1.1239H0.56525V7.97167ZM7.16026 7.97167V0.642257H7.69426V7.97167H7.16026ZM12.6984 8.02402C12.1539 8.02402 11.6374 7.93345 11.1487 7.75179C10.6671 7.56332 10.2936 7.32249 10.0284 7.02931L10.2692 6.63143C10.5205 6.88953 10.8626 7.10941 11.2953 7.29108C11.7351 7.46541 12.1993 7.55284 12.6879 7.55284C13.1766 7.55284 13.5744 7.49002 13.8815 7.36437C14.1957 7.23192 14.426 7.05706 14.5726 6.84084C14.7262 6.62463 14.8029 6.3838 14.8029 6.11837C14.8029 5.80426 14.7192 5.55296 14.5517 5.36449C14.3841 5.17602 14.1642 5.02577 13.892 4.91426C13.6198 4.80275 13.3231 4.70851 13.002 4.63155C12.6809 4.55459 12.3563 4.47449 12.0282 4.39073C11.7002 4.30016 11.4 4.18498 11.1278 4.0452C10.8555 3.90542 10.6357 3.71694 10.4681 3.47979C10.3076 3.2353 10.2273 2.92118 10.2273 2.53743C10.2273 2.18824 10.3181 1.86732 10.4995 1.57414C10.681 1.28096 10.9637 1.0438 11.3477 0.862138C11.7316 0.680474 12.2237 0.589905 12.824 0.589905C13.2289 0.589905 13.6268 0.649062 14.0177 0.767903C14.4155 0.886744 14.7541 1.04695 15.0333 1.24955L14.8344 1.67885C14.5273 1.46944 14.1957 1.31604 13.8397 1.21814C13.4907 1.11343 13.1521 1.06108 12.824 1.06108C12.3563 1.06108 11.9689 1.12757 11.6618 1.26002C11.3547 1.39247 11.1278 1.57047 10.9812 1.79402C10.8346 2.01024 10.7613 2.25473 10.7613 2.52696C10.7613 2.84108 10.8416 3.09238 11.0021 3.28085C11.1697 3.46932 11.3895 3.61957 11.6618 3.73108C11.934 3.84259 12.2342 3.93683 12.5622 4.01379C12.8903 4.09075 13.2149 4.17451 13.536 4.26508C13.8571 4.34884 14.1538 4.46036 14.426 4.60014C14.6982 4.73992 14.9181 4.92839 15.0857 5.16555C15.2532 5.40271 15.3369 5.71002 15.3369 6.08696C15.3369 6.42883 15.2427 6.75027 15.0542 7.05026C14.8658 7.34343 14.5761 7.58059 14.1852 7.76226C13.8013 7.93659 13.3057 8.02402 12.6984 8.02402ZM23.1101 0.642257H23.644V7.97167H23.1101V0.642257ZM18.2098 7.97167H17.6758V0.642257H18.2098V7.97167ZM23.1729 4.48496H18.147V4.01379H23.1729V4.48496ZM27.1983 4.01379H31.1667V4.48496H27.1983V4.01379ZM27.2612 7.49002H31.7845V7.97167H26.7272V0.642257H31.6274V1.1239H27.2612V7.49002ZM34.2549 7.97167V0.642257H36.883C37.4971 0.642257 38.0243 0.740156 38.4641 0.935432C38.9038 1.13071 39.2426 1.41342 39.4797 1.78355C39.7169 2.14636 39.8357 2.58979 39.8357 3.11332C39.8357 3.62271 39.7169 4.06247 39.4797 4.43261C39.2426 4.79541 38.9038 5.07812 38.4641 5.28073C38.0243 5.476 37.4971 5.5739 36.883 5.5739H34.5481L34.7889 5.32261V7.97167H34.2549ZM39.3436 7.97167L37.438 5.31214H38.0452L39.9509 7.97167H39.3436ZM34.7889 5.35402L34.5481 5.10273H36.883C37.672 5.10273 38.2688 4.92839 38.6735 4.5792C39.0855 4.23 39.2912 3.74155 39.2912 3.11332C39.2912 2.47828 39.0855 1.9893 38.6735 1.64743C38.2688 1.29824 37.672 1.1239 36.883 1.1239H34.5481L34.7889 0.862138V5.35402ZM42.3146 7.97167V0.642257H42.7649L46.1678 6.51626H45.927L49.3194 0.642257H49.7592L49.7697 7.97167H49.2462L49.2357 1.44849H49.3823L46.1678 6.9979H45.906L42.6811 1.44849H42.8382V7.97167H42.3146ZM51.6235 7.97167L54.995 0.642257H55.529L58.9006 7.97167H58.3247L55.1416 0.977315H55.372L52.1994 7.97167H51.6235ZM52.859 5.90896L53.037 5.45873H57.4242L57.6022 5.90896H52.859ZM60.7544 7.97167V0.642257H61.2046L66.4294 7.31202H66.1886V0.642257H66.7226V7.97167H66.2829L61.0476 1.30191H61.2884V7.97167H60.7544Z" fill="white"/>
</svg>
