<svg width="10" height="9" viewBox="0 0 10 9" fill="none" xmlns="http://www.w3.org/2000/svg">
<path d="M4.94028 0.441381L5.11064 0.242965C5.01263 0.158676 4.86798 0.158676 4.76992 0.242965L4.94028 0.441381ZM1.0313 3.79197L0.860941 3.59355L0.769531 3.67155V3.79197H1.0313ZM3.82344 8.25924V8.521C3.96798 8.521 4.0852 8.40425 4.0852 8.25924H3.82344ZM6.05718 8.25924H5.79541C5.79541 8.40425 5.91258 8.521 6.05718 8.521V8.25924ZM8.84932 3.79197H9.11108V3.67155L9.01968 3.59355L8.84932 3.79197ZM1.58969 8.521H3.82344V7.99747H1.58969V8.521ZM9.01968 3.59355L5.11064 0.242965L4.76992 0.640325L8.67896 3.99091L9.01968 3.59355ZM4.76992 0.242965L0.860941 3.59355L1.20165 3.99091L5.11064 0.640325L4.76992 0.242965ZM4.0852 8.25924V6.58395H3.56167V8.25924H4.0852ZM5.79541 6.58395V8.25924H6.31894V6.58395H5.79541ZM6.05718 8.521H8.29087V7.99747H6.05718V8.521ZM9.11108 7.70117V3.79197H8.58755V7.70117H9.11108ZM0.769531 3.79197V7.70117H1.29306V3.79197H0.769531ZM4.94028 5.72903C5.41256 5.72903 5.79541 6.11173 5.79541 6.58395H6.31894C6.31894 5.82274 5.7017 5.2055 4.94028 5.2055V5.72903ZM4.94028 5.2055C4.17891 5.2055 3.56167 5.82274 3.56167 6.58395H4.0852C4.0852 6.11173 4.46806 5.72903 4.94028 5.72903V5.2055ZM8.29087 8.521C8.74388 8.521 9.11108 8.15402 9.11108 7.70117H8.58755C8.58755 7.86503 8.45473 7.99747 8.29087 7.99747V8.521ZM1.58969 7.99747C1.42588 7.99747 1.29306 7.86503 1.29306 7.70117H0.769531C0.769531 8.15402 1.13674 8.521 1.58969 8.521V7.99747Z" fill="#1F295D"/>
</svg>
