<svg width="103" height="7" viewBox="0 0 103 7" fill="none" xmlns="http://www.w3.org/2000/svg">
<path d="M2.56041 5.26644C2.17928 5.26644 1.81768 5.20309 1.47565 5.07587C1.1385 4.94394 0.877102 4.77536 0.691406 4.57014L0.859982 4.29163C1.03589 4.47225 1.2753 4.62616 1.57827 4.75338C1.8861 4.87536 2.21105 4.93662 2.55308 4.93662C2.8951 4.93662 3.17362 4.89263 3.38863 4.80468C3.60851 4.71202 3.76976 4.58952 3.87237 4.43822C3.97985 4.28692 4.03362 4.11834 4.03362 3.93249C4.03362 3.71261 3.97498 3.5367 3.85771 3.40477C3.74044 3.27284 3.58652 3.1676 3.39596 3.0896C3.20539 3.01159 2.99771 2.94563 2.77296 2.89171C2.54821 2.83779 2.321 2.78177 2.09132 2.72314C1.86165 2.65979 1.65156 2.57916 1.46099 2.48126C1.27043 2.38336 1.11651 2.25143 0.99924 2.08547C0.886838 1.91428 0.830664 1.6944 0.830664 1.42583C0.830664 1.18135 0.89417 0.956754 1.02123 0.751531C1.14829 0.546307 1.34618 0.380335 1.61491 0.253117C1.88364 0.125899 2.22812 0.062561 2.64836 0.062561C2.93175 0.062561 3.21026 0.103923 3.48391 0.187164C3.76243 0.270406 3.99943 0.382432 4.19486 0.524308L4.05561 0.824817C3.84059 0.678228 3.60851 0.570906 3.35931 0.502324C3.11498 0.42903 2.87803 0.392387 2.64836 0.392387C2.321 0.392387 2.04981 0.438977 1.83479 0.531641C1.61978 0.624306 1.46099 0.7489 1.35838 0.905436C1.25577 1.05674 1.20446 1.22794 1.20446 1.4185C1.20446 1.63838 1.26064 1.81429 1.37304 1.94622C1.49031 2.07815 1.64423 2.18337 1.83479 2.26137C2.02536 2.33938 2.23545 2.40536 2.46512 2.45928C2.6948 2.5132 2.92201 2.57184 3.14676 2.63519C3.37151 2.69382 3.5792 2.77183 3.76976 2.86973C3.96032 2.96763 4.11424 3.09955 4.23151 3.2655C4.34878 3.43146 4.40742 3.64665 4.40742 3.91051C4.40742 4.14976 4.34145 4.37487 4.20952 4.58481C4.07759 4.79003 3.87483 4.95599 3.60118 5.08321C3.33245 5.20519 2.98551 5.26644 2.56041 5.26644ZM5.18706 5.22979L7.54718 0.0992119H7.92098L10.2811 5.22979H9.87793L7.64979 0.333752H7.81099L5.59017 5.22979H5.18706ZM6.05193 3.7859L6.17653 3.47074H9.2476L9.37221 3.7859H6.05193ZM11.5789 5.22979V0.0992119H11.894L15.5514 4.76805H15.3828V0.0992119H15.7566V5.22979H15.4488L11.7841 0.560959H11.9527V5.22979H11.5789ZM20.4936 2.62785H23.2714V2.96501H20.4936V2.62785ZM20.5376 5.22979H20.1638V0.0992119H23.5937V0.436355H20.5376V5.22979ZM25.1538 5.22979V0.0992119H26.9935C27.4239 0.0992119 27.7924 0.167793 28.1003 0.304435C28.4081 0.441076 28.6453 0.638971 28.8112 0.898118C28.9777 1.15203 29.0604 1.46247 29.0604 1.82895C29.0604 2.18547 28.9777 2.49331 28.8112 2.75246C28.6453 3.00637 28.4081 3.20426 28.1003 3.34614C27.7924 3.48278 27.4239 3.55136 26.9935 3.55136H25.3591L25.5276 3.37546V5.22979H25.1538ZM28.7159 5.22979L27.382 3.36812H27.8071L29.141 5.22979H28.7159ZM25.5276 3.39744L25.3591 3.22154H26.9935C27.5458 3.22154 27.9636 3.09955 28.2469 2.85506C28.5353 2.61057 28.6793 2.26871 28.6793 1.82895C28.6793 1.38447 28.5353 1.04209 28.2469 0.802832C27.9636 0.558344 27.5458 0.436355 26.9935 0.436355H25.3591L25.5276 0.253117V3.39744ZM29.9384 5.22979L32.2984 0.0992119H32.6722L35.0323 5.22979H34.6292L32.4011 0.333752H32.5623L30.3415 5.22979H29.9384ZM30.8032 3.7859L30.9278 3.47074H33.9989L34.1235 3.7859H30.8032ZM36.3302 5.22979V0.0992119H36.6453L40.3027 4.76805H40.1341V0.0992119H40.5079V5.22979H40.2001L36.5354 0.560959H36.7039V5.22979H36.3302ZM44.8354 5.26644C44.4543 5.26644 44.0998 5.20309 43.7726 5.07587C43.4501 4.94394 43.169 4.76071 42.9298 4.52617C42.6905 4.29163 42.5047 4.01783 42.3727 3.70528C42.2408 3.3875 42.1748 3.04092 42.1748 2.6645C42.1748 2.28809 42.2408 1.9436 42.3727 1.63106C42.5047 1.31327 42.6905 1.03737 42.9298 0.802832C43.1742 0.568291 43.4575 0.387668 43.78 0.26045C44.1025 0.128521 44.4543 0.062561 44.8354 0.062561C45.1972 0.062561 45.5343 0.121196 45.8469 0.238466C46.1646 0.355737 46.4358 0.534262 46.6604 0.773515L46.4259 1.01539C46.206 0.800218 45.9615 0.64629 45.6929 0.553625C45.4291 0.455725 45.1479 0.407038 44.8501 0.407038C44.5229 0.407038 44.2171 0.463051 43.9339 0.57561C43.6554 0.688168 43.4109 0.8468 43.2009 1.05202C42.9957 1.25725 42.8345 1.4965 42.7172 1.77031C42.6046 2.04412 42.5486 2.34201 42.5486 2.6645C42.5486 2.987 42.6046 3.28489 42.7172 3.5587C42.8345 3.8325 42.9957 4.07174 43.2009 4.27697C43.4109 4.48219 43.6554 4.64082 43.9339 4.75338C44.2171 4.86594 44.5229 4.92195 44.8501 4.92195C45.1479 4.92195 45.4291 4.87536 45.6929 4.7827C45.9615 4.6848 46.206 4.52617 46.4259 4.30628L46.6604 4.54816C46.4358 4.78741 46.1646 4.96856 45.8469 5.09054C45.5343 5.20781 45.1972 5.26644 44.8354 5.26644ZM48.2792 5.22979V0.0992119H48.653V5.22979H48.2792ZM52.1554 5.26644C51.7743 5.26644 51.413 5.20309 51.0706 5.07587C50.7335 4.94394 50.4722 4.77536 50.2864 4.57014L50.455 4.29163C50.6309 4.47225 50.8707 4.62616 51.1733 4.75338C51.4811 4.87536 51.8062 4.93662 52.1481 4.93662C52.4905 4.93662 52.769 4.89263 52.9836 4.80468C53.2035 4.71202 53.3647 4.58952 53.4674 4.43822C53.5752 4.28692 53.6286 4.11834 53.6286 3.93249C53.6286 3.71261 53.57 3.5367 53.4527 3.40477C53.3354 3.27284 53.1815 3.1676 52.9909 3.0896C52.8004 3.01159 52.5931 2.94563 52.3679 2.89171C52.1433 2.83779 51.9161 2.78177 51.6863 2.72314C51.457 2.65979 51.2465 2.57916 51.056 2.48126C50.8654 2.38336 50.7115 2.25143 50.5942 2.08547C50.4822 1.91428 50.4257 1.6944 50.4257 1.42583C50.4257 1.18135 50.4895 0.956754 50.6162 0.751531C50.7434 0.546307 50.9413 0.380335 51.2099 0.253117C51.479 0.125899 51.8235 0.062561 52.2433 0.062561C52.5271 0.062561 52.8056 0.103923 53.0789 0.187164C53.3574 0.270406 53.5946 0.382432 53.7899 0.524308L53.6506 0.824817C53.4359 0.678228 53.2035 0.570906 52.9543 0.502324C52.7103 0.42903 52.4732 0.392387 52.2433 0.392387C51.9161 0.392387 51.645 0.438977 51.4298 0.531641C51.2151 0.624306 51.056 0.7489 50.9534 0.905436C50.8508 1.05674 50.7994 1.22794 50.7994 1.4185C50.7994 1.63838 50.856 1.81429 50.968 1.94622C51.0853 2.07815 51.2392 2.18337 51.4298 2.26137C51.6203 2.33938 51.8308 2.40536 52.0601 2.45928C52.2899 2.5132 52.5172 2.57184 52.7417 2.63519C52.9669 2.69382 53.1742 2.77183 53.3647 2.86973C53.5553 2.96763 53.7092 3.09955 53.8265 3.2655C53.9438 3.43146 54.0024 3.64665 54.0024 3.91051C54.0024 4.14976 53.9364 4.37487 53.8045 4.58481C53.6726 4.79003 53.47 4.95599 53.1962 5.08321C52.9276 5.20519 52.5805 5.26644 52.1554 5.26644ZM57.8095 5.26644C57.4284 5.26644 57.0739 5.20309 56.7467 5.07587C56.4242 4.94394 56.1431 4.76071 55.9039 4.52617C55.6641 4.29163 55.4788 4.01783 55.3468 3.70528C55.2149 3.3875 55.1489 3.04092 55.1489 2.6645C55.1489 2.28809 55.2149 1.9436 55.3468 1.63106C55.4788 1.31327 55.6641 1.03737 55.9039 0.802832C56.1478 0.568291 56.4316 0.387668 56.7541 0.26045C57.0766 0.128521 57.4284 0.062561 57.8095 0.062561C58.1707 0.062561 58.5079 0.121196 58.821 0.238466C59.1382 0.355737 59.4094 0.534262 59.6345 0.773515L59.4 1.01539C59.1801 0.800218 58.9356 0.64629 58.667 0.553625C58.4032 0.455725 58.1221 0.407038 57.8242 0.407038C57.4964 0.407038 57.1912 0.463051 56.908 0.57561C56.6295 0.688168 56.385 0.8468 56.1751 1.05202C55.9698 1.25725 55.8086 1.4965 55.6913 1.77031C55.5788 2.04412 55.5227 2.34201 55.5227 2.6645C55.5227 2.987 55.5788 3.28489 55.6913 3.5587C55.8086 3.8325 55.9698 4.07174 56.1751 4.27697C56.385 4.48219 56.6295 4.64082 56.908 4.75338C57.1912 4.86594 57.4964 4.92195 57.8242 4.92195C58.1221 4.92195 58.4032 4.87536 58.667 4.7827C58.9356 4.6848 59.1801 4.52617 59.4 4.30628L59.6345 4.54816C59.4094 4.78741 59.1382 4.96856 58.821 5.09054C58.5079 5.20781 58.1707 5.26644 57.8095 5.26644ZM63.3223 5.26644C62.9411 5.26644 62.5867 5.20309 62.2595 5.07587C61.937 4.94394 61.6538 4.76071 61.4093 4.52617C61.17 4.28692 60.9842 4.0105 60.8523 3.69795C60.7203 3.38017 60.6544 3.03569 60.6544 2.6645C60.6544 2.29332 60.7203 1.95094 60.8523 1.63839C60.9842 1.32061 61.17 1.04471 61.4093 0.810166C61.6538 0.570913 61.937 0.387668 62.2595 0.26045C62.5867 0.128521 62.9411 0.062561 63.3223 0.062561C63.7034 0.062561 64.0552 0.128521 64.3777 0.26045C64.7049 0.387668 64.9887 0.568291 65.2279 0.802832C65.4672 1.03737 65.653 1.31327 65.785 1.63106C65.9216 1.9436 65.9902 2.28809 65.9902 2.6645C65.9902 3.04092 65.9216 3.3875 65.785 3.70528C65.653 4.01783 65.4672 4.29163 65.2279 4.52617C64.9887 4.76071 64.7049 4.94394 64.3777 5.07587C64.0552 5.20309 63.7034 5.26644 63.3223 5.26644ZM63.3223 4.92195C63.6495 4.92195 63.9526 4.86594 64.2311 4.75338C64.5096 4.64082 64.7515 4.48219 64.9567 4.27697C65.162 4.07174 65.3206 3.8325 65.4332 3.5587C65.5504 3.28489 65.6091 2.987 65.6091 2.6645C65.6091 2.3373 65.5504 2.03888 65.4332 1.77031C65.3206 1.4965 65.162 1.25725 64.9567 1.05202C64.7515 0.8468 64.5096 0.688168 64.2311 0.57561C63.9526 0.463051 63.6495 0.407038 63.3223 0.407038C62.9951 0.407038 62.6919 0.463051 62.4134 0.57561C62.1349 0.688168 61.8904 0.8468 61.6805 1.05202C61.4753 1.25725 61.314 1.4965 61.1967 1.77031C61.0842 2.03888 61.0282 2.3373 61.0282 2.6645C61.0282 2.987 61.0842 3.28489 61.1967 3.5587C61.314 3.8325 61.4753 4.07174 61.6805 4.27697C61.8904 4.48219 62.1349 4.64082 62.4134 4.75338C62.6919 4.86594 62.9951 4.92195 63.3223 4.92195ZM67.0409 6.27791L67.3268 5.03922L67.3634 5.25178C67.2707 5.25178 67.1922 5.22246 67.1289 5.16383C67.0702 5.10519 67.0409 5.0319 67.0409 4.94395C67.0409 4.856 67.0702 4.7827 67.1289 4.72406C67.1922 4.66543 67.2655 4.63611 67.3487 4.63611C67.4414 4.63611 67.5147 4.66805 67.5686 4.7314C67.6273 4.79003 67.6566 4.86071 67.6566 4.94395C67.6566 4.97798 67.654 5.01253 67.6492 5.04656C67.6445 5.08058 67.6372 5.11515 67.6273 5.14917C67.6173 5.1832 67.6053 5.22717 67.5906 5.2811L67.3048 6.27791H67.0409ZM73.7625 5.26644C73.3814 5.26644 73.0269 5.20309 72.6997 5.07587C72.3772 4.94394 72.0961 4.76071 71.8568 4.52617C71.6171 4.29163 71.4317 4.01783 71.2998 3.70528C71.1679 3.3875 71.1019 3.04092 71.1019 2.6645C71.1019 2.28809 71.1679 1.9436 71.2998 1.63106C71.4317 1.31327 71.6171 1.03737 71.8568 0.802832C72.1008 0.568291 72.3846 0.387668 72.7071 0.26045C73.0296 0.128521 73.3814 0.062561 73.7625 0.062561C74.1237 0.062561 74.4609 0.121196 74.774 0.238466C75.0912 0.355737 75.3624 0.534262 75.5875 0.773515L75.353 1.01539C75.1331 0.800218 74.8886 0.64629 74.62 0.553625C74.3562 0.455725 74.075 0.407038 73.7772 0.407038C73.4494 0.407038 73.1442 0.463051 72.861 0.57561C72.5825 0.688168 72.338 0.8468 72.128 1.05202C71.9228 1.25725 71.7616 1.4965 71.6443 1.77031C71.5317 2.04412 71.4757 2.34201 71.4757 2.6645C71.4757 2.987 71.5317 3.28489 71.6443 3.5587C71.7616 3.8325 71.9228 4.07174 72.128 4.27697C72.338 4.48219 72.5825 4.64082 72.861 4.75338C73.1442 4.86594 73.4494 4.92195 73.7772 4.92195C74.075 4.92195 74.3562 4.87536 74.62 4.7827C74.8886 4.6848 75.1331 4.52617 75.353 4.30628L75.5875 4.54816C75.3624 4.78741 75.0912 4.96856 74.774 5.09054C74.4609 5.20781 74.1237 5.26644 73.7625 5.26644ZM76.2121 5.22979L78.5722 0.0992119H78.946L81.306 5.22979H80.9029L78.6748 0.333752H78.836L76.6152 5.22979H76.2121ZM77.077 3.7859L77.2016 3.47074H80.2726L80.3972 3.7859H77.077ZM82.3856 6.27791L82.6714 5.03922L82.708 5.25178C82.6154 5.25178 82.5368 5.22246 82.4735 5.16383C82.4149 5.10519 82.3856 5.0319 82.3856 4.94395C82.3856 4.856 82.4149 4.7827 82.4735 4.72406C82.5368 4.66543 82.6101 4.63611 82.6934 4.63611C82.786 4.63611 82.8593 4.66805 82.9133 4.7314C82.9719 4.79003 83.0012 4.86071 83.0012 4.94395C83.0012 4.97798 82.9986 5.01253 82.9939 5.04656C82.9892 5.08058 82.9818 5.11515 82.9719 5.14917C82.962 5.1832 82.9499 5.22717 82.9353 5.2811L82.6494 6.27791H82.3856ZM88.9454 5.26644C88.3103 5.26644 87.8093 5.08059 87.4428 4.70941C87.0764 4.33823 86.8931 3.78591 86.8931 3.05296V0.0992119H87.2669V3.0383C87.2669 3.67857 87.4135 4.15237 87.7067 4.46021C87.9999 4.76804 88.4156 4.92195 88.9527 4.92195C89.4857 4.92195 89.8982 4.76804 90.1914 4.46021C90.4846 4.15237 90.6311 3.67857 90.6311 3.0383V0.0992119H91.0049V3.05296C91.0049 3.78591 90.8217 4.33823 90.4552 4.70941C90.0888 5.08059 89.5857 5.26644 88.9454 5.26644ZM94.4644 5.26644C94.0833 5.26644 93.7215 5.20309 93.3797 5.07587C93.0425 4.94394 92.7813 4.77536 92.5954 4.57014L92.764 4.29163C92.9399 4.47225 93.1792 4.62616 93.4823 4.75338C93.7901 4.87536 94.1152 4.93662 94.4571 4.93662C94.799 4.93662 95.0775 4.89263 95.2926 4.80468C95.5125 4.71202 95.6738 4.58952 95.7764 4.43822C95.8837 4.28692 95.9376 4.11834 95.9376 3.93249C95.9376 3.71261 95.879 3.5367 95.7617 3.40477C95.6445 3.27284 95.4905 3.1676 95.3 3.0896C95.1094 3.01159 94.9016 2.94563 94.677 2.89171C94.4524 2.83779 94.2252 2.78177 93.9953 2.72314C93.7655 2.65979 93.5556 2.57916 93.365 2.48126C93.1744 2.38336 93.0205 2.25143 92.9033 2.08547C92.7907 1.91428 92.7347 1.6944 92.7347 1.42583C92.7347 1.18135 92.798 0.956754 92.9252 0.751531C93.0525 0.546307 93.2504 0.380335 93.5189 0.253117C93.7875 0.125899 94.132 0.062561 94.5524 0.062561C94.8356 0.062561 95.1141 0.103923 95.3879 0.187164C95.6664 0.270406 95.9036 0.382432 96.0989 0.524308L95.9596 0.824817C95.7444 0.678228 95.5125 0.570906 95.2633 0.502324C95.0188 0.42903 94.7822 0.392387 94.5524 0.392387C94.2252 0.392387 93.954 0.438977 93.7388 0.531641C93.5236 0.624306 93.365 0.7489 93.2624 0.905436C93.1598 1.05674 93.1085 1.22794 93.1085 1.4185C93.1085 1.63838 93.1645 1.81429 93.2771 1.94622C93.3943 2.07815 93.5482 2.18337 93.7388 2.26137C93.9294 2.33938 94.1393 2.40536 94.3691 2.45928C94.599 2.5132 94.8262 2.57184 95.0508 2.63519C95.2754 2.69382 95.4832 2.77183 95.6738 2.86973C95.8643 2.96763 96.0183 3.09955 96.1355 3.2655C96.2528 3.43146 96.3114 3.64665 96.3114 3.91051C96.3114 4.14976 96.2455 4.37487 96.1135 4.58481C95.9816 4.79003 95.779 4.95599 95.5052 5.08321C95.2366 5.20519 94.8895 5.26644 94.4644 5.26644ZM97.091 5.22979L99.451 0.0992119H99.8248L102.185 5.22979H101.782L99.5536 0.333752H99.7149L97.4941 5.22979H97.091ZM97.9558 3.7859L98.0804 3.47074H101.151L101.276 3.7859H97.9558Z" fill="#1F295D"/>
</svg>
