<svg width="76" height="8" viewBox="0 0 76 8" fill="none" xmlns="http://www.w3.org/2000/svg">
<path d="M0.540762 2.91241H3.31861V3.24223H0.540762V2.91241ZM0.584738 5.34576H3.75104V5.68292H0.210938V0.552337H3.6411V0.88948H0.584738V5.34576ZM5.48037 5.68292V0.552337H7.32005C7.75008 0.552337 8.11895 0.620918 8.42679 0.75756C8.73462 0.894201 8.97163 1.0921 9.13774 1.35124C9.30391 1.60516 9.38694 1.9156 9.38694 2.28207C9.38694 2.63859 9.30391 2.94643 9.13774 3.20558C8.97163 3.45949 8.73462 3.65739 8.42679 3.79926C8.11895 3.93591 7.75008 4.00449 7.32005 4.00449H5.68559L5.85416 3.82858V5.68292H5.48037ZM9.04246 5.68292L7.70851 3.82125H8.13361L9.46756 5.68292H9.04246ZM5.85416 3.85057L5.68559 3.67466H7.32005C7.87221 3.67466 8.28999 3.55267 8.57338 3.30818C8.86168 3.0637 9.00581 2.72184 9.00581 2.28207C9.00581 1.83759 8.86168 1.49521 8.57338 1.25596C8.28999 1.01147 7.87221 0.88948 7.32005 0.88948H5.68559L5.85416 0.706242V3.85057ZM11.122 5.68292V0.552337H11.4958V5.68292H11.122ZM15.8196 5.71957C15.4385 5.71957 15.0842 5.65622 14.7568 5.529C14.4343 5.39707 14.1534 5.21384 13.914 4.9793C13.6745 4.74476 13.4888 4.47095 13.3569 4.15841C13.225 3.84063 13.159 3.49405 13.159 3.11763C13.159 2.74121 13.225 2.39673 13.3569 2.08418C13.4888 1.7664 13.6745 1.4905 13.914 1.25596C14.1583 1.02142 14.4417 0.840793 14.7642 0.713575C15.0867 0.581646 15.4385 0.515686 15.8196 0.515686C16.1812 0.515686 16.5184 0.574321 16.8311 0.691591C17.1487 0.808862 17.4199 0.987387 17.6446 1.22664L17.4101 1.46851C17.1902 1.25334 16.9459 1.09942 16.6771 1.00675C16.4133 0.90885 16.1323 0.860163 15.8343 0.860163C15.5069 0.860163 15.2015 0.916176 14.9181 1.02873C14.6396 1.14129 14.3952 1.29992 14.1851 1.50515C13.9799 1.71037 13.8187 1.94963 13.7014 2.22344C13.589 2.49724 13.5328 2.79513 13.5328 3.11763C13.5328 3.44012 13.589 3.73801 13.7014 4.01182C13.8187 4.28563 13.9799 4.52487 14.1851 4.73009C14.3952 4.93532 14.6396 5.09395 14.9181 5.20651C15.2015 5.31906 15.5069 5.37508 15.8343 5.37508C16.1323 5.37508 16.4133 5.32849 16.6771 5.23582C16.9459 5.13792 17.1902 4.97929 17.4101 4.75941L17.6446 5.00128C17.4199 5.24054 17.1487 5.42168 16.8311 5.54366C16.5184 5.66093 16.1812 5.71957 15.8196 5.71957ZM22.0289 7.14148C21.5354 7.14148 21.081 7.05823 20.6656 6.89227C20.2552 6.73102 19.8985 6.50119 19.5955 6.2033C19.2975 5.91012 19.0678 5.56304 18.9065 5.16254C18.7453 4.7568 18.6647 4.3097 18.6647 3.82125C18.6647 3.3328 18.7453 2.88569 18.9065 2.47996C19.0727 2.07422 19.3073 1.72504 19.6102 1.43186C19.9131 1.13869 20.2723 0.914095 20.6876 0.75756C21.103 0.596313 21.5598 0.515686 22.0582 0.515686C22.5515 0.515686 23.0038 0.593691 23.4143 0.750226C23.8247 0.906761 24.1813 1.12873 24.4844 1.4172C24.787 1.70043 25.0194 2.04282 25.1807 2.44332C25.3466 2.83911 25.4299 3.27625 25.4299 3.75528C25.4299 4.17044 25.3833 4.52487 25.2906 4.81804C25.1974 5.10651 25.0655 5.32849 24.8948 5.48503C24.7236 5.63633 24.5257 5.71224 24.3011 5.71224C24.0713 5.71224 23.8855 5.64365 23.7441 5.50701C23.6022 5.37037 23.5316 5.1772 23.5316 4.928V4.283L23.5975 3.79193L23.5242 3.15428V1.93759H23.8614V4.83271C23.8614 5.04265 23.9074 5.19185 24.0006 5.27981C24.0933 5.36776 24.208 5.41173 24.3451 5.41173C24.5064 5.41173 24.6456 5.34839 24.7629 5.22117C24.8849 5.08924 24.9775 4.90129 25.0414 4.65681C25.1095 4.41232 25.144 4.11442 25.144 3.76261C25.144 3.31814 25.0681 2.91502 24.9168 2.55326C24.7702 2.18679 24.5577 1.87163 24.2792 1.60777C24.0053 1.34391 23.6802 1.14339 23.3043 1.00675C22.9279 0.864874 22.5128 0.794194 22.0582 0.794194C21.6038 0.794194 21.186 0.867496 20.8049 1.01408C20.4237 1.16067 20.0964 1.36851 19.8227 1.63709C19.5491 1.90566 19.3366 2.22605 19.1851 2.59723C19.0385 2.9637 18.9652 3.37154 18.9652 3.82125C18.9652 4.26572 19.0385 4.67408 19.1851 5.04527C19.3316 5.41645 19.5393 5.73684 19.8081 6.00541C20.0817 6.27922 20.4067 6.48916 20.7829 6.63575C21.1591 6.78233 21.5744 6.85562 22.0289 6.85562C22.2488 6.85562 22.4834 6.82892 22.7326 6.775C22.9866 6.72631 23.2185 6.64569 23.4289 6.53313L23.5242 6.80432C23.3091 6.91688 23.0646 6.9996 22.7913 7.05352C22.5175 7.11216 22.2634 7.14148 22.0289 7.14148ZM21.9702 5.71224C21.6233 5.71224 21.3106 5.63161 21.0321 5.47036C20.7585 5.3044 20.541 5.07719 20.3797 4.78873C20.2234 4.50026 20.1452 4.17305 20.1452 3.80658C20.1452 3.4354 20.2234 3.10768 20.3797 2.82445C20.541 2.54122 20.7585 2.31871 21.0321 2.15747C21.3106 1.99151 21.6233 1.90828 21.9702 1.90828C22.3123 1.90828 22.6154 1.98628 22.8792 2.14282C23.1478 2.29935 23.3577 2.51922 23.5096 2.80245C23.6656 3.08568 23.7441 3.42074 23.7441 3.80658C23.7441 4.18771 23.6656 4.52226 23.5096 4.81073C23.3577 5.09919 23.1504 5.32116 22.8866 5.4777C22.6227 5.63423 22.3172 5.71224 21.9702 5.71224ZM22.0069 5.40439C22.3001 5.40439 22.5615 5.33843 22.7913 5.20651C23.0206 5.06986 23.2017 4.88139 23.3337 4.64214C23.4656 4.40289 23.5316 4.12436 23.5316 3.80658C23.5316 3.48409 23.4656 3.20558 23.3337 2.97104C23.2017 2.73179 23.0206 2.54594 22.7913 2.41401C22.5615 2.28208 22.3001 2.2161 22.0069 2.2161C21.7186 2.2161 21.4596 2.28208 21.23 2.41401C21.0003 2.54594 20.8195 2.73179 20.6876 2.97104C20.5557 3.21029 20.4897 3.4888 20.4897 3.80658C20.4897 4.11913 20.5557 4.39765 20.6876 4.64214C20.8195 4.88139 21.0003 5.06986 21.23 5.20651C21.4596 5.33843 21.7186 5.40439 22.0069 5.40439ZM27.425 3.08098H30.2029V3.41814H27.425V3.08098ZM27.469 5.68292H27.0952V0.552337H30.5254V0.88948H27.469V5.68292ZM32.0855 5.68292V0.552337H32.4593V5.68292H32.0855ZM35.9622 5.71957C35.5811 5.71957 35.2193 5.65622 34.8775 5.529C34.5403 5.39707 34.2786 5.22849 34.0932 5.02327L34.2618 4.74476C34.4377 4.92538 34.677 5.07929 34.9801 5.20651C35.2879 5.32849 35.6125 5.38974 35.9549 5.38974C36.2968 5.38974 36.5753 5.34576 36.7905 5.25781C37.0103 5.16514 37.1716 5.04265 37.2742 4.89135C37.3815 4.74005 37.4355 4.57147 37.4355 4.38561C37.4355 4.16573 37.3768 3.98983 37.2595 3.8579C37.1423 3.72597 36.9884 3.62073 36.7978 3.54272C36.6072 3.46472 36.3994 3.39876 36.1748 3.34483C35.9497 3.29091 35.7225 3.2349 35.4932 3.17626C35.2633 3.11292 35.0534 3.03229 34.8628 2.93439C34.6723 2.83649 34.5183 2.70455 34.4011 2.53859C34.2885 2.3674 34.2325 2.14753 34.2325 1.87896C34.2325 1.63447 34.2958 1.40988 34.4231 1.20466C34.5498 0.999432 34.7477 0.83346 35.0167 0.706242C35.2853 0.579024 35.6298 0.515686 36.0502 0.515686C36.3334 0.515686 36.6119 0.557048 36.8857 0.640289C37.1643 0.723531 37.4009 0.835557 37.5967 0.977433L37.4574 1.27794C37.2423 1.13135 37.0103 1.02403 36.7611 0.955449C36.5167 0.882155 36.2795 0.845512 36.0502 0.845512C35.7225 0.845512 35.4513 0.892102 35.2366 0.984766C35.0215 1.07743 34.8628 1.20203 34.7602 1.35856C34.6576 1.50986 34.6063 1.68106 34.6063 1.87163C34.6063 2.09151 34.6623 2.26741 34.7749 2.39934C34.8921 2.53127 35.0461 2.63649 35.2366 2.7145C35.4272 2.79251 35.6371 2.85848 35.867 2.91241C36.0963 2.96633 36.3235 3.02496 36.5486 3.08831C36.7732 3.14695 36.981 3.22495 37.1716 3.32285C37.3622 3.42075 37.5161 3.55267 37.6333 3.71863C37.7506 3.88459 37.8092 4.09977 37.8092 4.36363C37.8092 4.60288 37.7433 4.828 37.6114 5.03793C37.4794 5.24316 37.2763 5.40911 37.003 5.53633C36.7339 5.65831 36.3873 5.71957 35.9622 5.71957ZM43.2503 0.552337H43.6241V5.68292H43.2503V0.552337ZM39.8201 5.68292H39.4463V0.552337H39.8201V5.68292ZM43.2943 3.24223H39.7761V2.91241H43.2943V3.24223ZM46.1119 2.91241H48.8898V3.24223H46.1119V2.91241ZM46.1559 5.34576H49.3222V5.68292H45.7821V0.552337H49.2122V0.88948H46.1559V5.34576ZM51.0514 5.68292V0.552337H52.8911C53.3214 0.552337 53.69 0.620918 53.9978 0.75756C54.3057 0.894201 54.5428 1.0921 54.7088 1.35124C54.8753 1.60516 54.958 1.9156 54.958 2.28207C54.958 2.63859 54.8753 2.94643 54.7088 3.20558C54.5428 3.45949 54.3057 3.65739 53.9978 3.79926C53.69 3.93591 53.3214 4.00449 52.8911 4.00449H51.2566L51.4252 3.82858V5.68292H51.0514ZM54.6135 5.68292L53.2795 3.82125H53.7046L55.0386 5.68292H54.6135ZM51.4252 3.85057L51.2566 3.67466H52.8911C53.4434 3.67466 53.8612 3.55267 54.1444 3.30818C54.4329 3.0637 54.5768 2.72184 54.5768 2.28207C54.5768 1.83759 54.4329 1.49521 54.1444 1.25596C53.8612 1.01147 53.4434 0.88948 52.8911 0.88948H51.2566L51.4252 0.706242V3.85057ZM56.5317 5.71224C56.449 5.71224 56.3757 5.68292 56.3118 5.62428C56.2532 5.56094 56.2239 5.48503 56.2239 5.39708C56.2239 5.30912 56.2532 5.23582 56.3118 5.17719C56.3757 5.11855 56.449 5.08923 56.5317 5.08923C56.615 5.08923 56.6856 5.11855 56.7443 5.17719C56.8081 5.23582 56.8395 5.30912 56.8395 5.39708C56.8395 5.48503 56.8081 5.56094 56.7443 5.62428C56.6856 5.68292 56.615 5.71224 56.5317 5.71224ZM60.5535 5.71957C60.1723 5.71957 59.8179 5.65622 59.4907 5.529C59.1682 5.39707 58.8871 5.21384 58.6478 4.9793C58.408 4.74476 58.2227 4.47095 58.0908 4.15841C57.9588 3.84063 57.8929 3.49405 57.8929 3.11763C57.8929 2.74121 57.9588 2.39673 58.0908 2.08418C58.2227 1.7664 58.408 1.4905 58.6478 1.25596C58.8918 1.02142 59.1755 0.840793 59.498 0.713575C59.8205 0.581646 60.1723 0.515686 60.5535 0.515686C60.9147 0.515686 61.2519 0.574321 61.5649 0.691591C61.8822 0.808862 62.1534 0.987387 62.3785 1.22664L62.1439 1.46851C61.9241 1.25334 61.6796 1.09942 61.411 1.00675C61.1471 0.90885 60.866 0.860163 60.5681 0.860163C60.2404 0.860163 59.9352 0.916176 59.6519 1.02873C59.3734 1.14129 59.1289 1.29992 58.919 1.50515C58.7138 1.71037 58.5525 1.94963 58.4353 2.22344C58.3227 2.49724 58.2667 2.79513 58.2667 3.11763C58.2667 3.44012 58.3227 3.73801 58.4353 4.01182C58.5525 4.28563 58.7138 4.52487 58.919 4.73009C59.1289 4.93532 59.3734 5.09395 59.6519 5.20651C59.9352 5.31906 60.2404 5.37508 60.5681 5.37508C60.866 5.37508 61.1471 5.32849 61.411 5.23582C61.6796 5.13792 61.9241 4.97929 62.1439 4.75941L62.3785 5.00128C62.1534 5.24054 61.8822 5.42168 61.5649 5.54366C61.2519 5.66093 60.9147 5.71957 60.5535 5.71957ZM66.0662 5.71957C65.6851 5.71957 65.3312 5.65622 65.0035 5.529C64.681 5.39707 64.3977 5.21384 64.1532 4.9793C63.914 4.74005 63.7281 4.46362 63.5962 4.15107C63.4643 3.83329 63.3983 3.48881 63.3983 3.11763C63.3983 2.74645 63.4643 2.40406 63.5962 2.09151C63.7281 1.77373 63.914 1.49783 64.1532 1.26329C64.3977 1.02404 64.681 0.840793 65.0035 0.713575C65.3312 0.581646 65.6851 0.515686 66.0662 0.515686C66.4473 0.515686 66.7992 0.581646 67.1217 0.713575C67.4494 0.840793 67.7326 1.02142 67.9719 1.25596C68.2116 1.4905 68.397 1.7664 68.5289 2.08418C68.6661 2.39673 68.7341 2.74121 68.7341 3.11763C68.7341 3.49405 68.6661 3.84063 68.5289 4.15841C68.397 4.47095 68.2116 4.74476 67.9719 4.9793C67.7326 5.21384 67.4494 5.39707 67.1217 5.529C66.7992 5.65622 66.4473 5.71957 66.0662 5.71957ZM66.0662 5.37508C66.394 5.37508 66.6966 5.31906 66.9751 5.20651C67.2536 5.09395 67.4955 4.93532 67.7007 4.73009C67.9059 4.52487 68.0651 4.28563 68.1771 4.01182C68.2944 3.73801 68.353 3.44012 68.353 3.11763C68.353 2.79042 68.2944 2.49201 68.1771 2.22344C68.0651 1.94963 67.9059 1.71037 67.7007 1.50515C67.4955 1.29992 67.2536 1.14129 66.9751 1.02873C66.6966 0.916176 66.394 0.860163 66.0662 0.860163C65.739 0.860163 65.4359 0.916176 65.1574 1.02873C64.8789 1.14129 64.6349 1.29992 64.4244 1.50515C64.2192 1.71037 64.058 1.94963 63.9407 2.22344C63.8287 2.49201 63.7721 2.79042 63.7721 3.11763C63.7721 3.44012 63.8287 3.73801 63.9407 4.01182C64.058 4.28563 64.2192 4.52487 64.4244 4.73009C64.6349 4.93532 64.8789 5.09395 65.1574 5.20651C65.4359 5.31906 65.739 5.37508 66.0662 5.37508ZM70.3974 5.68292V0.552337H70.7125L73.0946 4.66412H72.926L75.3008 0.552337H75.6086L75.6159 5.68292H75.2495L75.2421 1.1167H75.3447L73.0946 5.00128H72.9114L70.6539 1.1167H70.7639V5.68292H70.3974Z" fill="#1F295D"/>
</svg>
