<svg width="59" height="7" viewBox="0 0 59 7" fill="none" xmlns="http://www.w3.org/2000/svg">
<path d="M2.23634 5.00199V1.96762H2.56616V5.00199H2.23634ZM0.84375 3.64605V3.33089H3.95875V3.64605H0.84375ZM6.0602 6.05011V1.08076L6.22877 1.25667H4.80687V0.919524H6.434V6.05011H6.0602ZM12.2489 6.08676C11.8434 6.08676 11.4965 6.02812 11.2082 5.91085C10.9199 5.79358 10.6976 5.62762 10.5412 5.41245C10.3897 5.19728 10.314 4.94075 10.314 4.64287C10.314 4.3544 10.3897 4.10782 10.5412 3.90259C10.6926 3.69737 10.9125 3.54084 11.2008 3.43351C11.4891 3.32095 11.8385 3.26493 12.2489 3.26493C12.6594 3.26493 13.0087 3.32095 13.297 3.43351C13.5902 3.54084 13.8126 3.69737 13.964 3.90259C14.1204 4.10782 14.1986 4.3544 14.1986 4.64287C14.1986 4.94075 14.1204 5.19728 13.964 5.41245C13.8076 5.62762 13.5829 5.79358 13.2897 5.91085C13.0014 6.02812 12.6545 6.08676 12.2489 6.08676ZM12.2489 5.76426C12.7425 5.76426 13.1285 5.66427 13.407 5.46376C13.6855 5.26324 13.8248 4.98997 13.8248 4.64287C13.8248 4.301 13.6855 4.0298 13.407 3.82929C13.1285 3.62878 12.7425 3.52878 12.2489 3.52878C11.7554 3.52878 11.3719 3.62878 11.0982 3.82929C10.8246 4.0298 10.6878 4.301 10.6878 4.64287C10.6878 4.98997 10.8246 5.26324 11.0982 5.46376C11.3719 5.66427 11.7554 5.76426 12.2489 5.76426ZM12.2489 3.47748C11.8776 3.47748 11.56 3.42879 11.2961 3.33089C11.0371 3.22828 10.8392 3.0817 10.7024 2.89113C10.5656 2.70057 10.4972 2.47335 10.4972 2.2095C10.4972 1.93569 10.568 1.70115 10.7098 1.50587C10.8564 1.30536 11.0616 1.15144 11.3254 1.04411C11.5893 0.936788 11.8971 0.882874 12.2489 0.882874C12.6056 0.882874 12.9159 0.936788 13.1798 1.04411C13.4436 1.15144 13.6489 1.30536 13.7954 1.50587C13.942 1.70115 14.0153 1.93569 14.0153 2.2095C14.0153 2.47335 13.9445 2.70057 13.8028 2.89113C13.666 3.0817 13.4656 3.22828 13.2018 3.33089C12.9379 3.42879 12.6203 3.47748 12.2489 3.47748ZM12.2489 3.22096C12.6887 3.22096 13.0307 3.13038 13.2751 2.94977C13.5194 2.76915 13.6415 2.52727 13.6415 2.22415C13.6415 1.90636 13.5145 1.65717 13.2604 1.47656C13.0112 1.29594 12.674 1.20537 12.2489 1.20537C11.8287 1.20537 11.494 1.29594 11.2448 1.47656C10.9956 1.65717 10.871 1.90428 10.871 2.21683C10.871 2.52466 10.9907 2.76915 11.2302 2.94977C11.4745 3.13038 11.814 3.22096 12.2489 3.22096ZM17.349 6.08676C16.9581 6.08676 16.6112 5.98152 16.3082 5.77158C16.0053 5.56165 15.7683 5.26325 15.5973 4.87741C15.4262 4.48633 15.3407 4.02248 15.3407 3.48482C15.3407 2.94715 15.4262 2.4854 15.5973 2.09956C15.7683 1.70848 16.0053 1.40797 16.3082 1.19803C16.6112 0.988098 16.9581 0.882874 17.349 0.882874C17.7448 0.882874 18.0917 0.988098 18.3898 1.19803C18.6928 1.40797 18.9297 1.70848 19.1007 2.09956C19.2718 2.4854 19.3573 2.94715 19.3573 3.48482C19.3573 4.02248 19.2718 4.48633 19.1007 4.87741C18.9297 5.26325 18.6928 5.56165 18.3898 5.77158C18.0917 5.98152 17.7448 6.08676 17.349 6.08676ZM17.349 5.74226C17.6764 5.74226 17.9622 5.65431 18.2065 5.47841C18.4509 5.29779 18.6414 5.03865 18.7782 4.7015C18.915 4.36435 18.9835 3.95861 18.9835 3.48482C18.9835 3.00579 18.915 2.60057 18.7782 2.26813C18.6414 1.93098 18.4509 1.67445 18.2065 1.49854C17.9622 1.31792 17.6764 1.22735 17.349 1.22735C17.0265 1.22735 16.7407 1.31792 16.4915 1.49854C16.2471 1.67445 16.0566 1.93098 15.9198 2.26813C15.783 2.60057 15.7146 3.00579 15.7146 3.48482C15.7146 3.95861 15.783 4.36435 15.9198 4.7015C16.0566 5.03865 16.2471 5.29779 16.4915 5.47841C16.7407 5.65431 17.0265 5.74226 17.349 5.74226ZM22.5398 6.08676C22.1488 6.08676 21.8019 5.98152 21.499 5.77158C21.196 5.56165 20.959 5.26325 20.788 4.87741C20.617 4.48633 20.5315 4.02248 20.5315 3.48482C20.5315 2.94715 20.617 2.4854 20.788 2.09956C20.959 1.70848 21.196 1.40797 21.499 1.19803C21.8019 0.988098 22.1488 0.882874 22.5398 0.882874C22.9355 0.882874 23.2824 0.988098 23.5806 1.19803C23.8832 1.40797 24.1204 1.70848 24.2916 2.09956C24.4623 2.4854 24.5481 2.94715 24.5481 3.48482C24.5481 4.02248 24.4623 4.48633 24.2916 4.87741C24.1204 5.26325 23.8832 5.56165 23.5806 5.77158C23.2824 5.98152 22.9355 6.08676 22.5398 6.08676ZM22.5398 5.74226C22.8671 5.74226 23.153 5.65431 23.3974 5.47841C23.6414 5.29779 23.8319 5.03865 23.9691 4.7015C24.1057 4.36435 24.1743 3.95861 24.1743 3.48482C24.1743 3.00579 24.1057 2.60057 23.9691 2.26813C23.8319 1.93098 23.6414 1.67445 23.3974 1.49854C23.153 1.31792 22.8671 1.22735 22.5398 1.22735C22.2173 1.22735 21.9314 1.31792 21.6822 1.49854C21.4379 1.67445 21.2473 1.93098 21.1105 2.26813C20.9737 2.60057 20.9053 3.00579 20.9053 3.48482C20.9053 3.95861 20.9737 4.36435 21.1105 4.7015C21.2473 5.03865 21.4379 5.29779 21.6822 5.47841C21.9314 5.65431 22.2173 5.74226 22.5398 5.74226ZM28.8871 6.05011V1.08076L29.0557 1.25667H27.6338V0.919524H29.2609V6.05011H28.8871ZM31.8377 6.05011V1.08076L32.0063 1.25667H30.5844V0.919524H32.2115V6.05011H31.8377ZM34.7878 6.05011V1.08076L34.9564 1.25667H33.5345V0.919524H35.1616V6.05011H34.7878ZM41.0796 6.08676C40.6885 6.08676 40.3414 5.98152 40.0388 5.77158C39.7357 5.56165 39.4985 5.26325 39.3279 4.87741C39.1567 4.48633 39.0713 4.02248 39.0713 3.48482C39.0713 2.94715 39.1567 2.4854 39.3279 2.09956C39.4985 1.70848 39.7357 1.40797 40.0388 1.19803C40.3414 0.988098 40.6885 0.882874 41.0796 0.882874C41.4754 0.882874 41.822 0.988098 42.1204 1.19803C42.423 1.40797 42.6601 1.70848 42.8313 2.09956C43.002 2.4854 43.0879 2.94715 43.0879 3.48482C43.0879 4.02248 43.002 4.48633 42.8313 4.87741C42.6601 5.26325 42.423 5.56165 42.1204 5.77158C41.822 5.98152 41.4754 6.08676 41.0796 6.08676ZM41.0796 5.74226C41.4068 5.74226 41.6927 5.65431 41.9371 5.47841C42.1811 5.29779 42.3717 5.03865 42.5088 4.7015C42.6455 4.36435 42.7141 3.95861 42.7141 3.48482C42.7141 3.00579 42.6455 2.60057 42.5088 2.26813C42.3717 1.93098 42.1811 1.67445 41.9371 1.49854C41.6927 1.31792 41.4068 1.22735 41.0796 1.22735C40.7571 1.22735 40.4713 1.31792 40.2221 1.49854C39.9776 1.67445 39.787 1.93098 39.6504 2.26813C39.5132 2.60057 39.4451 3.00579 39.4451 3.48482C39.4451 3.95861 39.5132 4.36435 39.6504 4.7015C39.787 5.03865 39.9776 5.29779 40.2221 5.47841C40.4713 5.65431 40.7571 5.74226 41.0796 5.74226ZM46.2699 6.08676C45.8793 6.08676 45.5322 5.98152 45.2291 5.77158C44.9265 5.56165 44.6893 5.26325 44.5181 4.87741C44.3475 4.48633 44.2616 4.02248 44.2616 3.48482C44.2616 2.94715 44.3475 2.4854 44.5181 2.09956C44.6893 1.70848 44.9265 1.40797 45.2291 1.19803C45.5322 0.988098 45.8793 0.882874 46.2699 0.882874C46.6657 0.882874 47.0128 0.988098 47.3107 1.19803C47.6138 1.40797 47.8509 1.70848 48.0216 2.09956C48.1928 2.4854 48.2781 2.94715 48.2781 3.48482C48.2781 4.02248 48.1928 4.48633 48.0216 4.87741C47.8509 5.26325 47.6138 5.56165 47.3107 5.77158C47.0128 5.98152 46.6657 6.08676 46.2699 6.08676ZM46.2699 5.74226C46.5976 5.74226 46.8834 5.65431 47.1274 5.47841C47.3719 5.29779 47.5625 5.03865 47.6991 4.7015C47.8363 4.36435 47.9043 3.95861 47.9043 3.48482C47.9043 3.00579 47.8363 2.60057 47.6991 2.26813C47.5625 1.93098 47.3719 1.67445 47.1274 1.49854C46.8834 1.31792 46.5976 1.22735 46.2699 1.22735C45.9474 1.22735 45.6615 1.31792 45.4123 1.49854C45.1684 1.67445 44.9778 1.93098 44.8406 2.26813C44.704 2.60057 44.6354 3.00579 44.6354 3.48482C44.6354 3.95861 44.704 4.36435 44.8406 4.7015C44.9778 5.03865 45.1684 5.29779 45.4123 5.47841C45.6615 5.65431 45.9474 5.74226 46.2699 5.74226ZM51.4607 6.08676C51.0701 6.08676 50.723 5.98152 50.4199 5.77158C50.1173 5.56165 49.8801 5.26325 49.7089 4.87741C49.5383 4.48633 49.4524 4.02248 49.4524 3.48482C49.4524 2.94715 49.5383 2.4854 49.7089 2.09956C49.8801 1.70848 50.1173 1.40797 50.4199 1.19803C50.723 0.988098 51.0701 0.882874 51.4607 0.882874C51.8565 0.882874 52.2036 0.988098 52.5014 1.19803C52.8046 1.40797 53.0417 1.70848 53.2124 2.09956C53.3836 2.4854 53.4689 2.94715 53.4689 3.48482C53.4689 4.02248 53.3836 4.48633 53.2124 4.87741C53.0417 5.26325 52.8046 5.56165 52.5014 5.77158C52.2036 5.98152 51.8565 6.08676 51.4607 6.08676ZM51.4607 5.74226C51.7884 5.74226 52.0742 5.65431 52.3182 5.47841C52.5627 5.29779 52.7533 5.03865 52.8899 4.7015C53.0271 4.36435 53.0951 3.95861 53.0951 3.48482C53.0951 3.00579 53.0271 2.60057 52.8899 2.26813C52.7533 1.93098 52.5627 1.67445 52.3182 1.49854C52.0742 1.31792 51.7884 1.22735 51.4607 1.22735C51.1382 1.22735 50.8523 1.31792 50.6031 1.49854C50.3592 1.67445 50.1686 1.93098 50.0314 2.26813C49.8948 2.60057 49.8262 3.00579 49.8262 3.48482C49.8262 3.95861 49.8948 4.36435 50.0314 4.7015C50.1686 5.03865 50.3592 5.29779 50.6031 5.47841C50.8523 5.65431 51.1382 5.74226 51.4607 5.74226ZM56.6515 6.08676C56.2609 6.08676 55.9138 5.98152 55.6107 5.77158C55.3081 5.56165 55.0709 5.26325 54.8997 4.87741C54.7291 4.48633 54.6432 4.02248 54.6432 3.48482C54.6432 2.94715 54.7291 2.4854 54.8997 2.09956C55.0709 1.70848 55.3081 1.40797 55.6107 1.19803C55.9138 0.988098 56.2609 0.882874 56.6515 0.882874C57.0472 0.882874 57.3944 0.988098 57.6922 1.19803C57.9954 1.40797 58.2325 1.70848 58.4032 2.09956C58.5744 2.4854 58.6597 2.94715 58.6597 3.48482C58.6597 4.02248 58.5744 4.48633 58.4032 4.87741C58.2325 5.26325 57.9954 5.56165 57.6922 5.77158C57.3944 5.98152 57.0472 6.08676 56.6515 6.08676ZM56.6515 5.74226C56.9792 5.74226 57.265 5.65431 57.509 5.47841C57.7535 5.29779 57.9441 5.03865 58.0807 4.7015C58.2179 4.36435 58.2859 3.95861 58.2859 3.48482C58.2859 3.00579 58.2179 2.60057 58.0807 2.26813C57.9441 1.93098 57.7535 1.67445 57.509 1.49854C57.265 1.31792 56.9792 1.22735 56.6515 1.22735C56.329 1.22735 56.0431 1.31792 55.7939 1.49854C55.55 1.67445 55.3594 1.93098 55.2222 2.26813C55.0856 2.60057 55.017 3.00579 55.017 3.48482C55.017 3.95861 55.0856 4.36435 55.2222 4.7015C55.3594 5.03865 55.55 5.29779 55.7939 5.47841C56.0431 5.65431 56.329 5.74226 56.6515 5.74226Z" fill="#1F295D"/>
</svg>
