<svg width="104" height="6" viewBox="0 0 104 6" fill="none" xmlns="http://www.w3.org/2000/svg">
<path d="M2.35377 5.86651L0.609375 0.735931H1.00516L2.66161 5.63931H2.46372L4.17147 0.735931H4.53061L6.2237 5.63931H6.03314L7.70424 0.735931H8.07071L6.33365 5.86651H5.93786L4.29607 1.12438H4.39135L2.74956 5.86651H2.35377ZM10.7654 5.86651L9.02102 0.735931H9.41681L11.0733 5.63931H10.8754L12.5831 0.735931H12.9423L14.6354 5.63931H14.4448L16.1159 0.735931H16.4824L14.7453 5.86651H14.3495L12.7077 1.12438H12.803L11.1612 5.86651H10.7654ZM19.1771 5.86651L17.4327 0.735931H17.8285L19.4849 5.63931H19.287L20.9948 0.735931H21.3539L23.047 5.63931H22.8564L24.5273 0.735931H24.8938L23.1569 5.86651H22.7612L21.1194 1.12438H21.2147L19.5729 5.86651H19.1771ZM26.0194 5.89583C25.9362 5.89583 25.8629 5.86651 25.7995 5.80788C25.7409 5.74453 25.7116 5.66862 25.7116 5.58067C25.7116 5.49272 25.7409 5.41942 25.7995 5.36078C25.8629 5.30215 25.9362 5.27283 26.0194 5.27283C26.1021 5.27283 26.1733 5.30215 26.232 5.36078C26.2953 5.41942 26.3272 5.49272 26.3272 5.58067C26.3272 5.66862 26.2953 5.74453 26.232 5.80788C26.1733 5.86651 26.1021 5.89583 26.0194 5.89583ZM28.959 5.86651V4.00484L29.047 4.24672L26.8921 0.735931H27.3026L29.2595 3.92422H29.0543L31.0112 0.735931H31.3997L29.2449 4.24672L29.3328 4.00484V5.86651H28.959ZM34.6519 5.90316C34.2707 5.90316 33.9163 5.83981 33.5891 5.71259C33.2666 5.58066 32.9829 5.39743 32.7389 5.16289C32.4991 4.92364 32.3138 4.64722 32.1819 4.33467C32.0499 4.01689 31.984 3.6724 31.984 3.30122C31.984 2.93004 32.0499 2.58766 32.1819 2.27511C32.3138 1.95733 32.4991 1.68143 32.7389 1.44688C32.9829 1.20763 33.2666 1.02439 33.5891 0.897169C33.9163 0.76524 34.2707 0.69928 34.6519 0.69928C35.033 0.69928 35.3848 0.76524 35.7073 0.897169C36.0345 1.02439 36.3177 1.20501 36.5575 1.43955C36.7968 1.67409 36.9826 1.94999 37.1146 2.26778C37.2512 2.58032 37.3198 2.9248 37.3198 3.30122C37.3198 3.67764 37.2512 4.02422 37.1146 4.342C36.9826 4.65455 36.7968 4.92835 36.5575 5.16289C36.3177 5.39743 36.0345 5.58066 35.7073 5.71259C35.3848 5.83981 35.033 5.90316 34.6519 5.90316ZM34.6519 5.55867C34.9791 5.55867 35.2822 5.50266 35.5607 5.3901C35.8392 5.27754 36.0811 5.11891 36.2863 4.91369C36.4916 4.70846 36.6502 4.46922 36.7627 4.19541C36.88 3.92161 36.9387 3.62372 36.9387 3.30122C36.9387 2.97402 36.88 2.6756 36.7627 2.40703C36.6502 2.13322 36.4916 1.89397 36.2863 1.68874C36.0811 1.48352 35.8392 1.32489 35.5607 1.21233C35.2822 1.09977 34.9791 1.04376 34.6519 1.04376C34.3241 1.04376 34.0215 1.09977 33.743 1.21233C33.4645 1.32489 33.22 1.48352 33.0101 1.68874C32.8049 1.89397 32.6436 2.13322 32.5263 2.40703C32.4138 2.6756 32.3578 2.97402 32.3578 3.30122C32.3578 3.62372 32.4138 3.92161 32.5263 4.19541C32.6436 4.46922 32.8049 4.70846 33.0101 4.91369C33.22 5.11891 33.4645 5.27754 33.743 5.3901C34.0215 5.50266 34.3241 5.55867 34.6519 5.55867ZM40.9908 5.90316C40.3557 5.90316 39.8547 5.71731 39.4882 5.34613C39.1218 4.97495 38.9385 4.42262 38.9385 3.68968V0.735931H39.3123V3.67502C39.3123 4.31529 39.4589 4.78909 39.7521 5.09692C40.0453 5.40476 40.461 5.55867 40.9981 5.55867C41.5311 5.55867 41.9436 5.40476 42.2368 5.09692C42.5299 4.78909 42.6765 4.31529 42.6765 3.67502V0.735931H43.0503V3.68968C43.0503 4.42262 42.8671 4.97495 42.5006 5.34613C42.1342 5.71731 41.631 5.90316 40.9908 5.90316ZM45.1612 5.86651V0.735931H47.0009C47.4307 0.735931 47.7998 0.804512 48.1076 0.941153C48.4155 1.07779 48.6521 1.27569 48.8186 1.53484C48.9845 1.78875 49.0678 2.09919 49.0678 2.46566C49.0678 2.82219 48.9845 3.13003 48.8186 3.38917C48.6521 3.64309 48.4155 3.84098 48.1076 3.98286C47.7998 4.1195 47.4307 4.18808 47.0009 4.18808H45.3664L45.535 4.01218V5.86651H45.1612ZM48.7233 5.86651L47.3893 4.00484H47.8145L49.1484 5.86651H48.7233ZM45.535 4.03416L45.3664 3.85825H47.0009C47.5527 3.85825 47.9705 3.73627 48.2542 3.49178C48.5422 3.24729 48.6867 2.90543 48.6867 2.46566C48.6867 2.02119 48.5422 1.6788 48.2542 1.43955C47.9705 1.19506 47.5527 1.07307 47.0009 1.07307H45.3664L45.535 0.889836V4.03416ZM52.1514 5.90316C51.7702 5.90316 51.4085 5.83981 51.0666 5.71259C50.7295 5.58066 50.4682 5.41208 50.2824 5.20686L50.4509 4.92835C50.6269 5.10897 50.8661 5.26288 51.1692 5.3901C51.4771 5.51208 51.8022 5.57334 52.144 5.57334C52.4859 5.57334 52.7644 5.52935 52.9796 5.4414C53.1995 5.34874 53.3607 5.22624 53.4633 5.07494C53.5707 4.92364 53.6246 4.75506 53.6246 4.56921C53.6246 4.34933 53.5659 4.17342 53.4487 4.04149C53.3314 3.90956 53.1775 3.80432 52.9869 3.72632C52.7964 3.64831 52.5885 3.58235 52.3639 3.52843C52.1393 3.4745 51.9121 3.41849 51.6823 3.35986C51.4525 3.29651 51.2425 3.21588 51.052 3.11798C50.8614 3.02008 50.7075 2.88815 50.5902 2.72219C50.4776 2.55099 50.4216 2.33112 50.4216 2.06255C50.4216 1.81806 50.485 1.59347 50.6122 1.38825C50.7394 1.18303 50.9373 1.01705 51.2059 0.889836C51.4744 0.762618 51.8189 0.69928 52.2393 0.69928C52.5226 0.69928 52.8011 0.740642 53.0749 0.823883C53.3534 0.907124 53.5905 1.01915 53.7858 1.16103L53.6466 1.46154C53.4314 1.31495 53.1995 1.20762 52.9503 1.13904C52.7058 1.06575 52.4692 1.02911 52.2393 1.02911C51.9121 1.02911 51.6409 1.0757 51.4258 1.16836C51.2106 1.26102 51.052 1.38562 50.9493 1.54215C50.8467 1.69345 50.7954 1.86465 50.7954 2.05522C50.7954 2.2751 50.8514 2.451 50.964 2.58293C51.0813 2.71486 51.2352 2.82009 51.4258 2.89809C51.6163 2.9761 51.8263 3.04208 52.0561 3.096C52.2859 3.14992 52.5131 3.20856 52.7377 3.2719C52.9623 3.33054 53.1702 3.40854 53.3607 3.50644C53.5513 3.60434 53.7052 3.73626 53.8225 3.90222C53.9397 4.06818 53.9984 4.28337 53.9984 4.54722C53.9984 4.78648 53.9324 5.01159 53.8005 5.22153C53.6686 5.42675 53.466 5.59271 53.1921 5.71992C52.9236 5.84191 52.5765 5.90316 52.1514 5.90316ZM55.6355 5.86651V0.735931H56.0093V5.86651H55.6355ZM59.1457 5.86651V1.07307H57.2987V0.735931H61.3665V1.07307H59.5195V5.86651H59.1457ZM62.99 3.096H65.7678V3.42583H62.99V3.096ZM63.034 5.52935H66.2003V5.86651H62.6602V0.735931H66.0903V1.07307H63.034V5.52935ZM69.9378 5.90316C69.3027 5.90316 68.8017 5.71731 68.4352 5.34613C68.0688 4.97495 67.8855 4.42262 67.8855 3.68968V0.735931H68.2593V3.67502C68.2593 4.31529 68.4059 4.78909 68.6991 5.09692C68.9923 5.40476 69.4074 5.55867 69.9451 5.55867C70.4775 5.55867 70.8906 5.40476 71.1838 5.09692C71.4769 4.78909 71.6235 4.31529 71.6235 3.67502V0.735931H71.9973V3.68968C71.9973 4.42262 71.8141 4.97495 71.4476 5.34613C71.0811 5.71731 70.578 5.90316 69.9378 5.90316ZM74.1082 5.86651V0.735931H75.9479C76.3777 0.735931 76.7468 0.804512 77.0546 0.941153C77.3624 1.07779 77.5991 1.27569 77.7656 1.53484C77.9315 1.78875 78.0148 2.09919 78.0148 2.46566C78.0148 2.82219 77.9315 3.13003 77.7656 3.38917C77.5991 3.64309 77.3624 3.84098 77.0546 3.98286C76.7468 4.1195 76.3777 4.18808 75.9479 4.18808H74.3134L74.482 4.01218V5.86651H74.1082ZM77.6703 5.86651L76.3363 4.00484H76.7614L78.0954 5.86651H77.6703ZM74.482 4.03416L74.3134 3.85825H75.9479C76.4997 3.85825 76.9174 3.73627 77.2012 3.49178C77.4891 3.24729 77.6336 2.90543 77.6336 2.46566C77.6336 2.02119 77.4891 1.6788 77.2012 1.43955C76.9174 1.19506 76.4997 1.07307 75.9479 1.07307H74.3134L74.482 0.889836V4.03416ZM79.7497 5.86651V0.735931H80.1235V5.52935H83.0773V5.86651H79.7497ZM84.4641 5.89583C84.3809 5.89583 84.3076 5.86651 84.2442 5.80788C84.1856 5.74453 84.1563 5.66862 84.1563 5.58067C84.1563 5.49272 84.1856 5.41942 84.2442 5.36078C84.3076 5.30215 84.3809 5.27283 84.4641 5.27283C84.5474 5.27283 84.618 5.30215 84.6767 5.36078C84.74 5.41942 84.772 5.49272 84.772 5.58067C84.772 5.66862 84.74 5.74453 84.6767 5.80788C84.618 5.86651 84.5474 5.89583 84.4641 5.89583ZM88.4854 5.90316C88.1042 5.90316 87.7503 5.83981 87.4226 5.71259C87.1001 5.58066 86.8195 5.39743 86.5797 5.16289C86.3405 4.92835 86.1546 4.65455 86.0227 4.342C85.8907 4.02422 85.8248 3.67764 85.8248 3.30122C85.8248 2.9248 85.8907 2.58032 86.0227 2.26778C86.1546 1.94999 86.3405 1.67409 86.5797 1.43955C86.8242 1.20501 87.1074 1.02439 87.4299 0.897169C87.7524 0.76524 88.1042 0.69928 88.4854 0.69928C88.8471 0.69928 89.1843 0.757914 89.4968 0.875185C89.8146 0.992455 90.0858 1.17098 90.3104 1.41023L90.0758 1.65211C89.856 1.43694 89.612 1.28301 89.3429 1.19034C89.079 1.09244 88.7984 1.04376 88.5 1.04376C88.1728 1.04376 87.8676 1.09977 87.5838 1.21233C87.3053 1.32489 87.0614 1.48352 86.8509 1.68874C86.6457 1.89397 86.4844 2.13322 86.3672 2.40703C86.2551 2.68084 86.1986 2.97873 86.1986 3.30122C86.1986 3.62372 86.2551 3.92161 86.3672 4.19541C86.4844 4.46922 86.6457 4.70846 86.8509 4.91369C87.0614 5.11891 87.3053 5.27754 87.5838 5.3901C87.8676 5.50266 88.1728 5.55867 88.5 5.55867C88.7984 5.55867 89.079 5.51208 89.3429 5.41942C89.612 5.32152 89.856 5.16289 90.0758 4.943L90.3104 5.18488C90.0858 5.42413 89.8146 5.60528 89.4968 5.72726C89.1843 5.84453 88.8471 5.90316 88.4854 5.90316ZM93.9986 5.90316C93.6175 5.90316 93.2631 5.83981 92.9359 5.71259C92.6134 5.58066 92.3296 5.39743 92.0857 5.16289C91.8459 4.92364 91.6606 4.64722 91.5286 4.33467C91.3967 4.01689 91.3307 3.6724 91.3307 3.30122C91.3307 2.93004 91.3967 2.58766 91.5286 2.27511C91.6606 1.95733 91.8459 1.68143 92.0857 1.44688C92.3296 1.20763 92.6134 1.02439 92.9359 0.897169C93.2631 0.76524 93.6175 0.69928 93.9986 0.69928C94.3798 0.69928 94.7316 0.76524 95.0541 0.897169C95.3813 1.02439 95.6645 1.20501 95.9043 1.43955C96.1435 1.67409 96.3294 1.94999 96.4613 2.26778C96.598 2.58032 96.6665 2.9248 96.6665 3.30122C96.6665 3.67764 96.598 4.02422 96.4613 4.342C96.3294 4.65455 96.1435 4.92835 95.9043 5.16289C95.6645 5.39743 95.3813 5.58066 95.0541 5.71259C94.7316 5.83981 94.3798 5.90316 93.9986 5.90316ZM93.9986 5.55867C94.3259 5.55867 94.629 5.50266 94.9075 5.3901C95.186 5.27754 95.4279 5.11891 95.6331 4.91369C95.8383 4.70846 95.997 4.46922 96.1095 4.19541C96.2268 3.92161 96.2854 3.62372 96.2854 3.30122C96.2854 2.97402 96.2268 2.6756 96.1095 2.40703C95.997 2.13322 95.8383 1.89397 95.6331 1.68874C95.4279 1.48352 95.186 1.32489 94.9075 1.21233C94.629 1.09977 94.3259 1.04376 93.9986 1.04376C93.6709 1.04376 93.3683 1.09977 93.0898 1.21233C92.8113 1.32489 92.5668 1.48352 92.3569 1.68874C92.1516 1.89397 91.9904 2.13322 91.8731 2.40703C91.7606 2.6756 91.7045 2.97402 91.7045 3.30122C91.7045 3.62372 91.7606 3.92161 91.8731 4.19541C91.9904 4.46922 92.1516 4.70846 92.3569 4.91369C92.5668 5.11891 92.8113 5.27754 93.0898 5.3901C93.3683 5.50266 93.6709 5.55867 93.9986 5.55867ZM98.3293 5.86651V0.735931H98.6444L101.027 4.84772H100.858L103.233 0.735931H103.54L103.548 5.86651H103.181L103.174 1.3003H103.277L101.027 5.18488H100.843L98.5858 1.3003H98.6958V5.86651H98.3293Z" fill="#1F295D"/>
</svg>
